<?xml version="1.0" encoding="utf-8"?>
<!-- Generator: Adobe Illustrator 24.0.1, SVG Export Plug-In . SVG Version: 6.00 Build 0)  -->
<svg version="1.1" id="Layer_1" xmlns="http://www.w3.org/2000/svg" xmlns:xlink="http://www.w3.org/1999/xlink" x="0px" y="0px"
	 viewBox="0 0 512 512" style="enable-background:new 0 0 512 512;" xml:space="preserve">
<style type="text/css">
	.st0{fill:#8DC63F;}
	.st1{fill:#008FD5;}
</style>
<g>
	<path class="st0" d="M260.63,116.62c-7.04,7.37-13.08,15.09-17.42,24.05c-6.21,12.8-9.84,26.23-10.02,40.49
		c-0.03,2.48-0.82,4.32-2.32,6.19c-11.4,14.27-16.48,30.53-15.02,48.75c0.14,1.77-0.2,2.47-2.07,2.82
		c-14.47,2.72-28.92,5.53-43.35,8.42c-2.09,0.42-2.62-0.08-2.89-2.2c-1.82-14.66-0.71-29.11,2.9-43.38
		c0.74-2.94,0.88-4.13-2.84-3.81c-4.83,0.42-9.77,0.47-14.59-0.03c-3.65-0.38-4.02,1.06-4,4.03c0.1,15.19-0.02,30.37,0.11,45.56
		c0.02,2.68-0.43,4.05-3.4,4.58c-14.48,2.61-28.94,5.37-43.37,8.27c-2.47,0.5-2.85-0.04-2.85-2.33
		c0.11-33.67-0.66-67.36,0.47-100.99c0.85-25.28,11.52-47.33,28.38-66.15c20.39-22.75,45.83-36.04,76.13-40.19
		c10.03-1.37,9.99-1.64,9.99,8.59c0,12.03-0.09,24.07,0.07,36.1c0.04,2.86-0.6,3.81-3.68,4c-26.56,1.68-48.94,18.91-57.53,44.02
		c-1.79,5.23-1.71,5.34,3.96,5.34c13.04,0,26.08-0.04,39.11,0.04c2.29,0.01,3.98-0.56,5.7-2.22c16.05-15.5,34.98-25.61,56.88-30.07
		C259.37,116.44,259.8,116.56,260.63,116.62z"/>
	<path class="st1" d="M310.66,290.79c0,5.89,0,11.42,0,16.95c0,10.6-0.1,21.19,0.07,31.79c0.04,2.78-0.75,4.05-3.51,4.71
		c-37.83,9-71.4,0.41-100.8-24.64c-13.5-11.5-23.37-25.83-30.4-42.12c-1.02-2.35-1.49-3.42,1.96-4.02
		c14.08-2.45,28.09-5.31,42.1-8.09c2.46-0.49,4.2-0.44,5.72,2.12c16.53,27.95,52.32,40.22,82.83,24
		C309.09,291.24,309.64,291.14,310.66,290.79z"/>
	<path class="st1" d="M393.06,289.03c0,17.48-0.07,34.96,0.07,52.44c0.02,2.91-0.59,3.91-3.71,3.87
		c-14.04-0.18-28.08-0.15-42.12-0.01c-2.84,0.03-3.55-0.83-3.54-3.6c0.09-32.24,0.08-64.47,0.01-96.71
		c-0.01-2.45,0.67-3.56,3.16-4.01c14.06-2.58,28.12-5.13,42.1-8.08c3.9-0.82,4.11,0.52,4.09,3.66
		C393,254.08,393.06,271.56,393.06,289.03z"/>
	<path class="st1" d="M272.89,117.08c-1.73,2.9-3.53,5.77-5.16,8.72c-6.32,11.41-10.96,23.33-10.49,36.68
		c0.44,12.39,8.78,21.54,20.04,21.57c9.24,0.03,16.11-4.68,20.9-12.28c8.08-12.81,9.24-27.1,8.35-41.75
		c-0.62-10.25-2.31-20.35-4.39-30.51c1.93-0.06,2.13,1.31,2.71,2.15c16.29,23.94,17.93,49.12,6.26,75.39
		c-3.84,8.65-8.39,16.93-13.51,24.89c-16.1,25.04-14.46,47.45,5.18,69.88c2.42,2.77,4.94,5.45,7.23,8.39
		c-11.97-6.41-23.31-13.77-33.63-22.57c-15.42-13.14-28.17-28.39-33.23-48.46c-8.29-32.88-1.97-62.38,22.02-87.26
		C267.25,119.76,269.55,117.85,272.89,117.08z"/>
	<path class="st0" d="M322.67,123.35c18.71,8.05,33.74,19.98,45.81,35.66c9.81,12.74,16.61,26.96,20.74,42.54
		c0.89,3.35-0.24,3.87-2.91,4.38c-13.2,2.49-26.38,5.07-39.55,7.67c-3.08,0.61-4.79,0.5-5.94-3.47
		c-3.52-12.2-10.26-22.59-19.95-30.95c-1.23-1.06-2.67-1.75-1.72-4.14C325.75,158.39,327.24,141.29,322.67,123.35z"/>
	<path class="st1" d="M149.07,312.75c0,9.6-0.07,19.2,0.05,28.81c0.03,2.54-0.29,3.8-3.39,3.76c-14.33-0.17-28.66-0.15-42.99-0.01
		c-2.71,0.03-3.32-0.83-3.3-3.4c0.11-16.77,0.1-33.54,0.01-50.3c-0.01-2.28,0.55-3.08,2.96-3.52c14.2-2.61,28.38-5.38,42.51-8.32
		c3.62-0.75,4.29,0.43,4.22,3.76C148.95,293.25,149.07,303,149.07,312.75z"/>
	<path class="st0" d="M297.94,150.5c-6.8-13.49-16.31-16.72-29.75-9.74c3.31-9.47,8.63-17.3,14.22-24.98
		c0.77-1.06,1.85-1.25,3.04-1.13c1.7,0.17,3.4,0.3,5.09,0.53c8.26,1.13,8.12,1.15,8.91,9.63c0.71,7.56,1.17,15.09,0,22.63
		C299.28,148.55,299.63,149.83,297.94,150.5z"/>
	<path class="st1" d="M267.31,155.69c-0.07-7.25,5.4-12.78,12.61-12.77c6.84,0.01,12.44,5.57,12.59,12.49
		c0.14,6.76-5.51,12.63-12.31,12.78C272.98,168.34,267.38,162.92,267.31,155.69z"/>
	<g>
		<path class="st0" d="M25.48,380.91v14.97h15.66V401H25.48v21.01h-7.3v-46.48h24.18v5.38H25.48z"/>
		<path class="st0" d="M51.04,422.01v-46.48h7.3v40.97h16.22v5.51H51.04z"/>
		<path class="st0" d="M115.69,398.7c0,3.63-0.45,6.95-1.34,9.95c-0.89,3-2.19,5.57-3.89,7.71c-1.7,2.15-3.76,3.81-6.17,4.99
			c-2.41,1.18-5.15,1.77-8.23,1.77s-5.84-0.59-8.27-1.77c-2.43-1.18-4.5-2.85-6.21-4.99c-1.7-2.14-3-4.72-3.89-7.71
			c-0.89-2.99-1.34-6.31-1.34-9.95c0-3.63,0.43-6.94,1.3-9.94c0.86-3,2.14-5.56,3.81-7.68c1.68-2.12,3.74-3.76,6.21-4.92
			c2.46-1.16,5.26-1.74,8.4-1.74c3.08,0,5.83,0.58,8.23,1.74c2.41,1.16,4.46,2.8,6.17,4.92c1.7,2.12,3,4.69,3.89,7.68
			C115.25,391.76,115.69,395.07,115.69,398.7z M107.99,398.7c0-2.63-0.26-5.1-0.77-7.42c-0.52-2.32-1.27-4.33-2.27-6.04
			c-1-1.71-2.24-3.05-3.73-4.04c-1.49-0.98-3.2-1.48-5.15-1.48c-2,0-3.76,0.49-5.27,1.48c-1.52,0.98-2.77,2.33-3.77,4.04
			c-1,1.71-1.75,3.72-2.23,6.04c-0.49,2.32-0.73,4.79-0.73,7.42c0,2.63,0.24,5.1,0.73,7.42c0.49,2.32,1.23,4.33,2.23,6.04
			c1,1.71,2.26,3.05,3.77,4.04c1.51,0.98,3.27,1.48,5.27,1.48c1.95,0,3.66-0.49,5.15-1.48c1.49-0.98,2.73-2.33,3.73-4.04
			c1-1.71,1.76-3.72,2.27-6.04C107.73,403.81,107.99,401.33,107.99,398.7z"/>
		<path class="st0" d="M149.36,422.01l-9.73-20.74h-6.65v20.74h-7.14v-46.48h14.89c2.11,0,4.11,0.23,5.98,0.69
			c1.87,0.46,3.51,1.19,4.92,2.2c1.41,1.01,2.52,2.32,3.34,3.94c0.81,1.62,1.22,3.57,1.22,5.84c0,1.88-0.3,3.52-0.9,4.92
			c-0.6,1.4-1.38,2.6-2.34,3.58c-0.96,0.98-2.01,1.76-3.15,2.33c-1.14,0.57-2.26,0.94-3.34,1.11l10.79,21.86H149.36z M148.87,388.43
			c0-1.58-0.27-2.88-0.81-3.89s-1.24-1.82-2.11-2.44c-0.87-0.62-1.87-1.04-3-1.28c-1.13-0.24-2.27-0.36-3.41-0.36h-6.57v16.22h6.73
			c2.76,0,4.97-0.72,6.65-2.14C148.04,393.1,148.87,391.07,148.87,388.43z"/>
		<path class="st0" d="M165.75,422.01v-46.48h7.3v46.48H165.75z"/>
		<path class="st0" d="M220.42,398.84c0,7.53-1.89,13.27-5.68,17.23c-3.79,3.96-9.09,5.94-15.9,5.94H185.7v-46.48h13.22
			c6.81,0,12.1,1.99,15.86,5.98C218.54,385.49,220.42,391.27,220.42,398.84z M213.12,398.84c0-3.06-0.36-5.73-1.09-8.01
			s-1.72-4.16-2.99-5.65c-1.27-1.49-2.77-2.6-4.52-3.35c-1.75-0.74-3.62-1.11-5.62-1.11H193v36.1h5.9c1.99,0,3.86-0.37,5.62-1.11
			c1.75-0.74,3.26-1.86,4.52-3.35c1.27-1.49,2.26-3.36,2.99-5.61C212.76,404.49,213.12,401.86,213.12,398.84z"/>
		<path class="st0" d="M253.52,422.01l-3.24-10.9h-16.63l-3.33,10.9h-7.38l14.44-46.48h9.66l14.12,46.48H253.52z M242.25,381.04
			h-0.32l-7.3,25.41h14.68L242.25,381.04z"/>
		<path class="st1" d="M305.53,422.01l-3.24-10.9h-16.63l-3.33,10.9h-7.38l14.44-46.48h9.66l14.12,46.48H305.53z M294.25,381.04
			h-0.32l-7.3,25.41h14.68L294.25,381.04z"/>
		<path class="st1" d="M345.77,421.45c-2.27,1.12-5.03,1.67-8.28,1.67c-3.19,0-6.06-0.61-8.6-1.84c-2.54-1.22-4.68-2.93-6.41-5.12
			c-1.73-2.19-3.06-4.76-3.97-7.71c-0.92-2.95-1.38-6.18-1.38-9.68c0-3.5,0.47-6.74,1.42-9.72c0.95-2.97,2.3-5.55,4.06-7.71
			c1.76-2.17,3.89-3.86,6.41-5.09c2.51-1.22,5.34-1.84,8.48-1.84c2.92,0,5.6,0.46,8.03,1.38c2.43,0.92,4.43,2.32,6,4.2l-4.54,4
			c-1.19-1.4-2.57-2.44-4.14-3.12s-3.24-1.02-5.03-1.02c-2.22,0-4.14,0.51-5.76,1.51c-1.62,1.01-2.96,2.36-4.01,4.07
			c-1.05,1.71-1.85,3.71-2.39,6.01c-0.54,2.3-0.81,4.74-0.81,7.32c0,2.58,0.27,5.01,0.81,7.29c0.54,2.28,1.35,4.28,2.43,6.01
			c1.08,1.73,2.45,3.1,4.1,4.1c1.65,1.01,3.58,1.51,5.8,1.51c2,0,3.77-0.44,5.31-1.31c1.54-0.88,2.77-1.95,3.69-3.21l4.38,3.87
			C349.91,418.86,348.04,420.34,345.77,421.45z"/>
		<path class="st1" d="M384.22,421.45c-2.27,1.12-5.03,1.67-8.28,1.67c-3.19,0-6.06-0.61-8.6-1.84c-2.54-1.22-4.68-2.93-6.41-5.12
			c-1.73-2.19-3.06-4.76-3.97-7.71c-0.92-2.95-1.38-6.18-1.38-9.68c0-3.5,0.47-6.74,1.42-9.72c0.95-2.97,2.3-5.55,4.06-7.71
			c1.76-2.17,3.89-3.86,6.41-5.09c2.51-1.22,5.34-1.84,8.48-1.84c2.92,0,5.6,0.46,8.03,1.38c2.43,0.92,4.43,2.32,6,4.2l-4.54,4
			c-1.19-1.4-2.57-2.44-4.14-3.12s-3.24-1.02-5.03-1.02c-2.22,0-4.14,0.51-5.76,1.51c-1.62,1.01-2.96,2.36-4.01,4.07
			c-1.05,1.71-1.85,3.71-2.39,6.01c-0.54,2.3-0.81,4.74-0.81,7.32c0,2.58,0.27,5.01,0.81,7.29c0.54,2.28,1.35,4.28,2.43,6.01
			c1.08,1.73,2.45,3.1,4.1,4.1c1.65,1.01,3.58,1.51,5.8,1.51c2,0,3.77-0.44,5.31-1.31c1.54-0.88,2.77-1.95,3.69-3.21l4.38,3.87
			C388.36,418.86,386.49,420.34,384.22,421.45z"/>
		<path class="st1" d="M397.52,422.01v-46.48h24.18v5.25h-17.12v14.64h15.98v4.92h-15.98v16.35h17.93v5.32H397.52z"/>
		<path class="st1" d="M458.04,409.67c0,2.1-0.41,3.99-1.22,5.68c-0.81,1.68-1.91,3.09-3.29,4.23c-1.38,1.14-3.01,2.01-4.91,2.63
			c-1.89,0.61-3.92,0.92-6.08,0.92c-2.92,0-5.69-0.49-8.32-1.48c-2.62-0.98-4.72-2.29-6.29-3.9l4.3-4.27
			c1.24,1.31,2.8,2.34,4.66,3.09c1.87,0.74,3.75,1.11,5.64,1.11c2.43,0,4.43-0.66,6-1.97c1.57-1.31,2.35-3.22,2.35-5.71
			c0-1.18-0.24-2.22-0.73-3.12c-0.49-0.9-1.16-1.71-2.03-2.43c-0.87-0.72-1.85-1.38-2.96-1.97c-1.11-0.59-2.31-1.15-3.61-1.67
			c-1.57-0.61-3.04-1.3-4.42-2.07c-1.38-0.77-2.61-1.65-3.69-2.66c-1.08-1-1.93-2.2-2.56-3.58c-0.62-1.38-0.93-3.01-0.93-4.89
			c0-2.23,0.43-4.18,1.3-5.84c0.86-1.66,2.01-3.04,3.45-4.13c1.43-1.09,3.07-1.91,4.91-2.43c1.84-0.53,3.7-0.79,5.6-0.79
			c2.76,0,5.23,0.37,7.42,1.11c2.19,0.75,4.01,1.86,5.48,3.35l-4.38,4.2c-2.06-2.19-4.82-3.28-8.27-3.28
			c-1.03,0-2.04,0.14-3.04,0.43c-1,0.29-1.91,0.75-2.72,1.38c-0.81,0.64-1.46,1.43-1.95,2.4c-0.49,0.97-0.73,2.12-0.73,3.48
			c0,1.18,0.23,2.2,0.69,3.05c0.46,0.86,1.08,1.62,1.87,2.3c0.78,0.68,1.69,1.29,2.72,1.84c1.03,0.55,2.14,1.06,3.33,1.54
			c1.51,0.61,3,1.3,4.46,2.07c1.46,0.77,2.79,1.67,3.97,2.73c1.19,1.05,2.15,2.29,2.88,3.71
			C457.68,406.13,458.04,407.79,458.04,409.67z"/>
		<path class="st1" d="M493.74,409.67c0,2.1-0.41,3.99-1.22,5.68c-0.81,1.68-1.91,3.09-3.29,4.23c-1.38,1.14-3.01,2.01-4.91,2.63
			c-1.89,0.61-3.92,0.92-6.08,0.92c-2.92,0-5.69-0.49-8.32-1.48c-2.62-0.98-4.72-2.29-6.29-3.9l4.3-4.27
			c1.24,1.31,2.8,2.34,4.66,3.09c1.87,0.74,3.75,1.11,5.64,1.11c2.43,0,4.43-0.66,6-1.97c1.57-1.31,2.35-3.22,2.35-5.71
			c0-1.18-0.24-2.22-0.73-3.12c-0.49-0.9-1.16-1.71-2.03-2.43c-0.87-0.72-1.85-1.38-2.96-1.97c-1.11-0.59-2.31-1.15-3.61-1.67
			c-1.57-0.61-3.04-1.3-4.42-2.07c-1.38-0.77-2.61-1.65-3.69-2.66c-1.08-1-1.93-2.2-2.56-3.58c-0.62-1.38-0.93-3.01-0.93-4.89
			c0-2.23,0.43-4.18,1.3-5.84c0.86-1.66,2.01-3.04,3.45-4.13c1.43-1.09,3.07-1.91,4.91-2.43c1.84-0.53,3.7-0.79,5.6-0.79
			c2.76,0,5.23,0.37,7.42,1.11c2.19,0.75,4.01,1.86,5.48,3.35l-4.38,4.2c-2.06-2.19-4.82-3.28-8.27-3.28
			c-1.03,0-2.04,0.14-3.04,0.43c-1,0.29-1.91,0.75-2.72,1.38c-0.81,0.64-1.46,1.43-1.95,2.4c-0.49,0.97-0.73,2.12-0.73,3.48
			c0,1.18,0.23,2.2,0.69,3.05c0.46,0.86,1.08,1.62,1.87,2.3s1.69,1.29,2.72,1.84c1.03,0.55,2.14,1.06,3.33,1.54
			c1.51,0.61,3,1.3,4.46,2.07s2.79,1.67,3.97,2.73c1.19,1.05,2.15,2.29,2.88,3.71C493.37,406.13,493.74,407.79,493.74,409.67z"/>
	</g>
	<g>
		<path class="st0" d="M97.41,461.39l-1.6-5.71h-8.19l-1.64,5.71h-3.64l7.11-24.37h4.75l6.95,24.37H97.41z M91.86,439.91H91.7
			l-3.6,13.32h7.23L91.86,439.91z"/>
		<path class="st0" d="M116.06,461.39l-9.03-18.9h-0.12v18.9h-3.31v-24.37h4.31l8.91,18.93h0.12v-18.93h3.32v24.37H116.06z"/>
		<path class="st0" d="M142.59,449.24c0,3.95-0.93,6.96-2.8,9.04c-1.87,2.08-4.47,3.11-7.83,3.11h-6.47v-24.37H132
			c3.36,0,5.96,1.04,7.81,3.13C141.66,442.24,142.59,445.27,142.59,449.24z M138.99,449.24c0-1.61-0.18-3.01-0.54-4.2
			c-0.36-1.19-0.85-2.18-1.47-2.96c-0.62-0.78-1.37-1.36-2.23-1.76c-0.86-0.39-1.78-0.59-2.77-0.59h-2.9v18.94h2.9
			c0.98,0,1.9-0.2,2.77-0.59c0.86-0.39,1.6-0.97,2.23-1.76c0.62-0.78,1.11-1.76,1.47-2.94
			C138.81,452.21,138.99,450.82,138.99,449.24z"/>
		<path class="st0" d="M153.17,461.39v-24.37h3.59v24.37H153.17z"/>
		<path class="st0" d="M174.46,461.39l-9.03-18.9h-0.12v18.9H162v-24.37h4.31l8.91,18.93h0.12v-18.93h3.32v24.37H174.46z"/>
		<path class="st0" d="M196.67,454.92c0,1.1-0.2,2.09-0.6,2.98c-0.4,0.88-0.94,1.62-1.62,2.22c-0.68,0.6-1.49,1.06-2.42,1.38
			c-0.93,0.32-1.93,0.48-2.99,0.48c-1.44,0-2.8-0.26-4.09-0.78c-1.29-0.52-2.32-1.2-3.1-2.05l2.12-2.24
			c0.61,0.69,1.38,1.23,2.3,1.62c0.92,0.39,1.84,0.59,2.78,0.59c1.2,0,2.18-0.34,2.95-1.03s1.16-1.69,1.16-2.99
			c0-0.62-0.12-1.16-0.36-1.64c-0.24-0.47-0.57-0.9-1-1.27c-0.43-0.38-0.91-0.72-1.46-1.03c-0.55-0.31-1.14-0.6-1.78-0.88
			c-0.77-0.32-1.5-0.68-2.18-1.08c-0.68-0.4-1.28-0.87-1.82-1.39c-0.53-0.53-0.95-1.15-1.26-1.88c-0.31-0.72-0.46-1.58-0.46-2.56
			c0-1.17,0.21-2.19,0.64-3.06c0.42-0.87,0.99-1.59,1.7-2.17c0.71-0.57,1.51-1,2.42-1.27c0.91-0.28,1.83-0.41,2.76-0.41
			c1.36,0,2.58,0.2,3.66,0.59c1.08,0.39,1.98,0.97,2.7,1.76l-2.16,2.2c-1.01-1.15-2.37-1.72-4.07-1.72c-0.51,0-1,0.08-1.5,0.23
			c-0.49,0.15-0.94,0.39-1.34,0.72c-0.4,0.33-0.72,0.75-0.96,1.26c-0.24,0.5-0.36,1.11-0.36,1.82c0,0.62,0.11,1.15,0.34,1.6
			c0.23,0.45,0.53,0.85,0.92,1.2s0.83,0.68,1.34,0.96c0.51,0.29,1.05,0.56,1.64,0.81c0.75,0.32,1.48,0.68,2.2,1.08
			c0.72,0.4,1.37,0.88,1.96,1.43c0.59,0.55,1.06,1.2,1.42,1.95C196.49,453.07,196.67,453.93,196.67,454.92z"/>
		<path class="st0" d="M216.44,456.5c-0.29,1.08-0.77,2.03-1.44,2.84c-0.67,0.82-1.54,1.46-2.62,1.93c-1.08,0.47-2.4,0.71-3.97,0.71
			s-2.88-0.24-3.93-0.71c-1.05-0.47-1.91-1.11-2.58-1.93c-0.67-0.81-1.14-1.76-1.42-2.84c-0.28-1.08-0.42-2.24-0.42-3.48v-16.01
			h3.59v15.7c0,0.83,0.07,1.62,0.22,2.39s0.4,1.45,0.76,2.05c0.36,0.6,0.85,1.07,1.48,1.43c0.63,0.36,1.42,0.53,2.38,0.53
			c0.96,0,1.74-0.18,2.36-0.53c0.61-0.36,1.1-0.83,1.46-1.43c0.36-0.6,0.61-1.28,0.76-2.05c0.15-0.77,0.22-1.57,0.22-2.39v-15.7h3.6
			v16.01C216.88,454.27,216.74,455.43,216.44,456.5z"/>
		<path class="st0" d="M233.3,461.39l-4.79-10.88h-3.28v10.88h-3.51v-24.37h7.33c1.04,0,2.02,0.12,2.94,0.36
			c0.92,0.24,1.73,0.63,2.42,1.15c0.7,0.53,1.24,1.22,1.64,2.07c0.4,0.85,0.6,1.87,0.6,3.06c0,0.98-0.15,1.85-0.45,2.58
			c-0.3,0.74-0.68,1.36-1.15,1.88c-0.47,0.52-0.99,0.92-1.55,1.22c-0.56,0.3-1.11,0.49-1.64,0.59l5.31,11.46H233.3z M233.06,443.78
			c0-0.83-0.13-1.51-0.4-2.04c-0.27-0.53-0.61-0.96-1.04-1.28c-0.43-0.32-0.92-0.55-1.48-0.68c-0.56-0.13-1.12-0.19-1.68-0.19h-3.24
			v8.5h3.32c1.36,0,2.45-0.37,3.28-1.12C232.65,446.23,233.06,445.16,233.06,443.78z"/>
		<path class="st0" d="M252.63,461.39l-1.6-5.71h-8.19l-1.64,5.71h-3.64l7.11-24.37h4.75l6.95,24.37H252.63z M247.08,439.91h-0.16
			l-3.6,13.32h7.23L247.08,439.91z"/>
		<path class="st0" d="M271.29,461.39l-9.03-18.9h-0.12v18.9h-3.31v-24.37h4.31l8.91,18.93h0.12v-18.93h3.32v24.37H271.29z"/>
		<path class="st0" d="M293.58,461.1c-1.12,0.59-2.48,0.88-4.07,0.88c-1.57,0-2.98-0.32-4.23-0.96c-1.25-0.64-2.3-1.54-3.16-2.69
			c-0.85-1.15-1.51-2.5-1.96-4.04c-0.45-1.55-0.68-3.24-0.68-5.08c0-1.83,0.23-3.53,0.7-5.09c0.46-1.56,1.13-2.91,2-4.04
			c0.87-1.14,1.92-2.03,3.16-2.67c1.24-0.64,2.63-0.96,4.17-0.96c1.44,0,2.76,0.24,3.95,0.72c1.2,0.48,2.18,1.22,2.96,2.21
			l-2.24,2.1c-0.59-0.74-1.26-1.28-2.04-1.64s-1.6-0.53-2.48-0.53c-1.09,0-2.04,0.26-2.84,0.79c-0.8,0.53-1.46,1.24-1.98,2.13
			c-0.52,0.9-0.91,1.95-1.18,3.15c-0.27,1.2-0.4,2.49-0.4,3.84c0,1.36,0.13,2.63,0.4,3.82s0.67,2.24,1.2,3.15
			c0.53,0.91,1.2,1.62,2.02,2.15c0.81,0.53,1.76,0.79,2.86,0.79c0.98,0,1.86-0.23,2.62-0.69c0.76-0.46,1.36-1.02,1.82-1.69
			l2.16,2.03C295.61,459.74,294.69,460.51,293.58,461.1z"/>
		<path class="st0" d="M299.13,461.39v-24.37h11.9v2.76h-8.43v7.68h7.87v2.58h-7.87v8.57h8.83v2.79H299.13z"/>
		<path class="st0" d="M333.28,461.39l-1.6-5.71h-8.19l-1.64,5.71h-3.64l7.11-24.37h4.75l6.95,24.37H333.28z M327.73,439.91h-0.16
			l-3.6,13.32h7.23L327.73,439.91z"/>
		<path class="st0" d="M347.98,436.43c1.52,0,2.86,0.24,4.03,0.72c1.17,0.48,2.14,1.22,2.92,2.21l-2.24,2.1
			c-0.59-0.74-1.26-1.29-2.04-1.65s-1.61-0.55-2.52-0.55c-1.09,0-2.03,0.27-2.82,0.79c-0.79,0.53-1.45,1.25-1.98,2.15
			c-0.53,0.91-0.93,1.96-1.18,3.17c-0.25,1.2-0.38,2.47-0.38,3.8c0,1.4,0.14,2.7,0.42,3.91c0.28,1.21,0.69,2.25,1.24,3.13
			c0.55,0.89,1.23,1.58,2.06,2.08c0.83,0.51,1.8,0.76,2.92,0.76c1.49,0,2.62-0.27,3.39-0.83v-7.54h-3.72V448h7.19v11.88
			c-0.83,0.6-1.79,1.07-2.9,1.43s-2.46,0.53-4.05,0.53c-1.62,0-3.07-0.3-4.35-0.91c-1.28-0.61-2.36-1.46-3.26-2.56
			c-0.89-1.1-1.57-2.43-2.04-4c-0.47-1.56-0.7-3.29-0.7-5.2c0-1.84,0.23-3.53,0.68-5.08c0.45-1.55,1.1-2.89,1.96-4.03
			c0.85-1.14,1.9-2.03,3.14-2.67C345,436.76,346.41,436.43,347.98,436.43z"/>
		<path class="st0" d="M359.84,461.39v-24.37h11.9v2.76h-8.43v7.68h7.87v2.58h-7.87v8.57h8.83v2.79H359.84z"/>
		<path class="st0" d="M388.32,461.39l-9.03-18.9h-0.12v18.9h-3.31v-24.37h4.31l8.91,18.93h0.12v-18.93h3.32v24.37H388.32z"/>
		<path class="st0" d="M410.61,461.1c-1.12,0.59-2.48,0.88-4.07,0.88c-1.57,0-2.98-0.32-4.23-0.96c-1.25-0.64-2.3-1.54-3.16-2.69
			c-0.85-1.15-1.51-2.5-1.96-4.04c-0.45-1.55-0.68-3.24-0.68-5.08c0-1.83,0.23-3.53,0.7-5.09c0.46-1.56,1.13-2.91,2-4.04
			c0.87-1.14,1.92-2.03,3.16-2.67c1.24-0.64,2.63-0.96,4.17-0.96c1.44,0,2.76,0.24,3.95,0.72c1.2,0.48,2.18,1.22,2.96,2.21
			l-2.24,2.1c-0.59-0.74-1.26-1.28-2.04-1.64s-1.6-0.53-2.48-0.53c-1.09,0-2.04,0.26-2.84,0.79s-1.46,1.24-1.98,2.13
			c-0.52,0.9-0.91,1.95-1.18,3.15c-0.27,1.2-0.4,2.49-0.4,3.84c0,1.36,0.13,2.63,0.4,3.82s0.67,2.24,1.2,3.15
			c0.53,0.91,1.2,1.62,2.02,2.15c0.81,0.53,1.76,0.79,2.86,0.79c0.98,0,1.86-0.23,2.62-0.69c0.76-0.46,1.36-1.02,1.82-1.69
			l2.16,2.03C412.65,459.74,411.73,460.51,410.61,461.1z"/>
		<path class="st0" d="M423.31,451.65v9.74h-3.6v-9.74l-7.03-14.63h3.91l4.93,11.46l5.05-11.46h3.84L423.31,451.65z"/>
	</g>
</g>
</svg>
