<?xml version="1.0" encoding="utf-8"?>
<!-- Generator: Adobe Illustrator 24.0.1, SVG Export Plug-In . SVG Version: 6.00 Build 0)  -->
<svg version="1.1" id="Layer_1" xmlns="http://www.w3.org/2000/svg" xmlns:xlink="http://www.w3.org/1999/xlink" x="0px" y="0px"
	 viewBox="0 0 199.38 50.24" style="enable-background:new 0 0 199.38 50.24;" xml:space="preserve">
<style type="text/css">
	.st0{fill:#FFFFFF;}
</style>
<path class="st0" d="M40.81,23.43c-0.19-0.12-0.38-0.17-0.61-0.17c-0.23,0-0.43,0.05-0.61,0.17c-0.18,0.11-0.33,0.26-0.44,0.47
	c-0.11,0.2-0.16,0.42-0.16,0.68v0.47h2.43v-0.47c0-0.24-0.05-0.46-0.17-0.66C41.15,23.7,41,23.55,40.81,23.43z M21.3,23.47
	c-0.19-0.11-0.39-0.16-0.61-0.16c-0.57,0-0.86,0.08-1,0.14c-0.07,0.03-0.13,0.06-0.18,0.08v4.53c0.17,0.06,0.34,0.11,0.5,0.15
	c0.19,0.05,0.42,0.07,0.68,0.07c0.23,0,0.43-0.05,0.61-0.17c0.19-0.11,0.33-0.26,0.44-0.46c0.11-0.2,0.16-0.41,0.16-0.66v-2.41
	c0-0.25-0.05-0.46-0.16-0.66C21.62,23.73,21.48,23.58,21.3,23.47z M27.1,23.43c-0.19-0.12-0.38-0.17-0.61-0.17
	c-0.23,0-0.43,0.05-0.61,0.17c-0.18,0.11-0.33,0.26-0.44,0.47c-0.11,0.2-0.16,0.42-0.16,0.68v0.47h2.43v-0.47
	c0-0.24-0.05-0.46-0.17-0.66C27.43,23.7,27.29,23.55,27.1,23.43z M25.12,0C11.25,0,0,11.25,0,25.12s11.25,25.12,25.12,25.12
	S50.24,39,50.24,25.12S39,0,25.12,0z M7.32,28.44c0,0.2-0.03,0.35-0.1,0.46c-0.07,0.13-0.2,0.24-0.4,0.33
	c-0.26,0.12-0.56,0.22-0.91,0.3c-0.35,0.08-0.73,0.12-1.11,0.12c-0.47,0-0.88-0.1-1.23-0.29c-0.36-0.2-0.65-0.49-0.84-0.87
	c-0.19-0.36-0.29-0.79-0.29-1.27v-0.02c0-0.77,0.22-1.37,0.65-1.79C3.5,25,4.08,24.8,4.8,24.8c0.42,0,0.83,0.05,1.21,0.15v-0.36
	c0-0.43-0.1-0.76-0.28-0.97c-0.18-0.2-0.43-0.3-0.77-0.3c-0.3,0-0.59,0.06-0.88,0.18l-0.98-0.98c0.05-0.06,0.12-0.11,0.19-0.15l0,0
	l0,0c0.54-0.27,1.11-0.41,1.69-0.41c0.72,0,1.3,0.24,1.72,0.73c0.4,0.47,0.61,1.1,0.61,1.89V28.44z M16.78,29.55h-1.3v-5
	c0-0.25-0.05-0.47-0.15-0.66c-0.1-0.19-0.22-0.33-0.39-0.43c-0.16-0.1-0.33-0.15-0.53-0.15c-0.22,0-0.45,0.06-0.68,0.18
	c-0.17,0.09-0.32,0.18-0.44,0.27c0.05,0.23,0.08,0.47,0.08,0.72v5.07h-1.3v-5.06c0-0.25-0.05-0.46-0.14-0.64
	c-0.09-0.17-0.22-0.3-0.38-0.4c-0.16-0.1-0.34-0.14-0.55-0.14c-0.31,0-0.66,0.07-1.05,0.21v6.03h-1.3v-6.5
	c0-0.31,0.16-0.55,0.43-0.66c0.3-0.12,0.61-0.23,0.92-0.31c0.33-0.09,0.68-0.14,1.04-0.14c0.37,0,0.71,0.08,1.03,0.24
	c0.2,0.1,0.39,0.23,0.55,0.39c0.21-0.14,0.44-0.26,0.68-0.37c0.39-0.17,0.77-0.26,1.15-0.26c0.44,0,0.84,0.11,1.19,0.34
	c0.35,0.22,0.63,0.53,0.83,0.92c0.2,0.38,0.3,0.82,0.3,1.3V29.55z M23.19,26.98c0,0.49-0.11,0.94-0.33,1.35
	c-0.22,0.41-0.52,0.73-0.91,0.96c-0.38,0.24-0.81,0.35-1.27,0.35c-0.38,0-0.72-0.04-1.02-0.11c-0.29-0.07-0.6-0.16-0.93-0.29
	c-0.18-0.06-0.31-0.15-0.4-0.27c-0.09-0.12-0.14-0.29-0.14-0.48V20h1.3v2.11c0.07-0.02,0.14-0.04,0.21-0.06
	c0.28-0.08,0.63-0.11,1.03-0.11c0.47,0,0.89,0.12,1.27,0.36c0.37,0.24,0.67,0.56,0.88,0.97c0.21,0.4,0.31,0.84,0.31,1.31V26.98z
	 M28.99,25.66c0,0,0,0.01,0,0.01v0.65h-1.28l0,0h-2.43v0.65c0,0.25,0.05,0.47,0.16,0.67c0.11,0.2,0.25,0.36,0.44,0.48
	c0.18,0.12,0.38,0.17,0.6,0.17c0.16,0,0.31-0.02,0.44-0.06c0.17-0.05,0.27-0.09,0.31-0.12c0.09-0.05,0.21-0.12,0.36-0.22l0.01,0
	l0.9,0.9c-0.04,0.07-0.1,0.14-0.17,0.2l-0.01,0l-0.01,0c-0.6,0.42-1.21,0.63-1.83,0.63c-0.46,0-0.89-0.12-1.28-0.36
	c-0.38-0.24-0.68-0.56-0.89-0.96c-0.21-0.4-0.32-0.84-0.32-1.3v-2.44c0-0.48,0.11-0.92,0.32-1.32c0.21-0.4,0.51-0.73,0.89-0.96
	c0.38-0.24,0.81-0.36,1.28-0.36c0.47,0,0.9,0.13,1.28,0.37c0.38,0.24,0.68,0.57,0.9,0.98c0.21,0.4,0.32,0.85,0.32,1.32V25.66z
	 M32.37,29.75c-0.1,0-0.2,0-0.29,0c-1.06-0.05-1.61-0.51-1.89-0.96c-0.27-0.43-0.29-0.84-0.29-0.84l0,0
	c-0.03-0.17-0.05-0.36-0.05-0.57v-6.94c0-0.01,0-0.03,0-0.04h1.29c0,0.01,0,0.03,0,0.04v1.62h1.03v1.36h-1.03v3.91
	c0,0.22,0.02,0.39,0.05,0.52c0,0.01,0,0.02,0.01,0.03c0,0,0,0.01,0,0.01c0.02,0.08,0.05,0.14,0.08,0.19
	c0.13,0.26,0.41,0.58,0.98,0.71c0.07,0.02,0.14,0.03,0.22,0.04L32.37,29.75z M36.45,29.75c-0.1,0-0.2,0-0.29,0
	c-1.06-0.05-1.61-0.51-1.89-0.96c-0.13-0.23-0.24-0.5-0.29-0.84c-0.03-0.17-0.05-0.36-0.05-0.57v-6.98h1.3v1.66h1.03v1.36h-1.03
	v3.91c0,0.22,0.02,0.39,0.05,0.52c0,0.01,0,0.02,0.01,0.03c0,0,0,0.01,0,0.01c0.02,0.08,0.05,0.14,0.08,0.19
	c0.13,0.26,0.41,0.58,0.98,0.71c0.07,0.02,0.14,0.03,0.22,0.04L36.45,29.75z M42.71,25.66c0,0,0,0.01,0,0.01v0.65h-1.28l0,0H39v0.65
	c0,0.25,0.05,0.47,0.16,0.67c0.11,0.2,0.25,0.36,0.44,0.48c0.18,0.12,0.38,0.17,0.6,0.17c0.16,0,0.31-0.02,0.44-0.06
	c0.17-0.05,0.27-0.09,0.31-0.12c0.09-0.05,0.21-0.12,0.36-0.22l0.01,0l0.9,0.9c-0.04,0.07-0.1,0.14-0.17,0.2l-0.01,0l-0.01,0
	c-0.6,0.42-1.21,0.63-1.83,0.63c-0.46,0-0.89-0.12-1.28-0.36c-0.38-0.24-0.68-0.56-0.89-0.96c-0.21-0.4-0.32-0.84-0.32-1.3v-2.44
	c0-0.48,0.11-0.92,0.32-1.32c0.21-0.4,0.51-0.73,0.89-0.96c0.38-0.24,0.81-0.36,1.28-0.36c0.47,0,0.9,0.13,1.28,0.37
	c0.38,0.24,0.68,0.57,0.9,0.98c0.21,0.4,0.32,0.85,0.32,1.32V25.66z M44.9,23.68v5.97h-1.3v-5.63c0-0.93,0.66-1.74,1.58-1.92
	c0.67-0.13,1.3-0.05,1.3-0.05v1.12C44.73,22.88,44.9,23.68,44.9,23.68z M46.74,29.75c-0.43,0-0.78-0.35-0.78-0.78
	s0.35-0.78,0.78-0.78c0.43,0,0.78,0.35,0.78,0.78S47.17,29.75,46.74,29.75z M4.87,26.08c-0.39,0-0.68,0.09-0.87,0.27
	c-0.18,0.17-0.27,0.43-0.27,0.82c0,0.39,0.09,0.68,0.29,0.88c0.19,0.2,0.46,0.3,0.83,0.3c0.39,0,0.79-0.07,1.17-0.22v-1.88
	c-0.12-0.04-0.26-0.07-0.4-0.1C5.38,26.11,5.13,26.08,4.87,26.08z"/>
<g>
	<g>
		<path class="st0" d="M119.59,16.82c-1.18-0.75-2.52-1.13-3.97-1.13c-1.24,0-2.32,0.12-3.21,0.36c-0.22,0.06-0.43,0.12-0.64,0.18
			V9.64h-4.07v26.57c0,0.61,0.15,1.11,0.44,1.5c0.28,0.37,0.68,0.65,1.24,0.86c1.04,0.38,2.02,0.68,2.92,0.89
			c0.95,0.23,2.02,0.34,3.2,0.34c1.44,0,2.77-0.37,3.97-1.11c1.19-0.73,2.15-1.75,2.83-3.01c0.68-1.26,1.03-2.68,1.03-4.21v-7.53
			c0-1.47-0.33-2.85-0.98-4.09C121.68,18.58,120.76,17.56,119.59,16.82z M119.26,31.51c0,0.77-0.17,1.45-0.51,2.07
			c-0.34,0.61-0.79,1.09-1.37,1.44c-0.58,0.35-1.2,0.52-1.91,0.52c-0.81,0-1.52-0.08-2.12-0.23c-0.52-0.13-1.05-0.29-1.58-0.48
			V20.66c0.16-0.07,0.34-0.15,0.56-0.25c0.44-0.2,1.34-0.43,3.14-0.43c0.71,0,1.34,0.17,1.92,0.51c0.58,0.35,1.03,0.81,1.37,1.43
			c0.34,0.62,0.51,1.29,0.51,2.07V31.51z"/>
	</g>
	<g>
		<path class="st0" d="M66.42,15.69c-1.8,0-3.58,0.43-5.27,1.29l-0.02,0.01L61.12,17c-0.23,0.13-0.43,0.29-0.6,0.47l3.05,3.05
			c0.9-0.36,1.82-0.55,2.75-0.55c1.05,0,1.83,0.31,2.4,0.95c0.59,0.66,0.89,1.69,0.89,3.04v1.14c-1.2-0.31-2.47-0.47-3.8-0.47
			c-2.26,0-4.07,0.64-5.4,1.91c-1.34,1.29-2.02,3.17-2.02,5.59v0.07c0,1.51,0.3,2.85,0.89,3.99c0.61,1.17,1.5,2.08,2.63,2.71
			c1.1,0.61,2.4,0.92,3.86,0.92c1.21,0,2.38-0.12,3.48-0.37c1.09-0.24,2.05-0.56,2.86-0.95c0.63-0.27,1.03-0.6,1.27-1.02
			c0.2-0.37,0.3-0.83,0.3-1.45V23.87c0-2.46-0.64-4.45-1.9-5.91C70.49,16.45,68.68,15.69,66.42,15.69z M69.61,35.04
			c-1.2,0.46-2.43,0.69-3.66,0.69c-1.15,0-2-0.31-2.6-0.93c-0.61-0.64-0.9-1.55-0.9-2.77c0-1.21,0.28-2.04,0.85-2.56
			c0.6-0.55,1.52-0.83,2.73-0.83c0.79,0,1.58,0.07,2.33,0.22c0.45,0.09,0.86,0.19,1.25,0.31V35.04z"/>
		<path class="st0" d="M102.34,19.63c-0.62-1.22-1.5-2.2-2.6-2.89c-1.11-0.7-2.36-1.05-3.72-1.05c-1.16,0-2.37,0.27-3.58,0.82
			c-0.77,0.34-1.49,0.73-2.14,1.16c-0.5-0.49-1.08-0.9-1.71-1.22c-0.99-0.5-2.07-0.75-3.21-0.75c-1.13,0-2.22,0.14-3.25,0.43
			c-0.97,0.27-1.94,0.6-2.87,0.98c-0.85,0.35-1.34,1.11-1.34,2.08v20.32h4.05V20.65c1.21-0.43,2.3-0.65,3.27-0.65
			c0.64,0,1.2,0.14,1.71,0.44c0.5,0.29,0.88,0.7,1.17,1.24c0.3,0.56,0.45,1.22,0.45,2v15.82h4.07V23.65c0-0.78-0.09-1.53-0.26-2.25
			c0.39-0.29,0.85-0.58,1.38-0.84c0.73-0.37,1.45-0.56,2.13-0.56c0.61,0,1.15,0.15,1.66,0.47c0.51,0.32,0.91,0.76,1.21,1.34
			c0.31,0.59,0.46,1.27,0.46,2.05v15.64h4.05v-15.8C103.26,22.2,102.95,20.83,102.34,19.63z"/>
	</g>
	<path class="st0" d="M141.46,24.04c0-1.47-0.34-2.86-1.01-4.12c-0.68-1.27-1.62-2.3-2.8-3.06c-1.2-0.77-2.55-1.17-4.01-1.17
		c-1.47,0-2.81,0.38-4,1.13c-1.18,0.74-2.11,1.76-2.78,3.02c-0.67,1.25-1,2.64-1,4.13v7.64c0,1.46,0.34,2.83,1.01,4.07
		c0.67,1.25,1.61,2.26,2.79,3c1.2,0.75,2.54,1.12,3.99,1.12c1.94,0,3.87-0.66,5.73-1.97l0.02-0.01l0.02-0.02
		c0.22-0.17,0.4-0.39,0.53-0.62l-2.83-2.83l-0.02,0.01c-0.46,0.3-0.84,0.52-1.11,0.68c-0.15,0.08-0.44,0.22-0.98,0.38
		c-0.41,0.12-0.87,0.18-1.36,0.18c-0.7,0-1.32-0.18-1.89-0.55c-0.59-0.38-1.04-0.88-1.38-1.52c-0.34-0.64-0.51-1.33-0.51-2.1v-2.03
		h7.6l0,0h4.01v-2.04c0-0.01,0-0.02,0-0.04V24.04z M137.44,25.4h-7.59v-1.48c0-0.79,0.17-1.49,0.51-2.12
		c0.34-0.63,0.79-1.1,1.36-1.46c0.57-0.35,1.19-0.52,1.9-0.52c0.69,0,1.31,0.18,1.89,0.54c0.59,0.37,1.05,0.86,1.4,1.49
		c0.35,0.63,0.52,1.31,0.52,2.07V25.4z"/>
	<path class="st0" d="M184.33,24.04c0-1.47-0.34-2.86-1.01-4.12c-0.68-1.27-1.62-2.3-2.8-3.06c-1.2-0.77-2.55-1.17-4.01-1.17
		c-1.47,0-2.81,0.38-4,1.13c-1.18,0.74-2.11,1.76-2.78,3.02c-0.67,1.25-1,2.64-1,4.13v7.64c0,1.46,0.34,2.83,1.01,4.07
		c0.67,1.25,1.61,2.26,2.79,3c1.2,0.75,2.54,1.12,3.99,1.12c1.94,0,3.87-0.66,5.73-1.97l0.02-0.01l0.02-0.02
		c0.22-0.17,0.4-0.39,0.53-0.62l-2.83-2.83l-0.02,0.01c-0.46,0.3-0.84,0.52-1.11,0.68c-0.15,0.08-0.44,0.22-0.98,0.38
		c-0.41,0.12-0.87,0.18-1.36,0.18c-0.7,0-1.32-0.18-1.89-0.55c-0.59-0.38-1.04-0.88-1.38-1.52c-0.34-0.64-0.51-1.33-0.51-2.1v-2.03
		h7.6l0,0h4.01v-2.04c0-0.01,0-0.02,0-0.04V24.04z M180.32,25.4h-7.59v-1.48c0-0.79,0.17-1.49,0.51-2.12
		c0.34-0.63,0.79-1.1,1.36-1.46c0.57-0.35,1.19-0.52,1.9-0.52c0.69,0,1.31,0.18,1.89,0.54c0.59,0.37,1.05,0.86,1.4,1.49
		c0.35,0.63,0.52,1.31,0.52,2.07V25.4z"/>
	<g>
		<path class="st0" d="M148.36,34.21c0,0.01,0.01,0.03,0.01,0.04C148.36,34.24,148.36,34.23,148.36,34.21z"/>
		<path class="st0" d="M148.33,34.13c0.01,0.03,0.01,0.05,0.02,0.08C148.35,34.19,148.34,34.16,148.33,34.13z"/>
		<path class="st0" d="M148.37,34.26c0.07,0.26,0.16,0.45,0.24,0.6C148.51,34.64,148.43,34.44,148.37,34.26z"/>
		<path class="st0" d="M144.25,34.48c0,0,0.08,1.28,0.92,2.62c-0.42-0.7-0.74-1.57-0.91-2.62L144.25,34.48z"/>
		<path class="st0" d="M144.11,20.28V32.7c0,0.65,0.06,1.24,0.15,1.78c0.17,1.05,0.49,1.91,0.91,2.62c0.88,1.39,2.59,2.85,5.92,3
			c0.29,0.01,0.59,0.02,0.91,0.01l0.37-2.92c-0.24-0.03-0.46-0.07-0.67-0.12c-1.79-0.41-2.66-1.38-3.08-2.21
			c-0.09-0.14-0.17-0.34-0.24-0.6c0-0.01-0.01-0.03-0.01-0.04c-0.01-0.03-0.01-0.05-0.02-0.08c-0.1-0.39-0.17-0.91-0.17-1.61V20.28
			h3.22v-4.24h-3.22v-5.06c0-0.04-0.01-0.08-0.01-0.12h-4.03c0,0.04-0.01,0.08-0.01,0.12v5.06"/>
		<path class="st0" d="M156.87,20.28V32.7c0,0.65,0.06,1.24,0.15,1.78c0.17,1.05,0.49,1.91,0.91,2.62c0.88,1.39,2.59,2.85,5.92,3
			c0.29,0.01,0.59,0.02,0.91,0.01l0.37-2.92c-0.24-0.03-0.46-0.07-0.67-0.12c-1.79-0.41-2.66-1.38-3.08-2.21
			c-0.09-0.14-0.17-0.34-0.24-0.6c0-0.01-0.01-0.03-0.01-0.04c-0.01-0.03-0.01-0.05-0.02-0.08c-0.1-0.39-0.17-0.91-0.17-1.61V20.28
			h3.22v-4.24h-3.22v-5.18h-4.05v5.18"/>
	</g>
	<path class="st0" d="M189.74,24.78"/>
	<g>
		<path class="st0" d="M192.04,16.19c-2.87,0.55-4.93,3.09-4.93,6.01v17.6h4.07V21.14c0,0-0.51-2.51,4.91-1.59v-3.5
			C196.09,16.05,194.15,15.79,192.04,16.19z"/>
	</g>
	<circle class="st0" cx="196.93" cy="37.66" r="2.45"/>
</g>
</svg>
