<?xml version="1.0" encoding="utf-8"?>
<!-- Generator: Adobe Illustrator 24.0.1, SVG Export Plug-In . SVG Version: 6.00 Build 0)  -->
<svg version="1.1" id="Layer_1" xmlns="http://www.w3.org/2000/svg" xmlns:xlink="http://www.w3.org/1999/xlink" x="0px" y="0px"
	 viewBox="0 0 2.39 2.39" style="enable-background:new 0 0 2.39 2.39;" xml:space="preserve">
<style type="text/css">
	.st0{fill:#C1272D;}
	.st1{fill:none;}
	.st2{fill:#FFFFFF;}
</style>
<path class="st0" d="M2.39,2.39H0V0h2.39V2.39z"/>
<path class="st1" d="M0,2.39h2.39V0H0V2.39z"/>
<path class="st2" d="M0.92,2.08c0.05,0.02,0.11,0.04,0.16,0.05C1.12,2.15,1.16,2.16,1.19,2.2c0.01,0.01,0.01,0.01,0.02,0
	c0.01-0.01,0.01-0.01,0.01-0.02c0.03-0.02,0.06-0.04,0.09-0.05c0.02-0.01,0.04-0.01,0.05-0.01C1.44,2.1,1.5,2.08,1.56,2.04
	c0.05-0.03,0.1-0.06,0.14-0.1c0.06-0.05,0.1-0.11,0.14-0.17C1.88,1.71,1.9,1.65,1.91,1.6c0.01-0.04,0.02-0.09,0.01-0.13
	c0-0.02,0-0.02,0.02-0.02c0.01,0,0.03,0,0.04,0c0.01,0,0.01,0,0.02-0.01c0-0.01,0-0.01,0-0.02C1.97,1.36,1.93,1.31,1.9,1.25
	c-0.01-0.02-0.02-0.02-0.03,0c-0.03,0.06-0.07,0.11-0.1,0.17c-0.01,0.01,0,0.02,0.01,0.02c0.02,0,0.03,0,0.05,0
	c0.01,0,0.02,0,0.02,0.02C1.84,1.53,1.82,1.6,1.78,1.66C1.75,1.7,1.72,1.74,1.68,1.77C1.62,1.82,1.54,1.84,1.46,1.84
	C1.38,1.83,1.33,1.78,1.32,1.71C1.31,1.64,1.31,1.58,1.3,1.52C1.3,1.46,1.29,1.39,1.29,1.33C1.28,1.24,1.28,1.16,1.28,1.07
	c0-0.01,0-0.01,0-0.02l0-0.16c0,0,0-0.01,0.01-0.01c0.01,0,0.02-0.01,0.02-0.02c0,0,0.01-0.01,0.01-0.01c0.02,0,0.04,0,0.06-0.01
	c0.07-0.01,0.15-0.01,0.22,0c0.01,0,0.01,0,0.01,0.01c0.04,0.04,0.1,0.02,0.12-0.03c0.01-0.03,0-0.06-0.03-0.08
	c-0.03-0.02-0.06-0.02-0.09,0C1.6,0.77,1.59,0.77,1.57,0.77c-0.01,0-0.02,0-0.03,0c-0.07,0.01-0.14,0-0.22-0.01
	c-0.01,0-0.02,0-0.02-0.01c0-0.01-0.01-0.01-0.02-0.01c-0.01,0-0.01,0-0.01-0.01c0-0.01,0-0.02,0-0.03c0-0.03,0-0.05,0-0.08
	c0-0.01,0-0.01,0.01-0.01c0.01,0,0.02-0.01,0.02-0.02c0,0,0-0.01,0.01-0.01c0.01-0.02,0.02-0.03,0-0.05c0-0.01,0-0.01,0-0.01
	c0.03-0.02,0.04-0.05,0.05-0.08c0.02-0.06,0-0.12-0.04-0.17c-0.05-0.05-0.1-0.07-0.17-0.05C1.09,0.22,1.04,0.28,1.03,0.35
	C1.01,0.41,1.03,0.47,1.08,0.51c0.01,0.01,0.01,0.01,0,0.02c-0.01,0.01-0.01,0.03,0,0.04c0.01,0.01,0.01,0.02,0.01,0.03
	c0,0.01,0.01,0.02,0.02,0.02c0.01,0,0.01,0,0.01,0.01c0,0.04,0,0.08,0,0.11c0,0.01,0,0.01-0.01,0.01c-0.01,0-0.01,0-0.02,0.01
	C1.09,0.77,1.08,0.77,1.07,0.77c-0.01,0-0.01,0-0.02,0c-0.08,0.01-0.17,0.01-0.25,0c-0.01,0-0.01,0-0.01-0.01
	C0.75,0.73,0.69,0.75,0.67,0.8C0.67,0.83,0.68,0.86,0.71,0.88C0.73,0.9,0.76,0.9,0.79,0.87c0,0,0.01-0.01,0.02-0.01
	c0.04,0,0.07-0.01,0.11,0c0.05,0,0.1,0,0.15,0.01c0.01,0,0.02,0,0.03,0.01c0,0.01,0.01,0.01,0.02,0.01c0.01,0,0.01,0,0.01,0.01
	c0,0.01,0,0.03,0,0.04c0,0.07,0,0.13,0,0.2c0,0.07,0,0.14-0.01,0.21c0,0.05,0,0.09-0.01,0.14C1.09,1.56,1.09,1.63,1.08,1.71
	C1.07,1.74,1.06,1.77,1.03,1.8C1,1.83,0.95,1.84,0.9,1.84c-0.04,0-0.08-0.01-0.12-0.03C0.76,1.8,0.73,1.78,0.71,1.76
	C0.64,1.71,0.6,1.65,0.58,1.57C0.57,1.54,0.56,1.5,0.55,1.46c0-0.02,0-0.02,0.02-0.02c0.02,0,0.03,0,0.05,0
	c0.01,0,0.02-0.01,0.01-0.02C0.62,1.4,0.61,1.38,0.59,1.36C0.57,1.32,0.55,1.29,0.52,1.25c-0.01-0.01-0.02-0.01-0.02,0
	C0.47,1.31,0.43,1.36,0.4,1.42c-0.01,0.01,0,0.02,0.01,0.02c0.02,0,0.03,0,0.05,0c0.02,0,0.02,0,0.02,0.02c0,0.02,0,0.05,0,0.07
	C0.49,1.6,0.5,1.66,0.53,1.71C0.55,1.76,0.57,1.81,0.6,1.85C0.65,1.91,0.7,1.96,0.76,2C0.81,2.03,0.86,2.06,0.92,2.08z M1.1,0.38
	c0-0.06,0.05-0.1,0.1-0.1c0.06,0,0.1,0.05,0.1,0.11c0,0.05-0.04,0.1-0.1,0.1C1.14,0.49,1.09,0.43,1.1,0.38z"/>
</svg>
