<?xml version="1.0" encoding="utf-8"?>
<!-- Generator: Adobe Illustrator 24.0.1, SVG Export Plug-In . SVG Version: 6.00 Build 0)  -->
<svg version="1.1" id="Layer_1" xmlns="http://www.w3.org/2000/svg" xmlns:xlink="http://www.w3.org/1999/xlink" x="0px" y="0px"
	 viewBox="0 0 164.58 55.98" style="enable-background:new 0 0 164.58 55.98;" xml:space="preserve">
<style type="text/css">
	.st0{fill:#FFFFFF;}
</style>
<g>
	<path class="st0" d="M98.99,11.02c0-3.14-0.1-4.72-2.32-6.11c0,0,2.42,0.12,3.98,0.12c1.66,0,5.08-0.12,5.08-0.12
		c2.67,0,9.82-0.52,12.53,5.47c1.36,3.09,1.06,7.74-0.91,10.83c-3.42,5.41-10.12,5.41-13.89,4.25l-0.45-0.17
		c-0.35-0.23-0.5-0.12-0.45,0.7v8.73c0,3.15,0.1,4.66,2.32,6.06c0,0-2.47-0.12-4.08-0.12c-1.61,0-4.13,0.12-4.13,0.12
		c2.21-1.4,2.32-2.97,2.32-6.11V11.02z M114.09,19.87c1.11-2.68,1.06-7.86-0.6-10.48c-2.21-3.43-7.8-3.14-10.32-2.85
		c-0.35,0.12-0.65,0.29-0.6,1.11v14.44c0,0.58,0.15,0.64,0.6,0.99c0.86,0.64,2.42,1.46,4.43,1.46
		C110.36,24.53,112.63,23.31,114.09,19.87"/>
	<path class="st0" d="M31.88,16.61c0,0-3.97-6.77-10.43-6.77c-2.9,0-4.93,2.29-6.39,2.78c-6.2,2.11-8.64,5.12-8.54,12.85
		c0.13,9.08,5.02,16.14,15.31,16.14c5.4,0,9.04-2.14,10.86-3.99v0.35c0,2.6-4.52,8.04-14.31,8.04C6.97,46.01,0.14,37.68,0,27.09
		c-0.15-12.02,4.88-14.75,13.71-17.01c1.96-0.51,2.78-4.24,7.36-4.73c3.97-0.42,8.9,2.25,11.07,5.2L31.88,16.61z"/>
	<path class="st0" d="M50.18,40.47c-0.5-1.89-0.44-3.16-0.88-3.16c-0.22,0-0.28,0.1-0.33,0.15c-1.44,1.94-2.6,3.52-6.46,3.52
		c-3.81,0-6.85-1.93-6.85-5.65c0-4.43,6.24-6.26,9.94-7.89c3.15-1.38,3.92-1.48,3.92-4.79c0-2.55-1.05-4.48-4.31-4.48
		c-5.25,0-3.09,4.89-6.68,4.89c-1.22,0-2.04-0.56-2.04-1.78c0-3.46,5.58-4.64,9.84-4.64c3.92,0,7.29,0.81,7.29,4.13v11.21
		c0,3.01-0.17,6.11,1.55,8.2L50.18,40.47z M44.54,38.13c3.32,0,4.97-2.75,4.97-5.66v-5.15l-2.98,1.38c-4.09,1.89-6.25,2.9-6.25,5.81
		C40.29,36.96,42.06,38.13,44.54,38.13"/>
	<path class="st0" d="M60.62,35.09c0,1.89,0,4.08-1,5.55h6.08c-0.99-1.47-0.99-3.67-0.99-5.55V24.6c0-2.24,0.33-4.02,3.09-4.02
		c1.33,0,2.43,0.15,3.48,0.15c1.38,0,1.93-0.71,1.93-1.68c0-1.22-1.11-1.94-3.04-1.94c-3.26,0-5.08,3.06-5.36,3.06
		c-0.61,0,0-2.55-0.99-2.55c-0.66,0-2.6,0.2-4.64,0.26c1.44,1.07,1.44,4.59,1.44,8.2V35.09z"/>
	<path class="st0" d="M79.19,25.49c-0.11,0.97-0.22,1.79-0.22,2.85c0,4.74,2.32,9.27,8.07,9.27c2.71,0,5.36-1.02,6.68-2.4v0.56
		c0,2.7-4.64,5.2-8.73,5.2c-7.24,0-10.66-6.01-10.66-12.18c0-6.62,3.98-12.17,11.55-12.17c5.3,0,8.45,3.21,8.45,6.52
		c0,2.34-1.82,2.34-5.25,2.34H79.19z M85.21,23.97c2.71,0,4.14,0,4.14-1.94c0-1.88-1.49-3.87-4.2-3.87c-3.48,0-4.97,3.11-5.63,5.81
		H85.21z"/>
	<path class="st0" d="M12.99,8.73c0,0-3.42-5.07-6.57-5.63C3.27,2.53,10.25,0,10.25,0S13.87,6.95,12.99,8.73"/>
	<path class="st0" d="M126.28,40.7c-0.84-1.43-0.84-3.62-0.84-5.5V5.04l-4.67,0.82c1.21,1.02,1.21,3.01,1.21,5.1V35.2
		c0,1.88,0,4.07-0.84,5.5H126.28z"/>
	<path class="st0" d="M142.49,30.21c0,3.47-0.14,8.56-4.38,8.56c-3.73,0-4.15-3.56-4.15-6.82V18.29c0-0.72-0.09-1.12-0.7-1.12
		c-0.66,0-2.52,0.4-3.78,0.61c0.98,0.71,1.02,1.73,1.02,3.46v13.45c0,4.48,2.52,6.83,5.69,6.83c3.96,0,5.78-3.11,6.11-3.11
		c0.18,0,0.23,0.41,0.23,0.81v1.78l4.38-0.3c-0.98-1.02-0.98-3.01-0.98-5.09V17.17l-4.48,0.82c0.98,0.71,1.02,1.73,1.02,3.46V30.21z
		"/>
	<path class="st0" d="M164.58,34.3c0,4.84-4.29,7.28-8.26,7.28c-1.86,0-3.45-0.41-5.17-1.12c-0.51-0.2-0.79-0.41-0.79-1.12
		c0-1.22,0.19-2.45,0.24-3.72c1.44,2.55,2.61,4.13,5.69,4.13c2.75,0,4.38-1.42,4.38-4.33c0-6.22-9.23-5.2-9.23-12.74
		c0-3.82,2.7-5.45,7.09-5.45c1.4,0,2.85,0.25,4.24,0.61c0.14,0.05,0.61,0.15,0.61,0.46c0,0.92-0.05,2.39-0.1,3.46
		c-1.82-2.5-2.75-3.01-4.9-3.01c-1.82,0-3.5,0.92-3.5,3.11C154.87,27.94,164.58,27.22,164.58,34.3"/>
	<path class="st0" d="M45.6,45c0.08-0.04,0.12-0.14,0.1-0.23c-0.03-0.09-0.1-0.15-0.2-0.14c0,0-0.8,0.03-1.31,0.03
		c-0.51,0-1.3-0.03-1.3-0.03c-0.1-0.01-0.18,0.06-0.2,0.14c-0.02,0.09,0.02,0.18,0.1,0.23c0.6,0.32,0.64,0.63,0.64,1.47v2.58v0
		h-4.89v-2.59c0-0.84,0.03-1.15,0.64-1.47c0.08-0.04,0.12-0.14,0.1-0.23c-0.02-0.09-0.1-0.15-0.2-0.14c0,0-0.83,0.03-1.36,0.03
		c-0.5,0-1.25-0.03-1.25-0.03c-0.1-0.01-0.18,0.06-0.2,0.14c-0.03,0.09,0.02,0.18,0.1,0.23c0.6,0.32,0.64,0.63,0.64,1.47v6.36
		c0,0.84-0.03,1.15-0.64,1.47c-0.08,0.04-0.12,0.14-0.1,0.23c0.02,0.09,0.1,0.15,0.2,0.15c0,0,0.79-0.03,1.28-0.03
		c0.51,0,1.33,0.03,1.33,0.03c0,0,0.01,0,0.01,0c0.11-0.01,0.2-0.09,0.2-0.2c0-0.09-0.06-0.16-0.14-0.19
		c-0.58-0.31-0.61-0.62-0.61-1.44v-3.02V49.8h4.89v3.04c0,0.83-0.03,1.13-0.64,1.45c-0.08,0.04-0.12,0.14-0.1,0.23
		c0.02,0.09,0.11,0.16,0.2,0.15c0,0,0.8-0.03,1.31-0.03c0.51,0,1.3,0.03,1.3,0.03c0,0,0.01,0,0.01,0c0.09,0,0.17-0.06,0.2-0.15
		c0.02-0.09-0.02-0.18-0.1-0.23c-0.6-0.32-0.63-0.63-0.63-1.47v-6.36C44.96,45.63,44.99,45.32,45.6,45"/>
	<path class="st0" d="M54.24,52.21c-0.08,0-0.15,0.04-0.24,0.12c-0.71,0.91-1.21,1.36-2.09,1.49c-0.16,0.03-0.88,0.06-1.59,0.06
		c-0.52,0-0.73-0.01-0.76-0.02c-0.4-0.13-0.4-0.79-0.39-1.37l0-2.65v0h2.14c0.75,0,0.84,0.16,1.11,0.63
		c0.07,0.12,0.14,0.26,0.24,0.4c0.05,0.08,0.15,0.11,0.23,0.08c0.09-0.03,0.14-0.11,0.14-0.2c0-0.01-0.05-0.67-0.05-1.22
		c0-0.54,0.05-1.25,0.05-1.25c0.01-0.1-0.06-0.18-0.15-0.21c-0.09-0.02-0.19,0.02-0.23,0.1c-0.47,0.92-0.56,0.92-1.42,0.92h-2.06
		v-3.62v-0.02c0.03,0,0.06,0,0.09,0h1.3c1.58,0,2.41,0.21,2.87,1.39c0.03,0.11,0.12,0.18,0.23,0.18c0.06,0,0.14-0.04,0.18-0.08
		c0.05-0.06,0.08-0.15,0.06-0.23l-0.14-1.9c-0.01-0.11-0.1-0.19-0.21-0.18c-0.01,0-1.47,0.05-2.38,0.05c-1.51,0-4.07-0.05-4.09-0.05
		c-0.09,0-0.18,0.06-0.2,0.15c-0.02,0.09,0.02,0.18,0.1,0.23c0.61,0.32,0.63,0.63,0.63,1.47v6.36c0,0.84-0.03,1.15-0.63,1.47
		c-0.08,0.04-0.12,0.14-0.1,0.23c0.02,0.09,0.12,0.16,0.2,0.15c0,0,1.59-0.03,2.62-0.03c1.53,0,3.93,0.03,3.93,0.03h0
		c0.09,0,0.17-0.06,0.19-0.14l0.61-1.98c0.04-0.12,0.01-0.2-0.02-0.24C54.39,52.25,54.3,52.21,54.24,52.21"/>
	<path class="st0" d="M64.8,54.3c-0.24-0.22-0.52-0.56-0.84-1.3l-3.5-8.47c-0.02-0.05-0.06-0.09-0.12-0.11
		c-0.05-0.02-0.11-0.01-0.16,0.01c-0.21,0.11-0.5,0.24-0.63,0.28c-0.06,0.02-0.1,0.06-0.12,0.11l-3.4,7.84
		c-0.53,1.21-0.77,1.48-1.12,1.62c-0.09,0.04-0.14,0.13-0.12,0.23c0.02,0.09,0.1,0.16,0.2,0.16c0,0,0.01,0,0.01,0
		c0,0,0.61-0.03,0.99-0.03c0.43,0,1.09,0.03,1.09,0.03c0.08,0,0.17-0.05,0.2-0.13c0.03-0.08,0-0.17-0.06-0.23
		c0,0-0.16-0.13-0.23-0.17c-0.48-0.37-0.43-0.49-0.23-0.99l0.76-1.72c0.05-0.11,0.07-0.14,0.06-0.14c0.01,0,0.06,0,0.09,0h3.61
		c0.07,0,0.13,0,0.17,0c0,0.01,0.01,0.01,0.01,0.02l0.76,1.79c0.3,0.71,0.38,0.88-0.22,1.2c-0.08,0.05-0.12,0.14-0.1,0.23
		c0.02,0.09,0.11,0.15,0.2,0.15c0,0,0.83-0.03,1.36-0.03c0.48,0,1.22,0.03,1.22,0.03c0.01,0,0.01,0,0.01,0c0.09,0,0.2-0.09,0.2-0.2
		C64.9,54.4,64.86,54.33,64.8,54.3 M61.1,50.42h-3.16l1.7-3.99L61.1,50.42z"/>
	<path class="st0" d="M72.63,52.21c-0.08,0-0.16,0.04-0.22,0.12c-0.71,0.91-1.21,1.36-2.08,1.49c-0.18,0.03-0.77,0.06-1.35,0.06
		c-0.42,0-0.6-0.01-0.62-0.02c-0.4-0.13-0.4-0.79-0.39-1.37v-6.02c0-0.84,0.03-1.15,0.64-1.47c0.08-0.04,0.12-0.14,0.1-0.23
		c-0.03-0.09-0.11-0.15-0.2-0.15c0,0-0.82,0.03-1.35,0.03c-0.5,0-1.27-0.03-1.27-0.03c-0.1-0.01-0.18,0.06-0.2,0.15
		c-0.02,0.09,0.02,0.18,0.1,0.23c0.6,0.32,0.64,0.63,0.64,1.47v6.36c0,0.84-0.03,1.15-0.64,1.47c-0.08,0.04-0.12,0.14-0.1,0.23
		c0.02,0.09,0.1,0.15,0.19,0.15h0c0,0,1.59-0.03,2.62-0.03c1.51,0,3.52,0.03,3.55,0.03h0c0.09,0,0.17-0.06,0.19-0.15
		c0-0.01,0.18-0.66,0.3-1.05c0.1-0.34,0.29-0.91,0.29-0.92c0.03-0.1,0.02-0.19-0.03-0.26C72.78,52.25,72.7,52.21,72.63,52.21"/>
	<path class="st0" d="M80.07,44.63L80.07,44.63c-0.03,0-2.94,0.05-4.79,0.05c-1.29,0-3.33-0.05-3.35-0.05c-0.37,0-0.48,0-0.58-0.08
		c-0.03-0.03-0.1-0.1-0.21-0.1c-0.04,0-0.16,0.01-0.23,0.16l-0.73,1.8c-0.04,0.12,0,0.21,0.03,0.24c0.04,0.05,0.12,0.09,0.19,0.09
		c0.09,0,0.17-0.04,0.22-0.1c1.02-1.05,1.21-1.11,2.23-1.11h1.54v7.3c0,0.84-0.03,1.15-0.63,1.47c-0.08,0.04-0.12,0.14-0.1,0.23
		c0.02,0.08,0.1,0.15,0.19,0.15c0,0,0,0,0.01,0c0,0,0.78-0.03,1.3-0.03c0.51,0,1.31,0.03,1.31,0.03c0,0,0.01,0,0.01,0
		c0,0,0,0,0.01,0c0.11,0,0.2-0.09,0.2-0.2c0-0.09-0.06-0.17-0.14-0.19c-0.58-0.32-0.61-0.62-0.61-1.44v-7.31v0l2.22,0
		c0.21,0,0.87,0,1.07,0.26c0,0,0.03,0.03,0.03,0.03c0.06,0.07,0.11,0.13,0.14,0.33c0.01,0.06,0.01,0.12,0.01,0.18
		c0,0.04,0,0.07-0.01,0.1c0,0.08-0.01,0.18,0.06,0.26c0.04,0.04,0.12,0.07,0.18,0.07c0.25,0,0.3-0.27,0.34-0.49l0.34-1.19
		c0.04-0.12,0.08-0.24,0-0.35C80.25,44.66,80.18,44.63,80.07,44.63"/>
	<path class="st0" d="M90.02,45c0.08-0.04,0.12-0.14,0.1-0.23c-0.02-0.09-0.1-0.15-0.2-0.14c0,0-0.8,0.03-1.32,0.03
		c-0.51,0-1.29-0.03-1.3-0.03c-0.1,0-0.18,0.06-0.2,0.14c-0.02,0.09,0.02,0.18,0.1,0.23c0.6,0.32,0.63,0.63,0.63,1.47v2.58v0h-4.89
		v-2.59c0-0.84,0.03-1.15,0.64-1.47c0.08-0.04,0.12-0.14,0.1-0.23c-0.02-0.09-0.1-0.15-0.2-0.14c0,0-0.83,0.03-1.36,0.03
		c-0.5,0-1.25-0.03-1.25-0.03c-0.09-0.01-0.18,0.06-0.2,0.14c-0.02,0.09,0.02,0.18,0.1,0.23c0.6,0.32,0.64,0.63,0.64,1.47v6.36
		c0,0.84-0.03,1.15-0.64,1.47c-0.08,0.04-0.12,0.14-0.1,0.23c0.02,0.09,0.1,0.15,0.19,0.15c0,0,0.01,0,0.01,0
		c0,0,0.78-0.03,1.28-0.03c0.51,0,1.33,0.03,1.33,0.03c0,0,0.01,0,0.01,0c0.11,0,0.21-0.09,0.21-0.2c0-0.09-0.06-0.16-0.14-0.19
		c-0.58-0.31-0.61-0.62-0.61-1.44v-3.02V49.8h4.89v3.04c0,0.83-0.03,1.13-0.63,1.45c-0.08,0.04-0.12,0.14-0.1,0.23
		c0.03,0.09,0.11,0.16,0.2,0.15c0,0,0.8-0.03,1.31-0.03c0.51,0,1.3,0.03,1.3,0.03c0.1,0.01,0.18-0.06,0.2-0.15
		c0.03-0.09-0.02-0.18-0.1-0.23c-0.61-0.32-0.64-0.63-0.64-1.47v-6.36C89.38,45.63,89.41,45.32,90.02,45"/>
	<path class="st0" d="M99.06,44.63l-0.47,0c0,0-1.09,0.03-1.62,0.03c-0.5,0-1.26-0.03-1.26-0.03c-0.1-0.01-0.18,0.06-0.2,0.14
		c-0.02,0.09,0.02,0.18,0.1,0.23c0.61,0.32,0.64,0.63,0.64,1.47v6.36c0,0.84-0.03,1.15-0.64,1.47c-0.08,0.04-0.12,0.14-0.1,0.23
		c0.03,0.09,0.11,0.16,0.2,0.15c0,0,0.8-0.03,1.31-0.03c0.51,0,1.3,0.03,1.3,0.03c0,0,0.01,0,0.01,0c0.09,0,0.17-0.06,0.19-0.15
		c0.03-0.09-0.02-0.18-0.1-0.23c-0.6-0.32-0.64-0.62-0.64-1.45v-2.31l0.04,0.01c0.3,0.08,0.8,0.17,1.42,0.17
		c0.82,0,2.33-0.18,3.24-1.39c0.66-0.87,0.79-2.21,0.31-3.12C102.02,44.79,100.29,44.63,99.06,44.63 M101.09,48.76
		c-0.39,0.78-1,1.14-1.9,1.14c-0.67,0-1.14-0.25-1.31-0.36l-0.04-0.02c-0.02-0.01-0.05-0.03-0.06-0.03h0c0,0,0-0.01,0-0.04v-3.9
		c0-0.05,0-0.07,0-0.07c0,0,0.01-0.01,0.01-0.01c0.29-0.03,0.58-0.04,0.84-0.04c0.79,0,1.82,0.13,2.28,0.73
		C101.41,46.8,101.41,48.11,101.09,48.76"/>
	<path class="st0" d="M111.02,52.21c-0.08,0-0.16,0.05-0.22,0.12c-0.71,0.91-1.21,1.36-2.09,1.49c-0.17,0.03-0.77,0.06-1.34,0.06
		c-0.42,0-0.6-0.01-0.62-0.02c-0.41-0.13-0.4-0.79-0.39-1.37l0-6.02c0-0.84,0.03-1.15,0.63-1.47c0.09-0.04,0.13-0.14,0.1-0.23
		c-0.02-0.09-0.1-0.15-0.2-0.15c0,0-0.82,0.03-1.35,0.03c-0.5,0-1.26-0.03-1.27-0.03c-0.09-0.01-0.18,0.06-0.2,0.15
		c-0.02,0.09,0.02,0.18,0.1,0.23c0.6,0.32,0.64,0.63,0.64,1.47v6.36c0,0.84-0.03,1.15-0.64,1.47c-0.08,0.04-0.12,0.14-0.1,0.23
		c0.02,0.09,0.12,0.16,0.2,0.15c0,0,1.59-0.03,2.62-0.03c1.51,0,3.52,0.03,3.54,0.03h0.01c0.09,0,0.17-0.06,0.19-0.15
		c0-0.01,0.17-0.66,0.3-1.05c0.1-0.34,0.29-0.91,0.29-0.92c0.03-0.1,0.02-0.19-0.03-0.25C111.16,52.25,111.08,52.21,111.02,52.21"/>
	<path class="st0" d="M121.27,54.3c-0.24-0.22-0.52-0.56-0.84-1.3l-3.5-8.47c-0.02-0.05-0.07-0.09-0.12-0.11
		c-0.05-0.02-0.11-0.01-0.16,0.01c-0.21,0.11-0.5,0.24-0.63,0.28c-0.06,0.02-0.1,0.06-0.12,0.11l-3.4,7.84
		c-0.53,1.21-0.77,1.48-1.12,1.62c-0.09,0.04-0.14,0.13-0.12,0.23c0.02,0.1,0.11,0.17,0.21,0.16c0,0,0.61-0.03,0.99-0.03
		c0.43,0,1.08,0.03,1.08,0.03c0,0,0.01,0,0.01,0c0.08,0,0.16-0.05,0.19-0.13c0.03-0.08,0-0.17-0.07-0.23c0,0-0.17-0.13-0.23-0.17
		c-0.48-0.37-0.43-0.49-0.23-0.99l0.76-1.72c0.05-0.11,0.07-0.14,0.06-0.14c0.01,0,0.06,0,0.09,0h3.61c0.07,0,0.13,0,0.17,0
		c0,0.01,0.01,0.01,0.01,0.02l0.75,1.79c0.3,0.71,0.38,0.88-0.22,1.2c-0.08,0.05-0.12,0.14-0.1,0.23c0.03,0.09,0.11,0.15,0.2,0.15
		c0,0,0.83-0.03,1.36-0.03c0.48,0,1.22,0.03,1.22,0.03c0.01,0,0.01,0,0.01,0c0,0,0.01,0,0.01,0c0.11,0,0.2-0.09,0.2-0.2
		C121.37,54.4,121.33,54.33,121.27,54.3 M117.58,50.42h-3.16l1.7-3.99L117.58,50.42z"/>
	<path class="st0" d="M131.97,44.63c0,0-0.69,0.03-1.12,0.03c-0.42,0-1.09-0.03-1.09-0.03c-0.1-0.01-0.18,0.06-0.2,0.14
		c-0.02,0.09,0.01,0.18,0.1,0.23c0.78,0.44,0.78,1.05,0.78,1.84v5.11c-0.11-0.13-0.23-0.28-0.38-0.46
		c-0.67-0.82-1.67-2.06-2.44-2.98c-1.13-1.37-3.29-3.79-3.31-3.81c-0.04-0.05-0.1-0.07-0.16-0.07c0,0-0.67,0.03-1.02,0.03
		c-0.45,0-1.12-0.03-1.12-0.03c-0.09,0-0.18,0.06-0.21,0.16c-0.02,0.1,0.03,0.19,0.12,0.23c0.71,0.28,1.05,0.55,1.05,0.83v6.59
		c0,0.9-0.05,1.47-0.78,1.86c-0.08,0.04-0.12,0.14-0.1,0.23c0.02,0.09,0.11,0.16,0.2,0.15c0,0,0.67-0.03,1.1-0.03
		c0.43,0,1.09,0.03,1.09,0.03c0.09,0.01,0.18-0.06,0.2-0.14c0.03-0.09-0.01-0.18-0.09-0.23c-0.77-0.44-0.77-1.08-0.77-1.82l0-5.93
		c0.5,0.59,1.74,2.03,2.58,3.04c1.62,1.96,4.11,5.21,4.14,5.24c0.04,0.05,0.1,0.08,0.16,0.08h0.39c0.11,0,0.2-0.09,0.2-0.2v-7.84
		c0-0.9,0.05-1.47,0.78-1.86c0.08-0.04,0.13-0.14,0.1-0.23C132.15,44.69,132.07,44.62,131.97,44.63"/>
	<path class="st0" d="M137.48,48.67l-0.97-0.41c-0.9-0.37-1.43-0.83-1.58-1.36c-0.09-0.3,0.01-0.84,0.3-1.17
		c0.45-0.51,1.11-0.57,1.37-0.57c0.06,0,0.12,0,0.18,0.01c1.19,0.12,1.9,0.9,2.62,2.08c0.06,0.16,0.18,0.22,0.27,0.22
		c0.06,0,0.14-0.04,0.18-0.08c0.05-0.06,0.08-0.14,0.06-0.22l-0.23-2.03c0-0.3-0.23-0.31-0.26-0.31c-0.06,0-0.12,0.02-0.16,0.04
		c-0.44,0.21-0.5,0.17-0.88,0c-0.14-0.06-0.3-0.13-0.53-0.21c-0.43-0.15-0.92-0.23-1.39-0.23c-0.82,0-1.58,0.23-2.11,0.65
		c-0.81,0.62-1.06,1.59-0.96,2.28c0.24,1.62,1.65,2.29,2.68,2.65l0.76,0.27c1.03,0.35,1.76,0.76,1.95,1.59
		c0.13,0.57-0.07,1.23-0.51,1.67c-0.51,0.5-1.3,0.67-2.24,0.49c-1.43-0.28-2.05-1.38-2.47-2.4c-0.03-0.12-0.15-0.22-0.27-0.22
		c-0.12,0-0.24,0.09-0.24,0.27l0.06,1.79c0,0.05,0.02,0.1,0.06,0.14c0.18,0.17,0.39,0.35,0.95,0.64c0.84,0.43,1.71,0.66,2.52,0.66
		c0.76,0,1.45-0.19,2.05-0.58c1.09-0.7,1.62-1.72,1.51-2.86C140.06,49.86,139.08,49.34,137.48,48.67"/>
	<path class="st0" d="M141.77,53.76c0.12,0.26,0.27,0.6,0.27,0.89c0,0.6-0.64,1.01-1.11,1.34h-0.06c0.11-0.27,0.22-0.47,0.22-0.76
		c0-0.36-0.13-0.69-0.25-1.02L141.77,53.76z"/>
	<path class="st0" d="M146.69,52.96v-4.23c0-0.48,0-1.03,0.23-1.36c0.04-0.06,0.05-0.14,0.01-0.2c-0.04-0.07-0.1-0.1-0.18-0.1h-1.59
		c-0.07,0-0.14,0.04-0.18,0.11c-0.04,0.06-0.03,0.14,0.01,0.2c0.23,0.33,0.23,0.88,0.23,1.36v4.23c0,0.48,0,1.03-0.23,1.36
		c-0.04,0.06-0.05,0.14-0.01,0.2c0.03,0.07,0.1,0.1,0.18,0.1h1.59h0.01c0.11,0,0.2-0.09,0.2-0.2c0-0.06-0.03-0.11-0.07-0.15
		C146.69,53.95,146.69,53.43,146.69,52.96"/>
	<path class="st0" d="M154.69,47.06h-1.23c-0.07,0-0.14,0.04-0.17,0.1c-0.04,0.06-0.04,0.13,0,0.2c0.13,0.23,0.26,0.56,0.26,1.34
		v3.76l-2.33-3.12c-0.18-0.25-0.46-0.66-0.73-1.07c-0.27-0.4-0.52-0.79-0.65-0.95c-0.2-0.26-0.39-0.26-0.63-0.26h-1.2
		c-0.08,0-0.16,0.05-0.18,0.12c-0.03,0.08-0.01,0.16,0.05,0.22c0.29,0.28,0.32,0.82,0.32,1.35v2.4c0,0.98,0,2.32-0.4,3.21
		c-0.03,0.06-0.02,0.13,0.01,0.19c0.04,0.06,0.1,0.09,0.17,0.09h1.36h0c0.11,0,0.21-0.09,0.21-0.2c0-0.05-0.02-0.09-0.05-0.12
		c-0.32-0.75-0.32-1.78-0.32-2.6v-2.76l4.18,5.64c0.04,0.05,0.1,0.08,0.16,0.08h0.84c0.05,0,0.11-0.02,0.14-0.06
		c0.04-0.04,0.06-0.09,0.06-0.14l0-0.05c-0.01-0.32-0.02-0.64-0.02-0.99v-4.5c0-0.67,0.11-1.17,0.33-1.58
		c0.03-0.06,0.03-0.14-0.01-0.2C154.83,47.09,154.76,47.06,154.69,47.06"/>
	<path class="st0" d="M161.87,52.8c-0.08-0.03-0.16-0.01-0.22,0.05c-0.16,0.17-0.77,0.71-1.91,0.71c-1.69,0-2.69-1.1-2.69-2.94
		c0-0.67,0.17-2.85,2.39-2.85c1.11,0,1.46,0.45,1.74,0.92c0.04,0.06,0.14,0.1,0.21,0.1c0.11,0,0.2-0.08,0.2-0.19l0.05-1.42
		c0-0.06-0.02-0.11-0.06-0.15c-0.04-0.04-0.09-0.06-0.14-0.06c-0.4,0-0.73-0.02-1.05-0.05c-0.31-0.02-0.59-0.04-0.93-0.04
		c-2.46,0-4.04,1.59-4.04,4.06c-0.01,1.14,0.38,2.16,1.09,2.87c0.66,0.66,1.55,1.01,2.58,1.01c1.93,0,2.91-1.13,2.91-1.76v-0.07
		C162,52.9,161.94,52.83,161.87,52.8"/>
	<path class="st0" d="M164.54,53.96l-0.56-0.79c-0.06-0.08-0.18-0.11-0.27-0.06l-0.94,0.55c-0.05,0.03-0.08,0.08-0.09,0.13
		c-0.01,0.05,0,0.11,0.03,0.16l0.55,0.78c0.04,0.05,0.1,0.08,0.16,0.08c0.04,0,0.07-0.01,0.1-0.03l0.94-0.54
		c0.05-0.03,0.08-0.07,0.09-0.13C164.58,54.06,164.57,54,164.54,53.96"/>
</g>
</svg>
