<?xml version="1.0" encoding="utf-8"?>
<!-- Generator: Adobe Illustrator 24.0.1, SVG Export Plug-In . SVG Version: 6.00 Build 0)  -->
<svg version="1.1" id="Layer_1" xmlns="http://www.w3.org/2000/svg" xmlns:xlink="http://www.w3.org/1999/xlink" x="0px" y="0px"
	 viewBox="0 0 152.52 49.89" style="enable-background:new 0 0 152.52 49.89;" xml:space="preserve">
<style type="text/css">
	.st0{fill:#FFFFFF;}
</style>
<g>
	<path class="st0" d="M20.45,0c-4.62,0-8.36,3.74-8.36,8.36v2.17h16.72V8.36C28.81,3.74,25.07,0,20.45,0"/>
	<path class="st0" d="M0,20.45c0,4.62,3.74,8.36,8.36,8.36h2.17V12.09H8.36C3.74,12.09,0,15.83,0,20.45"/>
	<rect x="12.09" y="12.09" class="st0" width="16.72" height="16.72"/>
	<path class="st0" d="M89.02,12.47h-2.04c-0.56,0-0.96,0.23-1.22,0.81c-0.26,0.59-3.73,9.8-3.73,9.8s-3.46-9.58-3.59-9.91
		c-0.13-0.34-0.46-0.7-1.03-0.7h-2.16c-0.85,0-1.18,0.77-0.93,1.48c0.14,0.38,5.84,13.85,5.84,13.85c0.17,0.41,0.57,0.68,1.02,0.68
		h1.56c0.45,0,0.85-0.27,1.03-0.68c0,0,5.67-12.95,6.11-13.89C90.23,13.21,89.82,12.47,89.02,12.47"/>
	<path class="st0" d="M117.74,27.02c-0.05-0.57-0.08-0.8-0.15-1.23c-0.13-0.81-0.69-1.02-1.2-0.85c-0.33,0.11-0.84,0.4-1.5,0.4
		c-0.37,0-0.82-0.08-1.09-0.47c-0.33-0.47-0.28-1.32-0.28-1.88l0.06-7.07h3.1c0.73,0,1.03-0.53,1.03-1.05c0-0.52-0.01-0.76,0-1.35
		c0-0.58-0.27-1.06-1.03-1.06h-3.07c0,0,0.03-3.23,0.03-3.73c0-0.5-0.26-1.23-1.32-0.99c-0.58,0.13-1.14,0.26-1.69,0.44
		c-0.55,0.18-1.02,0.54-1.02,1.08c0,0.54-0.03,3.2-0.03,3.2h-1.56c-0.99,0-1.06,0.63-1.07,1.07c0,0.44,0,0.57-0.01,1.27
		c-0.01,0.69,0.31,1.12,1.11,1.12h1.5l-0.06,7.04c-0.01,1.66-0.03,3.23,1.03,4.42c0.82,0.92,2.28,1.39,3.98,1.39
		c1.67,0,2.34-0.41,2.7-0.64C117.55,27.9,117.78,27.51,117.74,27.02"/>
	<path class="st0" d="M71.88,14.4c-1.56-1.65-3.4-2.32-5.51-2.32c-2.28,0-4.25,0.74-5.81,2.39c-1.42,1.5-2.24,3.65-2.26,5.93
		c-0.02,2.4,0.82,4.56,2.37,6.09c1.49,1.48,3.58,2.32,6,2.32c3.72,0,5.89-1.85,6.12-2.07c0.35-0.35,0.6-0.84,0.38-1.38
		c-0.17-0.42-0.4-0.86-0.64-1.27c-0.27-0.46-0.87-0.83-1.75-0.2c-0.36,0.26-1.78,1.49-4.03,1.49h0c-1.42,0-2.5-0.4-3.31-1.23
		c-0.64-0.66-1.05-1.45-1.22-2.36l10.5-0.01c0.54,0,1-0.38,1.11-0.91C73.85,20.71,74.43,17.1,71.88,14.4 M63.32,16.82
		c0.56-0.63,1.63-1.31,2.94-1.31c1.13,0,2.01,0.37,2.71,1.11c0.85,0.89,0.96,2.13,0.96,2.13l-7.58,0
		C62.35,18.75,62.36,17.91,63.32,16.82"/>
	<path class="st0" d="M106.84,20.41c0.04-4.68-3.48-8.38-8.42-8.38c-4.98,0-8.56,3.76-8.6,8.38c-0.04,4.79,3.6,8.35,8.45,8.35
		C103.13,28.76,106.8,25.15,106.84,20.41 M102.71,20.41c-0.02,2.7-1.8,4.89-4.41,4.89c-2.64,0-4.38-2.15-4.36-4.89
		c0.02-2.7,1.77-4.89,4.44-4.89C101.06,15.53,102.74,17.71,102.71,20.41"/>
	<path class="st0" d="M152.52,27.33c0.01-0.62-0.01-19.98,0-20.83c0.01-0.84-0.66-1.11-1.1-1c-0.3,0.07-1.77,0.42-2.16,0.54
		c-0.5,0.16-0.77,0.64-0.78,1.18c0,0.27-0.06,7.12-0.06,7.12c-1.23-1.33-2.62-2.31-4.9-2.31c-4.86,0-7.95,3.89-7.99,8.38
		c-0.04,4.46,2.96,8.35,7.85,8.35c2.18,0,3.68-0.97,5-2.3c0,0,0,0.35-0.01,1c-0.01,0.64,0.31,1.03,0.98,1.03h2.05
		C152.25,28.49,152.51,28.04,152.52,27.33 M148.51,20.41c-0.02,2.7-1.77,4.89-4.5,4.89c-2.49,0-4.38-2-4.36-4.89
		c0.02-2.7,1.8-4.92,4.44-4.92C146.76,15.5,148.53,17.71,148.51,20.41"/>
	<path class="st0" d="M131.77,14.41c-1.56-1.65-3.4-2.32-5.51-2.32c-2.28,0-4.25,0.74-5.81,2.39c-1.42,1.5-2.24,3.65-2.26,5.93
		c-0.02,2.4,0.82,4.56,2.37,6.09c1.49,1.48,3.58,2.32,6,2.32c3.72,0,5.89-1.85,6.12-2.07c0.35-0.35,0.6-0.84,0.38-1.38
		c-0.17-0.42-0.4-0.86-0.64-1.27c-0.27-0.46-0.87-0.83-1.75-0.19c-0.36,0.26-1.77,1.49-4.03,1.49c-1.42,0-2.5-0.4-3.31-1.23
		c-0.64-0.66-1.05-1.45-1.22-2.36l10.5-0.01c0.54,0,1-0.38,1.11-0.91C133.74,20.73,134.32,17.11,131.77,14.41 M123.22,16.83
		c0.56-0.63,1.63-1.31,2.94-1.31c1.13,0,2.01,0.37,2.71,1.11c0.85,0.89,0.96,2.13,0.96,2.13l-7.58,0
		C122.25,18.76,122.25,17.92,123.22,16.83"/>
	<path class="st0" d="M50.7,6.87c-1.86-1-3.97-1.39-7.55-1.39l-1.62,0h-3.09c-0.7,0-1.27,0.59-1.27,1.31v20.66
		c-0.01,0.73,0.56,1.31,1.27,1.31h5.04c1.59,0,5.31,0,8.22-1.99c2.99-2.04,4.65-5.47,4.69-9.64C56.4,15.45,56.03,9.73,50.7,6.87
		 M49.53,23.42c-1.77,1.31-4.7,1.31-5.95,1.31h-2.39V9.5l2.38,0c1.83,0,3.72,0.11,5.22,0.94c3.09,1.72,3.53,4.92,3.52,6.68
		C52.28,20.03,51.4,22.03,49.53,23.42"/>
	<polygon class="st0" points="1.55,49.69 1.55,39.56 3.63,39.56 3.63,43.64 7.85,43.64 7.85,39.56 9.92,39.56 9.92,49.69 
		7.85,49.69 7.85,45.46 3.63,45.46 3.63,49.69 	"/>
	<polygon class="st0" points="23.36,49.69 16.76,49.69 16.76,39.56 23.36,39.56 23.36,41.37 18.84,41.37 18.84,43.71 22.83,43.71 
		22.83,45.46 18.84,45.46 18.84,47.88 23.36,47.88 	"/>
	<path class="st0" d="M35.42,47.35h-3.94l-0.79,2.34h-2.18l3.68-10.12h2.61l3.68,10.12h-2.23L35.42,47.35z M32.07,45.63h2.75
		l-0.53-1.51c-0.58-1.65-0.79-2.82-0.79-2.82h-0.07c0,0-0.26,1.18-0.83,2.8L32.07,45.63z"/>
	<polygon class="st0" points="46.21,39.56 46.21,47.88 50.37,47.88 50.37,49.69 44.13,49.69 44.13,39.56 	"/>
	<polygon class="st0" points="56.99,49.69 56.99,41.37 54.17,41.37 54.17,39.56 61.92,39.56 61.92,41.37 59.07,41.37 59.07,49.69 	
		"/>
	<polygon class="st0" points="67.57,49.69 67.57,39.56 69.65,39.56 69.65,43.64 73.86,43.64 73.86,39.56 75.94,39.56 75.94,49.69 
		73.86,49.69 73.86,45.46 69.65,45.46 69.65,49.69 	"/>
	<path class="st0" d="M90.7,49.69V39.56h3.42c2.58,0,3.64,1.18,3.64,3.32c0,2.11-1.22,3.39-3.44,3.39h-1.55v3.42H90.7z M92.78,44.57
		h1.29c1.19,0,1.62-0.59,1.62-1.6c0-1.1-0.53-1.65-1.62-1.65h-1.29V44.57z"/>
	<polygon class="st0" points="105.83,39.56 105.83,47.88 109.99,47.88 109.99,49.69 103.75,49.69 103.75,39.56 	"/>
	<path class="st0" d="M121.64,47.35h-3.94l-0.79,2.34h-2.18l3.68-10.12h2.61l3.68,10.12h-2.23L121.64,47.35z M118.29,45.63h2.75
		l-0.53-1.51c-0.59-1.65-0.79-2.82-0.79-2.82h-0.07c0,0-0.26,1.18-0.82,2.8L118.29,45.63z"/>
	<path class="st0" d="M136.08,44.75c0.57,0.83,0.95,1.55,0.95,1.55h0.07c0,0-0.07-0.93-0.07-2.22v-4.52h2.08v10.12h-1.94l-3.73-5.14
		c-0.64-0.88-1.03-1.65-1.03-1.65h-0.07c0,0,0.1,0.91,0.1,2.32v4.47h-2.08V39.56h2.01L136.08,44.75z"/>
	<path class="st0" d="M146.9,46.61c0.21,1.07,0.96,1.69,1.98,1.69c0.88,0,1.5-0.38,1.5-1.15c0-0.72-0.4-1.08-1.82-1.56
		c-2.08-0.67-3.18-1.48-3.18-3.25c0-2.23,1.75-2.99,3.45-2.99c2.01,0,3.51,0.7,3.7,2.65l-2.06,0.48c-0.09-0.96-0.79-1.43-1.6-1.43
		c-0.74,0-1.32,0.38-1.32,1.12c0,0.81,0.64,1.12,1.91,1.53c1.92,0.64,3.08,1.32,3.08,3.25c0,2.13-1.72,2.96-3.8,2.96
		c-1.99,0-3.28-0.7-3.73-2.53L146.9,46.61z"/>
</g>
</svg>
