<?xml version="1.0" encoding="utf-8"?>
<!-- Generator: Adobe Illustrator 24.0.1, SVG Export Plug-In . SVG Version: 6.00 Build 0)  -->
<svg version="1.1" id="Layer_1" xmlns="http://www.w3.org/2000/svg" xmlns:xlink="http://www.w3.org/1999/xlink" x="0px" y="0px"
	 viewBox="0 0 196.04 73.51" style="enable-background:new 0 0 196.04 73.51;" xml:space="preserve">
<style type="text/css">
	.st0{fill:#0055A5;}
	.st1{fill:#EC1C25;}
</style>
<g>
	<polygon class="st0" points="29.89,32.09 47.76,32.09 47.01,37.12 36.39,37.12 35.78,41.19 44.86,41.19 44.16,45.93 35.08,45.93 
		33.65,55.48 26.4,55.48 	"/>
	<path class="st0" d="M46.26,55.48l3.48-23.38H61.8c2.23,0,3.92,0.19,5.04,0.58c1.13,0.38,1.97,1.1,2.55,2.13
		c0.57,1.04,0.74,2.3,0.52,3.79c-0.19,1.3-0.64,2.42-1.33,3.36c-0.7,0.94-1.58,1.7-2.64,2.29c-0.68,0.37-1.57,0.68-2.69,0.92
		c0.82,0.29,1.4,0.58,1.75,0.86c0.24,0.19,0.56,0.6,0.97,1.23c0.41,0.63,0.67,1.12,0.79,1.46l2.51,6.76H61.1l-2.79-7.15
		c-0.35-0.92-0.7-1.52-1.04-1.8c-0.47-0.36-1.03-0.54-1.7-0.54h-0.64l-1.42,9.49H46.26 M55.59,41.58h3.06
		c0.33,0,0.99-0.11,1.98-0.32c0.49-0.1,0.92-0.34,1.29-0.73c0.36-0.4,0.58-0.85,0.66-1.35c0.11-0.76-0.04-1.33-0.46-1.74
		c-0.42-0.4-1.29-0.61-2.62-0.61h-3.19L55.59,41.58z"/>
	<polygon class="st0" points="73.43,32.09 92.84,32.09 92.1,37.06 79.94,37.06 79.39,40.73 90.64,40.73 89.93,45.53 78.68,45.53 
		77.99,50.17 90.5,50.17 89.7,55.48 69.94,55.48 	"/>
	<polygon class="st0" points="95.4,32.09 114.82,32.09 114.08,37.06 101.91,37.06 101.37,40.73 112.62,40.73 111.9,45.53 
		100.65,45.53 99.96,50.17 112.47,50.17 111.68,55.48 91.92,55.48 	"/>
	<path class="st0" d="M117.49,32.09h10.74c2.12,0,3.79,0.29,5.01,0.86c1.22,0.58,2.17,1.4,2.86,2.47c0.69,1.08,1.12,2.33,1.29,3.75
		c0.17,1.43,0.13,2.94-0.1,4.53c-0.37,2.5-0.95,4.44-1.72,5.82c-0.77,1.38-1.74,2.53-2.88,3.46c-1.15,0.93-2.33,1.55-3.54,1.86
		c-1.65,0.43-3.12,0.64-4.4,0.64h-10.74L117.49,32.09 M123.95,37.4l-1.9,12.77h1.77c1.51,0,2.6-0.17,3.29-0.5
		c0.69-0.33,1.27-0.92,1.76-1.75c0.49-0.83,0.87-2.19,1.15-4.05c0.37-2.47,0.22-4.17-0.45-5.09c-0.67-0.91-1.94-1.37-3.81-1.37
		H123.95z"/>
	<path class="st0" d="M138.93,43.8c0.57-3.82,2.08-6.79,4.53-8.92c2.45-2.12,5.57-3.19,9.37-3.19c3.9,0,6.75,1.04,8.54,3.13
		c1.8,2.09,2.42,5.02,1.86,8.78c-0.41,2.73-1.2,4.97-2.38,6.72c-1.19,1.75-2.72,3.11-4.6,4.08c-1.89,0.97-4.13,1.46-6.73,1.46
		c-2.64,0-4.76-0.42-6.37-1.26c-1.61-0.84-2.81-2.17-3.62-3.99C138.72,48.81,138.52,46.53,138.93,43.8 M146.18,43.83
		c-0.35,2.35-0.16,4.05,0.56,5.08c0.72,1.03,1.84,1.54,3.35,1.54c1.55,0,2.82-0.51,3.82-1.51c1-1.01,1.69-2.82,2.09-5.43
		c0.33-2.2,0.12-3.8-0.62-4.82c-0.73-1.01-1.86-1.52-3.38-1.52c-1.46,0-2.7,0.52-3.74,1.54C147.23,39.75,146.53,41.45,146.18,43.83"
		/>
	<polygon class="st0" points="166.71,32.09 176.28,32.09 177.77,46.31 183.51,32.09 193.04,32.09 189.55,55.48 183.62,55.48 
		186.28,37.63 179.06,55.48 173.7,55.48 171.83,37.63 169.17,55.48 163.23,55.48 	"/>
	<path class="st1" d="M18.63,12.76c1.14-1.47,1.96-3.05,1.65-4.98c-0.23-1.44-1.11-2.64-2.09-3c0.02,0.04,1.54,3.02-3.76,8.46
		c-1.5,1.76-3.14,3.08-3.93,5.5c0.2-2.22,2.81-5.48,3.25-6.03c3.09-3.87,3.91-6.55,3.72-8.09c-0.22-1.76-1.8-2.42-3.32-2.61
		c0,0,2.85,3.04-1.9,8.17c-5.13,4.94-9.37,12.6-2.34,19.99c0,0-1.84-5.36,3.29-11.25C15,16.85,16.95,14.91,18.63,12.76 M21.44,11.02
		c0,0-1.09,3.17-6.54,8.75c-2.47,3.13-1.92,5.63-0.25,8.63c-0.29-0.7-0.64-3.03,4.02-7.83c0.46-0.48,0.87-0.93,1.24-1.37
		c-0.25,0.94-0.99,2.42-1.55,3.54c-1.92,3.85-0.77,4.21-0.27,5.27c0.15-2.98,3.92-5.3,5.28-7.45
		C25.49,17.24,24.05,13.76,21.44,11.02 M14.65,28.4c0.07,0.16,0.13,0.24,0.13,0.24C14.74,28.56,14.7,28.48,14.65,28.4"/>
	<path class="st0" d="M15.02,60.4c-0.23,0.22-0.46,0.44-0.67,0.65c-0.2,0.2-0.42,0.41-0.64,0.62c1.99,2.06,3.93,4.63,2.19,7.41
		c1.04-1.61,1.56-3.5,1.16-5.46C16.83,62.45,15.99,61.42,15.02,60.4 M7.39,41.01c-0.03,0.18-0.04,0.37-0.04,0.57
		c0.09,3.04,1.54,4.64,2.56,5.65c0.4-0.36,0.81-0.69,1.23-0.97c0.59-0.39,1.09-0.71,1.51-1c-0.78-1.04-1.71-2.66-0.98-4.26H7.39
		 M13.3,51.5c0.65,0.7,1.2,1.48,1.48,2.36c1.25,4.01-4.78,6.29-5.47,9.75c-0.39,1.97,0.12,3.85,1.16,5.46
		c-2.16-3.43,1.3-6.54,3.54-8.76c1.55-1.54,3.82-3.3,4.07-5.92c0.18-1.94-0.79-3.63-1.95-4.96C15.19,50.05,14.17,50.7,13.3,51.5
		 M3,31.99l1.03,4.5h18.22l1.04-4.5H3 M15.29,41.01c0.12,0.51,0.18,1.1,0.11,1.74c-0.26,2.35-1.18,2.67-3.53,4.24
		c-2.35,1.57-4.57,4.55-4.05,7.21c0.4,2.04,2.33,4,3.42,5.02l1.18-1.15c-0.9-0.95-2.18-2.63-1.6-4.49c0.78-2.51,3.66-4.23,5.36-5.33
		c2.55-1.66,2.88-4.55,2.88-6.12c0-0.35-0.06-0.73-0.14-1.12H15.29 M5.9,39.81h14.96l0.32-2.12H5.51L5.9,39.81 M13.06,65.1
		c-1.22,0-2.21,0.99-2.21,2.21c0,1.22,0.99,2.2,2.21,2.2c1.22,0,2.21-0.99,2.21-2.2C15.27,66.09,14.28,65.1,13.06,65.1"/>
	<polygon class="st1" points="135.72,56.95 134.03,68.34 130.5,68.34 131.17,63.71 127.36,63.71 126.7,68.34 123.13,68.34 
		124.82,56.95 128.36,56.95 127.76,60.98 131.57,60.98 132.19,56.95 	"/>
	<polygon class="st1" points="146.08,56.95 145.72,59.4 139.95,59.4 139.69,61.21 145.26,61.21 144.9,63.51 139.33,63.51 139,65.75 
		145.27,65.75 144.88,68.34 135.1,68.34 136.78,56.95 	"/>
	<path class="st1" d="M157.37,68.34h-3.45l-0.28-1.86h-3.71l-0.76,1.86h-3.79l5.67-11.39h3.75L157.37,68.34z M153.25,64.06
		l-0.63-4.15h-0.03l-1.68,4.15H153.25z"/>
	<polygon class="st1" points="167.44,65.56 167.04,68.34 157.87,68.34 159.52,56.95 163.07,56.95 161.8,65.56 	"/>
	<polygon class="st1" points="177.82,56.95 177.43,59.75 173.73,59.75 172.45,68.34 168.91,68.34 170.19,59.75 166.66,59.75 
		167.06,56.95 	"/>
	<polygon class="st1" points="189.46,56.95 187.77,68.34 184.24,68.34 184.92,63.71 181.1,63.71 180.44,68.34 176.88,68.34 
		178.56,56.95 182.1,56.95 181.5,60.98 185.31,60.98 185.94,56.95 	"/>
</g>
</svg>
