<?xml version="1.0" encoding="utf-8"?>
<!-- Generator: Adobe Illustrator 24.0.1, SVG Export Plug-In . SVG Version: 6.00 Build 0)  -->
<svg version="1.1" id="Layer_1" xmlns="http://www.w3.org/2000/svg" xmlns:xlink="http://www.w3.org/1999/xlink" x="0px" y="0px"
	 viewBox="0 0 188.55 36.62" style="enable-background:new 0 0 188.55 36.62;" xml:space="preserve">
<style type="text/css">
	.st0{fill:#FFFFFF;}
</style>
<g>
	<path class="st0" d="M188.55,33.25c0,1.85-1.43,3.32-3.24,3.32c-1.82,0-3.27-1.48-3.27-3.32c0-1.85,1.44-3.32,3.28-3.32
		C187.14,29.93,188.55,31.4,188.55,33.25 M182.72,33.25c0,1.56,1.12,2.77,2.58,2.77c1.46,0,2.59-1.19,2.59-2.77
		c0-1.55-1.12-2.76-2.57-2.76C183.86,30.49,182.72,31.7,182.72,33.25 M185.23,31.43c0.88,0,1.45,0.26,1.45,1.04
		c0,0.54-0.24,0.92-0.74,1.12l0.21,0.38c0.17,0.3,0.39,0.61,0.65,0.96c0.04,0.06-0.07,0.1-0.25,0.1h-0.21
		c-0.22,0-0.28-0.04-0.31-0.09c-0.19-0.25-0.35-0.49-0.48-0.73l-0.31-0.55h-0.47v1.28c0,0.04-0.07,0.08-0.21,0.08h-0.28
		c-0.13,0-0.22-0.04-0.22-0.08v-3.51H185.23z M184.76,33.1h0.52c0.5,0,0.7-0.24,0.7-0.57c0-0.44-0.42-0.51-0.78-0.51h-0.44V33.1z
		 M49.72,8.68c-0.52,0-1.02,0.43-1.02,1.03v20.88c-1.59,0.37-3.19,0.54-4.8,0.54c-3.6,0-4.9-1.34-4.9-5.27V9.71
		c0-0.67-0.51-1.03-0.97-1.03h-5.5v17.22c0,8.08,4.27,10.71,11.18,10.71c5.52,0,10.99-1.59,11.45-1.72V8.68H49.72z M133.71,36.3
		c0.52,0,1.02-0.43,1.02-1.03V14.21c1.59-0.36,3.19-0.54,4.8-0.54c3.6,0,4.9,1.34,4.9,5.27v16.34c0,0.67,0.51,1.03,0.97,1.03h5.5
		V18.9c0-8.08-4.27-10.71-11.18-10.71c-5.53,0-10.99,1.59-11.45,1.72v26.4H133.71z M111.78,8.22c-7.12,0-11.61,3.86-11.61,12.12
		v4.14c0,9.15,4.86,12.12,10.12,12.12c2.59,0,5.26-1.81,6.13-2.97v1.71c0,0.44,0.39,0.96,0.97,0.96h5.49V9.8
		C122.88,9.8,117.48,8.22,111.78,8.22 M116.42,29.59c-1.19,1-2.12,1.65-4.64,1.73c-3.61,0-5.16-2.2-5.16-6.91v-3.83
		c0-5.42,2-6.9,5.16-6.9c2.66,0,4.1,0.22,4.64,0.33V29.59z M167.03,8.22c-7.12,0-11.61,3.86-11.61,12.12v4.14
		c0,9.15,4.86,12.12,10.12,12.12c2.59,0,5.26-1.81,6.13-2.97v1.71c0,0.44,0.39,0.96,0.97,0.96h5.49V9.8
		C178.13,9.8,172.73,8.22,167.03,8.22 M171.68,29.59c-1.19,1-2.12,1.65-4.64,1.73c-3.61,0-5.16-2.2-5.16-6.91v-3.83
		c0-5.42,1.99-6.9,5.16-6.9c2.66,0,4.1,0.22,4.64,0.33V29.59z M0,36.3h5.79c0.43,0,0.98-0.42,0.98-0.98V20.04h10.69
		c1.78,0,3.1,1.44,3.1,2.93v12.36c0,0.52,0.45,0.98,0.96,0.98h5.8V0h-5.8c-0.49,0-0.96,0.43-0.96,0.91v13.63H9.43
		c-1.48,0-2.66-1.22-2.66-2.59V0.91C6.77,0.57,6.42,0,5.79,0H0V36.3z M85.79,8.2c-3.07,0-5.99,1.2-7.28,2.11
		c-1.98-1.49-4.69-2.11-8.04-2.11c-5.09,0-9.3,1.57-9.91,1.82v26.29h5.48c0.54,0,0.97-0.44,0.97-1.03V14.15
		c1.16-0.32,2.22-0.48,3.17-0.48c3.79,0,4.71,1.52,4.71,5.27v16.34c0,0.48,0.38,1.03,0.98,1.03h4.51c0.62,0,0.98-0.48,0.98-1.03
		V14.97c1.01-0.88,2.45-1.29,3.78-1.29c2.93,0,4.11,1.31,4.11,4.9v16.71c0,0.43,0.33,1.03,0.97,1.03h5.47V17.69
		C95.7,10.63,91.3,8.2,85.79,8.2"/>
</g>
</svg>
