<?xml version="1.0" encoding="utf-8"?>
<!-- Generator: Adobe Illustrator 24.0.1, SVG Export Plug-In . SVG Version: 6.00 Build 0)  -->
<svg version="1.1" id="Layer_1" xmlns="http://www.w3.org/2000/svg" xmlns:xlink="http://www.w3.org/1999/xlink" x="0px" y="0px"
	 viewBox="0 0 50 50" style="enable-background:new 0 0 50 50;" xml:space="preserve">
<style type="text/css">
	.st0{fill:#051A5E;}
</style>
<g>
	<path class="st0" d="M44,5.5H6c-2.21,0-4,1.79-4,4s1.79,4,4,4h38c2.21,0,4-1.79,4-4S46.21,5.5,44,5.5z"/>
	<path class="st0" d="M44,21H6c-2.21,0-4,1.79-4,4s1.79,4,4,4h38c2.21,0,4-1.79,4-4S46.21,21,44,21z"/>
	<path class="st0" d="M44,36.5H6c-2.21,0-4,1.79-4,4s1.79,4,4,4h38c2.21,0,4-1.79,4-4S46.21,36.5,44,36.5z"/>
</g>
</svg>
