<?xml version="1.0" encoding="utf-8"?>
<!-- Generator: Adobe Illustrator 24.0.1, SVG Export Plug-In . SVG Version: 6.00 Build 0)  -->
<svg version="1.1" id="Layer_1" xmlns="http://www.w3.org/2000/svg" xmlns:xlink="http://www.w3.org/1999/xlink" x="0px" y="0px"
	 viewBox="0 0 40.37 11.09" style="enable-background:new 0 0 40.37 11.09;" xml:space="preserve">
<style type="text/css">
	.st0{fill:#FFFFFF;}
</style>
<path class="st0" d="M5.27,3.87C5.39,3.86,5.46,3.83,5.5,3.79C5.53,3.75,5.55,3.65,5.55,3.5V2.25L5.5,2.2
	C5.46,2.15,5.42,2.12,5.39,2.11S5.32,2.09,5.26,2.09V2.04h0.48l1.1,1.36V2.45c0-0.16-0.02-0.26-0.07-0.3
	c-0.03-0.03-0.1-0.05-0.2-0.06V2.04h0.67v0.05C7.13,2.1,7.06,2.13,7.02,2.17S6.97,2.31,6.97,2.46v1.5H6.92L5.66,2.4v1.11
	c0,0.16,0.02,0.26,0.07,0.3c0.03,0.03,0.1,0.05,0.2,0.06v0.05H5.26V3.87H5.27z"/>
<path class="st0" d="M7.33,3.92V3.87C7.4,3.86,7.46,3.83,7.49,3.79c0.04-0.05,0.1-0.17,0.19-0.38l0.59-1.39h0.06l0.71,1.61
	c0.05,0.11,0.08,0.17,0.11,0.2c0.03,0.03,0.08,0.04,0.14,0.05v0.05H8.57V3.87C8.65,3.86,8.7,3.85,8.73,3.84
	C8.75,3.83,8.77,3.8,8.77,3.76c0-0.01,0-0.04-0.01-0.07S8.74,3.62,8.72,3.58L8.6,3.3H7.85C7.78,3.49,7.73,3.6,7.72,3.64
	C7.7,3.69,7.7,3.72,7.7,3.74c0,0.05,0.02,0.08,0.06,0.1C7.78,3.85,7.83,3.86,7.9,3.86v0.05L7.33,3.92L7.33,3.92z M8.55,3.19
	L8.22,2.41L7.9,3.19H8.55z"/>
<path class="st0" d="M9.08,2.04h1.61l0.02,0.48h-0.07c-0.03-0.15-0.08-0.25-0.13-0.3c-0.05-0.05-0.16-0.07-0.32-0.07h-0.16V3.6
	c0,0.11,0.02,0.18,0.05,0.2c0.03,0.02,0.11,0.04,0.23,0.05V3.9H9.48V3.87C9.6,3.86,9.67,3.84,9.7,3.81C9.73,3.78,9.74,3.7,9.74,3.58
	V2.16H9.58c-0.16,0-0.26,0.02-0.32,0.07s-0.1,0.14-0.13,0.3H9.06L9.08,2.04z"/>
<path class="st0" d="M10.8,3.87c0.12-0.01,0.19-0.03,0.22-0.05s0.05-0.09,0.05-0.2V2.35c0-0.1-0.02-0.17-0.05-0.2
	C10.99,2.12,10.91,2.1,10.8,2.1V2.04h0.84v0.05c-0.12,0.01-0.19,0.02-0.22,0.05c-0.03,0.03-0.05,0.1-0.05,0.2V3.6
	c0,0.11,0.02,0.18,0.05,0.2s0.11,0.04,0.22,0.05V3.9H10.8V3.87z"/>
<path class="st0" d="M12.07,2.25C12.24,2.08,12.46,2,12.72,2s0.47,0.08,0.65,0.25c0.19,0.18,0.28,0.43,0.28,0.73
	c0,0.31-0.1,0.55-0.29,0.73c-0.18,0.16-0.39,0.24-0.64,0.24c-0.27,0-0.49-0.09-0.66-0.27c-0.18-0.18-0.27-0.42-0.27-0.71
	C11.79,2.68,11.88,2.43,12.07,2.25z M12.29,3.64c0.12,0.14,0.26,0.21,0.43,0.21s0.31-0.07,0.43-0.21s0.18-0.36,0.18-0.67
	s-0.06-0.53-0.18-0.67c-0.12-0.14-0.26-0.21-0.43-0.21s-0.31,0.07-0.43,0.21s-0.18,0.36-0.18,0.66C12.11,3.28,12.17,3.5,12.29,3.64z
	"/>
<path class="st0" d="M13.79,3.87c0.12-0.01,0.19-0.04,0.23-0.08c0.03-0.04,0.05-0.14,0.05-0.29V2.25L14.03,2.2
	c-0.04-0.05-0.08-0.08-0.11-0.09s-0.07-0.02-0.13-0.02V2.04h0.48l1.1,1.36V2.45c0-0.16-0.02-0.26-0.07-0.3
	c-0.03-0.03-0.1-0.05-0.2-0.06V2.04h0.67v0.05c-0.11,0.01-0.18,0.04-0.22,0.08c-0.04,0.04-0.05,0.14-0.05,0.29v1.5h-0.05L14.19,2.4
	v1.11c0,0.16,0.02,0.26,0.07,0.3c0.03,0.03,0.1,0.05,0.2,0.06v0.05h-0.67V3.87z"/>
<path class="st0" d="M15.85,3.92V3.87c0.07-0.01,0.13-0.04,0.16-0.08c0.04-0.05,0.1-0.17,0.19-0.38l0.59-1.39h0.06l0.71,1.61
	c0.05,0.11,0.08,0.17,0.11,0.2s0.08,0.04,0.14,0.05v0.05h-0.72V3.87c0.08-0.01,0.14-0.02,0.16-0.03c0.02-0.01,0.04-0.04,0.04-0.08
	c0-0.01,0-0.04-0.01-0.07s-0.02-0.07-0.04-0.11l-0.11-0.27h-0.75c-0.07,0.19-0.12,0.3-0.13,0.34c-0.01,0.04-0.02,0.07-0.02,0.1
	c0,0.05,0.02,0.08,0.06,0.1c0.02,0.01,0.07,0.02,0.14,0.02v0.05H15.85z M17.07,3.19l-0.33-0.78l-0.33,0.78
	C16.41,3.19,17.07,3.19,17.07,3.19z"/>
<path class="st0" d="M17.89,3.87c0.1-0.01,0.17-0.03,0.2-0.06c0.03-0.03,0.05-0.09,0.05-0.2V2.35c0-0.1-0.02-0.17-0.05-0.2
	c-0.03-0.03-0.1-0.05-0.2-0.06V2.04h0.8v0.05c-0.1,0.01-0.17,0.02-0.21,0.05c-0.04,0.03-0.05,0.09-0.05,0.18v1.37
	c0,0.03,0,0.06,0.02,0.07s0.03,0.03,0.07,0.03c0.02,0,0.04,0,0.07,0.01s0.07,0,0.13,0c0.25,0,0.42-0.02,0.51-0.06
	s0.18-0.15,0.26-0.32h0.07l-0.14,0.49h-1.53V3.87z"/>
<path class="st0" d="M20.43,3.35c0.05,0.13,0.1,0.23,0.17,0.31c0.11,0.13,0.25,0.2,0.42,0.2c0.09,0,0.17-0.03,0.23-0.09
	c0.07-0.06,0.1-0.14,0.1-0.24c0-0.09-0.03-0.17-0.1-0.24c-0.04-0.04-0.13-0.11-0.27-0.2l-0.24-0.15c-0.07-0.05-0.13-0.1-0.18-0.14
	c-0.08-0.09-0.12-0.19-0.12-0.3c0-0.14,0.05-0.26,0.14-0.36S20.8,2,20.96,2c0.06,0,0.14,0.02,0.23,0.05s0.14,0.05,0.16,0.05
	c0.04,0,0.06-0.01,0.07-0.02c0.01-0.02,0.02-0.04,0.03-0.07h0.06l0.06,0.6H21.5c-0.05-0.18-0.12-0.31-0.22-0.38
	c-0.1-0.07-0.2-0.11-0.3-0.11c-0.08,0-0.15,0.02-0.2,0.07c-0.06,0.05-0.09,0.11-0.09,0.19c0,0.07,0.02,0.14,0.07,0.19
	c0.04,0.05,0.11,0.11,0.21,0.17l0.25,0.15c0.16,0.1,0.27,0.18,0.33,0.27c0.06,0.08,0.09,0.18,0.09,0.29c0,0.15-0.06,0.27-0.17,0.37
	s-0.26,0.15-0.43,0.15c-0.09,0-0.18-0.02-0.28-0.05s-0.15-0.05-0.16-0.05c-0.03,0-0.06,0.01-0.07,0.03
	c-0.01,0.02-0.02,0.04-0.02,0.06h-0.06l-0.08-0.6L20.43,3.35L20.43,3.35z"/>
<path class="st0" d="M21.88,3.87c0.11-0.01,0.18-0.03,0.21-0.06c0.03-0.03,0.04-0.1,0.04-0.23V2.35c0-0.1-0.02-0.17-0.05-0.2
	c-0.03-0.03-0.1-0.05-0.2-0.06V2.04h0.79v0.05c-0.1,0.01-0.17,0.03-0.2,0.06c-0.03,0.03-0.05,0.1-0.05,0.2V2.9h0.86V2.35
	c0-0.1-0.02-0.17-0.05-0.2c-0.03-0.03-0.1-0.05-0.2-0.06V2.04h0.79v0.05c-0.1,0.01-0.17,0.03-0.2,0.06c-0.03,0.03-0.05,0.1-0.05,0.2
	v1.26c0,0.1,0.02,0.17,0.05,0.2c0.03,0.03,0.1,0.05,0.2,0.06v0.05h-0.79V3.87c0.11-0.01,0.18-0.03,0.21-0.06
	c0.03-0.03,0.04-0.11,0.04-0.23V3.03h-0.86v0.59c0,0.1,0.02,0.17,0.05,0.2c0.03,0.03,0.1,0.05,0.2,0.06v0.05h-0.79V3.87z"/>
<path class="st0" d="M23.91,3.87c0.11-0.01,0.18-0.03,0.2-0.06c0.03-0.03,0.04-0.11,0.04-0.23V2.35c0-0.1-0.02-0.17-0.04-0.2
	c-0.03-0.03-0.1-0.05-0.2-0.06V2.04h0.79c0.16,0,0.3,0.02,0.41,0.06c0.21,0.08,0.31,0.22,0.31,0.43c0,0.14-0.05,0.25-0.14,0.33
	s-0.22,0.13-0.38,0.15l0.58,0.72c0.04,0.04,0.07,0.08,0.11,0.1s0.08,0.03,0.14,0.04v0.05h-0.46l-0.7-0.88l-0.12,0.01v0.56
	c0,0.1,0.02,0.17,0.05,0.2c0.03,0.03,0.1,0.05,0.21,0.06v0.05h-0.79L23.91,3.87L23.91,3.87z M24.88,2.88
	c0.15-0.06,0.23-0.18,0.23-0.35c0-0.16-0.07-0.28-0.2-0.34c-0.07-0.03-0.17-0.05-0.29-0.05c-0.08,0-0.13,0.01-0.15,0.02
	c-0.02,0.02-0.02,0.04-0.02,0.09v0.7C24.65,2.94,24.8,2.92,24.88,2.88z"/>
<path class="st0" d="M25.82,3.87c0.12-0.01,0.19-0.03,0.23-0.06s0.05-0.09,0.05-0.2V2.35c0-0.1-0.02-0.17-0.05-0.2
	c-0.03-0.03-0.11-0.05-0.22-0.05V2.04h0.84v0.05c-0.12,0.01-0.19,0.02-0.22,0.05s-0.05,0.1-0.05,0.2V3.6c0,0.11,0.02,0.18,0.05,0.2
	s0.11,0.04,0.22,0.05V3.9h-0.84V3.87H25.82z"/>
<path class="st0" d="M26.75,3.87c0.12-0.01,0.19-0.04,0.23-0.08s0.05-0.14,0.05-0.29V2.25L26.99,2.2c-0.04-0.05-0.08-0.08-0.11-0.09
	s-0.07-0.02-0.13-0.02V2.04h0.48l1.1,1.36V2.45c0-0.16-0.02-0.26-0.07-0.3c-0.03-0.03-0.1-0.05-0.2-0.06V2.04h0.67v0.05
	c-0.11,0.01-0.18,0.04-0.22,0.08s-0.05,0.14-0.05,0.29v1.5h-0.05l-1.26-1.57V3.5c0,0.16,0.02,0.26,0.07,0.3
	c0.03,0.03,0.1,0.05,0.2,0.06v0.05h-0.67V3.87z"/>
<path class="st0" d="M28.81,3.87c0.1-0.01,0.17-0.03,0.2-0.06c0.03-0.03,0.05-0.09,0.05-0.2V2.35c0-0.1-0.01-0.17-0.05-0.2
	c-0.03-0.03-0.1-0.05-0.2-0.06V2.04h1.51l0.01,0.41h-0.08c-0.02-0.12-0.06-0.21-0.11-0.24c-0.05-0.04-0.16-0.06-0.32-0.06h-0.39
	c-0.04,0-0.07,0.01-0.08,0.02c-0.01,0.01-0.01,0.04-0.01,0.08v0.63h0.44c0.12,0,0.2-0.02,0.23-0.05c0.03-0.04,0.06-0.11,0.08-0.22
	h0.07v0.66h-0.07c-0.02-0.11-0.05-0.18-0.08-0.22C29.98,3.01,29.9,3,29.78,3h-0.44v0.7c0,0.06,0.02,0.09,0.05,0.1
	c0.04,0.01,0.14,0.02,0.32,0.02c0.19,0,0.33-0.02,0.43-0.06c0.09-0.04,0.17-0.14,0.25-0.31h0.08l-0.13,0.48H28.8V3.87H28.81z"/>
<path class="st0" d="M31.59,2.25C31.76,2.08,31.98,2,32.24,2s0.47,0.08,0.65,0.25c0.19,0.18,0.28,0.43,0.28,0.73
	c0,0.31-0.1,0.55-0.29,0.73c-0.18,0.16-0.39,0.24-0.64,0.24c-0.27,0-0.49-0.09-0.66-0.27c-0.18-0.18-0.27-0.42-0.27-0.71
	C31.3,2.68,31.4,2.43,31.59,2.25z M31.8,3.64c0.12,0.14,0.26,0.21,0.43,0.21c0.17,0,0.31-0.07,0.43-0.21s0.18-0.36,0.18-0.67
	s-0.06-0.53-0.18-0.67c-0.12-0.14-0.26-0.21-0.43-0.21c-0.17,0-0.31,0.07-0.43,0.21s-0.18,0.36-0.18,0.66
	C31.63,3.28,31.68,3.5,31.8,3.64z"/>
<path class="st0" d="M33.3,3.87c0.11-0.01,0.18-0.03,0.21-0.06c0.03-0.03,0.04-0.1,0.04-0.23V2.35c0-0.1-0.01-0.17-0.05-0.2
	c-0.03-0.03-0.1-0.05-0.2-0.06V2.04h1.51l0.01,0.41h-0.07c-0.02-0.13-0.06-0.21-0.11-0.25c-0.05-0.03-0.16-0.05-0.32-0.05h-0.39
	c-0.04,0-0.06,0.01-0.07,0.02c-0.01,0.01-0.02,0.04-0.02,0.08v0.63h0.41c0.12,0,0.2-0.02,0.23-0.05c0.03-0.04,0.06-0.11,0.08-0.22
	h0.07v0.66h-0.07c-0.02-0.11-0.05-0.18-0.08-0.22C34.45,3.01,34.37,3,34.25,3h-0.41v0.62c0,0.1,0.02,0.17,0.05,0.2
	c0.03,0.03,0.1,0.05,0.21,0.06v0.05h-0.79L33.3,3.87L33.3,3.87z"/>
<path class="st0" d="M1.09,8.17c0.07,0.19,0.16,0.34,0.25,0.46c0.17,0.2,0.38,0.3,0.63,0.3c0.14,0,0.25-0.04,0.35-0.13
	s0.15-0.21,0.15-0.36c0-0.14-0.05-0.26-0.15-0.36c-0.06-0.06-0.2-0.16-0.41-0.29L1.55,7.56c-0.11-0.07-0.2-0.14-0.26-0.21
	C1.17,7.22,1.11,7.07,1.11,6.9c0-0.22,0.07-0.39,0.21-0.54c0.14-0.14,0.33-0.21,0.57-0.21c0.1,0,0.21,0.02,0.35,0.07
	s0.21,0.07,0.23,0.07c0.05,0,0.09-0.01,0.11-0.04s0.04-0.06,0.05-0.11h0.09l0.09,0.91h-0.1C2.64,6.78,2.53,6.59,2.38,6.48
	s-0.3-0.16-0.45-0.16c-0.12,0-0.22,0.03-0.31,0.1C1.53,6.49,1.49,6.58,1.49,6.71c0,0.11,0.03,0.2,0.1,0.28
	C1.66,7.07,1.76,7.15,1.9,7.24l0.37,0.23c0.23,0.14,0.4,0.28,0.5,0.4C2.86,7.99,2.91,8.14,2.91,8.3c0,0.22-0.08,0.41-0.25,0.56
	S2.28,9.08,2.01,9.08c-0.13,0-0.27-0.02-0.41-0.07C1.46,8.96,1.37,8.93,1.35,8.93c-0.05,0-0.08,0.02-0.1,0.05s-0.03,0.06-0.03,0.1
	h-0.1L1,8.17H1.09z"/>
<path class="st0" d="M3.25,9.03V8.95C3.36,8.94,3.44,8.9,3.5,8.83c0.05-0.07,0.15-0.26,0.28-0.58l0.89-2.09h0.08l1.06,2.42
	c0.07,0.16,0.13,0.26,0.17,0.3s0.11,0.06,0.21,0.08v0.08H5.11V8.96c0.12-0.01,0.2-0.02,0.24-0.04C5.39,8.9,5.4,8.87,5.4,8.8
	c0-0.02-0.01-0.06-0.02-0.11S5.35,8.58,5.32,8.52L5.15,8.11H4.04c-0.11,0.28-0.18,0.45-0.2,0.51C3.82,8.68,3.81,8.73,3.81,8.77
	c0,0.07,0.03,0.12,0.09,0.15C3.94,8.94,4,8.95,4.1,8.96v0.08H3.25V9.03z M5.09,7.94L4.6,6.76L4.11,7.94H5.09z"/>
<path class="st0" d="M6.33,8.95C6.5,8.94,6.62,8.91,6.67,8.87s0.08-0.14,0.08-0.31v-1.9c0-0.16-0.03-0.26-0.08-0.3
	S6.51,6.29,6.33,6.28V6.2h1.26v0.08C7.42,6.29,7.3,6.32,7.25,6.36s-0.08,0.15-0.08,0.3v1.9c0,0.16,0.03,0.27,0.08,0.31
	s0.16,0.07,0.34,0.08v0.08H6.33V8.95z"/>
<path class="st0" d="M7.73,8.95c0.18-0.02,0.29-0.06,0.34-0.12c0.05-0.06,0.07-0.2,0.07-0.43V6.52L8.08,6.45
	C8.02,6.38,7.96,6.33,7.92,6.31s-0.11-0.03-0.2-0.03V6.2h0.73l1.65,2.05V6.84c0-0.23-0.03-0.38-0.1-0.45
	C9.95,6.34,9.85,6.31,9.7,6.3V6.22h1V6.3c-0.16,0.02-0.27,0.06-0.32,0.12c-0.05,0.06-0.08,0.21-0.08,0.43v2.24h-0.07L8.35,6.75v1.66
	c0,0.23,0.03,0.38,0.1,0.46c0.04,0.05,0.14,0.08,0.3,0.09v0.08h-1V8.95H7.73z"/>
<path class="st0" d="M10.85,6.21h2.41l0.02,0.72h-0.1c-0.05-0.23-0.11-0.38-0.19-0.44c-0.08-0.07-0.24-0.1-0.49-0.1h-0.24v2.18
	c0,0.16,0.03,0.27,0.08,0.31s0.16,0.07,0.34,0.08v0.08h-1.24V8.96c0.18-0.01,0.29-0.04,0.34-0.09c0.04-0.05,0.07-0.16,0.07-0.34V6.4
	H11.6c-0.24,0-0.4,0.03-0.48,0.1c-0.09,0.07-0.15,0.22-0.19,0.45h-0.1L10.85,6.21z"/>
<path class="st0" d="M14.42,8.95c0.16-0.02,0.26-0.05,0.3-0.1c0.04-0.05,0.06-0.16,0.06-0.34V6.66c0-0.15-0.02-0.25-0.07-0.29
	s-0.14-0.08-0.3-0.09V6.2h1.12c0.36,0,0.64,0.07,0.83,0.21s0.29,0.32,0.29,0.55c0,0.29-0.11,0.5-0.32,0.63s-0.48,0.2-0.8,0.2
	c-0.05,0-0.1,0-0.18,0c-0.07,0-0.12,0-0.16,0v0.77c0,0.16,0.02,0.26,0.07,0.3s0.16,0.07,0.33,0.08v0.08H14.4V8.95H14.42z
	 M15.86,6.45c-0.12-0.05-0.27-0.08-0.46-0.08c-0.09,0-0.14,0.01-0.16,0.03c-0.02,0.02-0.03,0.06-0.03,0.12v1.11
	c0.08,0.01,0.13,0.01,0.15,0.01s0.05,0,0.07,0c0.2,0,0.35-0.03,0.46-0.08c0.2-0.1,0.31-0.29,0.31-0.57
	C16.2,6.73,16.09,6.55,15.86,6.45z"/>
<path class="st0" d="M16.79,8.95c0.17-0.02,0.27-0.05,0.31-0.09s0.06-0.16,0.06-0.34V6.67c0-0.15-0.02-0.25-0.07-0.3
	s-0.15-0.07-0.3-0.09V6.2h1.18v0.08c-0.16,0.01-0.26,0.04-0.3,0.09c-0.05,0.05-0.07,0.14-0.07,0.3V7.5h1.29V6.67
	c0-0.15-0.02-0.25-0.07-0.3s-0.15-0.07-0.31-0.09V6.2h1.18v0.08c-0.16,0.01-0.26,0.04-0.3,0.09c-0.05,0.05-0.07,0.14-0.07,0.3v1.9
	c0,0.15,0.02,0.25,0.07,0.3s0.15,0.07,0.3,0.09v0.08h-1.18V8.96c0.17-0.02,0.27-0.05,0.31-0.09c0.04-0.04,0.06-0.16,0.06-0.34V7.7
	H17.6v0.88c0,0.15,0.02,0.25,0.07,0.3c0.05,0.04,0.15,0.07,0.3,0.08v0.08h-1.18C16.79,9.04,16.79,8.95,16.79,8.95z"/>
<path class="st0" d="M19.87,8.95c0.17-0.01,0.29-0.04,0.34-0.08s0.08-0.14,0.08-0.31v-1.9c0-0.16-0.03-0.26-0.08-0.3
	s-0.16-0.07-0.34-0.08V6.2h1.26v0.08c-0.17,0.01-0.29,0.04-0.34,0.08s-0.08,0.15-0.08,0.3v1.9c0,0.16,0.03,0.27,0.08,0.31
	s0.16,0.07,0.34,0.08v0.08h-1.26V8.95z"/>
<path class="st0" d="M21.27,8.95c0.16-0.02,0.26-0.04,0.3-0.08c0.05-0.04,0.07-0.14,0.07-0.3v-1.9c0-0.15-0.02-0.25-0.07-0.3
	s-0.15-0.08-0.31-0.09V6.2h1.2v0.08c-0.16,0.01-0.26,0.03-0.32,0.08c-0.05,0.04-0.08,0.14-0.08,0.28v2.05
	c0,0.05,0.01,0.08,0.02,0.11c0.02,0.03,0.05,0.04,0.11,0.05c0.03,0,0.07,0.01,0.1,0.01c0.04,0,0.1,0,0.2,0
	c0.38,0,0.64-0.03,0.77-0.09c0.13-0.06,0.26-0.22,0.39-0.48h0.11l-0.21,0.74h-2.29L21.27,8.95L21.27,8.95z"/>
<path class="st0" d="M24.38,6.53c0.26-0.25,0.58-0.38,0.97-0.38c0.38,0,0.71,0.13,0.97,0.38c0.28,0.27,0.43,0.64,0.43,1.09
	c0,0.46-0.15,0.83-0.44,1.1c-0.26,0.24-0.58,0.37-0.96,0.37c-0.4,0-0.73-0.14-1-0.41c-0.27-0.28-0.4-0.63-0.4-1.06
	C23.95,7.17,24.09,6.8,24.38,6.53z M24.7,8.62c0.18,0.21,0.39,0.32,0.65,0.32c0.25,0,0.47-0.1,0.64-0.31s0.27-0.54,0.27-1
	s-0.09-0.8-0.27-1.01s-0.39-0.31-0.64-0.31c-0.26,0-0.47,0.11-0.65,0.32s-0.27,0.55-0.27,1C24.43,8.07,24.52,8.4,24.7,8.62z"/>
<path class="st0" d="M26.95,8.95c0.18-0.02,0.29-0.06,0.34-0.12c0.05-0.06,0.08-0.2,0.08-0.43V6.67c0-0.15-0.02-0.25-0.07-0.3
	s-0.16-0.07-0.33-0.08V6.21h0.84l0.98,2.12l0.96-2.12h0.85v0.08c-0.16,0.01-0.26,0.04-0.31,0.09c-0.05,0.05-0.07,0.15-0.07,0.3v1.89
	c0,0.16,0.02,0.25,0.07,0.3c0.05,0.04,0.15,0.07,0.31,0.09v0.08h-1.19V8.96c0.17-0.01,0.28-0.04,0.32-0.09s0.06-0.16,0.06-0.34V6.62
	L28.7,9.05h-0.06l-1.07-2.33v1.7c0,0.23,0.03,0.38,0.1,0.46c0.04,0.05,0.14,0.08,0.3,0.09v0.08h-1v-0.1
	C26.97,8.95,26.95,8.95,26.95,8.95z"/>
<path class="st0" d="M30.74,8.95c0.16-0.02,0.26-0.04,0.3-0.08c0.05-0.04,0.07-0.14,0.07-0.3v-1.9c0-0.15-0.02-0.25-0.07-0.3
	s-0.15-0.08-0.31-0.09V6.2h2.26L33,6.81h-0.11c-0.04-0.19-0.09-0.31-0.16-0.36s-0.23-0.08-0.48-0.08h-0.58
	c-0.06,0-0.1,0.01-0.12,0.03s-0.02,0.06-0.02,0.11v0.95h0.66c0.18,0,0.3-0.03,0.35-0.08s0.09-0.16,0.12-0.33h0.1v0.98h-0.1
	c-0.03-0.17-0.07-0.27-0.12-0.33s-0.17-0.08-0.35-0.08h-0.66v1.05c0,0.08,0.03,0.13,0.08,0.15c0.05,0.02,0.21,0.02,0.48,0.02
	c0.29,0,0.5-0.03,0.64-0.09s0.26-0.22,0.37-0.46h0.12l-0.19,0.72h-2.3L30.74,8.95L30.74,8.95z"/>
<path class="st0" d="M33.34,8.95c0.18-0.02,0.29-0.06,0.34-0.12c0.05-0.06,0.08-0.2,0.08-0.43V6.52L33.7,6.45
	c-0.06-0.07-0.12-0.12-0.16-0.14s-0.11-0.03-0.2-0.03V6.2h0.73l1.64,2.04v-1.4c0-0.23-0.04-0.38-0.1-0.45
	c-0.04-0.05-0.15-0.08-0.3-0.09V6.22h1V6.3c-0.16,0.02-0.27,0.06-0.32,0.12c-0.05,0.06-0.08,0.21-0.08,0.43v2.24h-0.07l-1.88-2.34
	v1.66c0,0.23,0.03,0.38,0.1,0.46c0.04,0.05,0.14,0.08,0.3,0.09v0.08h-1V8.95H33.34z"/>
<path class="st0" d="M36.43,9.03V8.95c0.11-0.01,0.19-0.05,0.25-0.12c0.05-0.07,0.15-0.26,0.28-0.58l0.89-2.09h0.08l1.06,2.42
	c0.07,0.16,0.13,0.26,0.17,0.3c0.04,0.04,0.11,0.06,0.21,0.08v0.08H38.3V8.96c0.12-0.01,0.21-0.02,0.24-0.04
	c0.04-0.02,0.05-0.05,0.05-0.12c0-0.02-0.01-0.06-0.02-0.11c-0.01-0.05-0.03-0.11-0.06-0.17l-0.17-0.41h-1.12
	c-0.11,0.28-0.18,0.45-0.2,0.51s-0.03,0.11-0.03,0.15c0,0.07,0.03,0.12,0.09,0.15c0.04,0.02,0.1,0.03,0.2,0.04v0.08h-0.85
	C36.43,9.04,36.43,9.03,36.43,9.03z M38.27,7.94l-0.49-1.17l-0.49,1.17H38.27z"/>
<path class="st0" d="M20.71,5.05h16.45c0.03,0.08,0.09,0.15,0.18,0.15c0.11,0,0.2-0.09,0.2-0.2s-0.08-0.2-0.2-0.2
	c-0.09,0-0.15,0.07-0.18,0.15H20.72 M19.22,4.95H3.03C3.01,4.86,2.94,4.8,2.85,4.8c-0.11,0-0.2,0.09-0.2,0.2s0.09,0.2,0.2,0.2
	C2.94,5.2,3,5.13,3.03,5.05h16.18"/>
<g>
	<path class="st0" d="M19.98,5.82c-0.45,0-0.82-0.37-0.82-0.82s0.37-0.82,0.82-0.82c0.45,0,0.82,0.37,0.82,0.82
		S20.43,5.82,19.98,5.82z M19.98,4.28c-0.4,0-0.72,0.32-0.72,0.72s0.32,0.72,0.72,0.72S20.7,5.4,20.7,5S20.38,4.28,19.98,4.28z"/>
</g>
<path class="st0" d="M19.8,5.56c0.03,0.01,0.07,0.03,0.1,0.03c0.03,0.01,0.05,0.02,0.07,0.04c0,0.01,0.01,0,0.01,0
	c0,0,0.01-0.01,0.01-0.01c0.02-0.02,0.04-0.02,0.06-0.03c0.01,0,0.02-0.01,0.03-0.01c0.04-0.01,0.08-0.03,0.12-0.05
	c0.03-0.02,0.06-0.04,0.09-0.07c0.04-0.03,0.07-0.07,0.09-0.11c0.02-0.03,0.03-0.07,0.04-0.11c0.01-0.03,0.01-0.06,0.01-0.08
	c0-0.01,0-0.01,0.01-0.01c0.01,0,0.02,0,0.03,0c0,0,0.01,0,0.01,0c0,0,0-0.01,0-0.01c-0.02-0.04-0.04-0.07-0.07-0.11
	c-0.01-0.01-0.01-0.01-0.02,0c-0.02,0.04-0.04,0.07-0.07,0.11c-0.01,0.01,0,0.01,0.01,0.01c0.01,0,0.02,0,0.03,0
	c0.01,0,0.01,0,0.01,0.01c-0.01,0.04-0.02,0.09-0.04,0.13c-0.02,0.03-0.04,0.05-0.06,0.07c-0.04,0.03-0.09,0.05-0.14,0.04
	c-0.05,0-0.08-0.04-0.09-0.08c-0.01-0.04-0.01-0.08-0.01-0.12c0-0.04-0.01-0.08-0.01-0.12c0-0.05-0.01-0.11-0.01-0.17
	c0,0,0-0.01,0-0.01l0-0.1c0,0,0-0.01,0-0.01c0.01,0,0.01,0,0.02-0.01c0,0,0,0,0.01,0c0.01,0,0.02,0,0.04,0c0.05,0,0.09,0,0.14,0
	c0,0,0.01,0,0.01,0c0.03,0.02,0.07,0.01,0.08-0.02c0-0.02,0-0.04-0.02-0.05c-0.02-0.01-0.04-0.01-0.05,0
	c-0.01,0.01-0.02,0.01-0.03,0.01c-0.01,0-0.01,0-0.02,0c-0.05,0-0.09,0-0.14,0c-0.01,0-0.01,0-0.01-0.01c0,0-0.01-0.01-0.01-0.01
	c0,0-0.01,0-0.01-0.01c0-0.01,0-0.01,0-0.02c0-0.02,0-0.03,0-0.05c0,0,0-0.01,0.01-0.01c0.01,0,0.01-0.01,0.01-0.02
	c0,0,0-0.01,0-0.01c0.01-0.01,0.01-0.02,0-0.03c0,0,0-0.01,0-0.01c0.02-0.01,0.03-0.03,0.03-0.05c0.01-0.04,0-0.08-0.03-0.11
	C20.04,4.37,20,4.35,19.96,4.36c-0.05,0.01-0.08,0.05-0.09,0.09c-0.01,0.04,0.01,0.08,0.03,0.1c0,0,0,0.01,0,0.01
	c-0.01,0.01-0.01,0.02,0,0.03c0,0.01,0.01,0.01,0.01,0.02c0,0.01,0.01,0.01,0.01,0.01c0,0,0.01,0,0.01,0.01c0,0.02,0,0.05,0,0.07
	c0,0,0,0.01-0.01,0.01c0,0-0.01,0-0.01,0.01c0,0.01-0.01,0.01-0.01,0.01c0,0-0.01,0-0.01,0c-0.05,0.01-0.11,0.01-0.16,0
	c0,0-0.01,0-0.01,0c-0.03-0.02-0.07-0.01-0.08,0.02c0,0.02,0,0.04,0.02,0.05c0.02,0.01,0.04,0.01,0.06,0c0,0,0.01,0,0.01,0
	c0.02,0,0.05,0,0.07,0c0.03,0,0.07,0,0.1,0c0.01,0,0.01,0,0.02,0.01c0,0,0.01,0.01,0.01,0.01c0,0,0.01,0,0.01,0.01
	c0,0.01,0,0.02,0,0.03c0,0.04,0,0.08,0,0.13c0,0.04,0,0.09-0.01,0.13c0,0.03,0,0.06-0.01,0.09c0,0.05-0.01,0.09-0.01,0.14
	c0,0.02-0.01,0.04-0.03,0.06c-0.02,0.02-0.05,0.03-0.08,0.03c-0.03,0-0.05-0.01-0.08-0.02c-0.02-0.01-0.04-0.02-0.05-0.03
	c-0.04-0.03-0.07-0.07-0.08-0.12c-0.01-0.02-0.01-0.05-0.02-0.07c0-0.01,0-0.01,0.01-0.01c0.01,0,0.02,0,0.03,0
	c0.01,0,0.01,0,0.01-0.01c-0.01-0.01-0.01-0.03-0.02-0.04c-0.01-0.03-0.03-0.05-0.04-0.08c0-0.01-0.01-0.01-0.01,0
	c-0.02,0.04-0.04,0.07-0.07,0.11c-0.01,0.01,0,0.01,0.01,0.01c0.01,0,0.02,0,0.03,0c0.01,0,0.01,0,0.01,0.01c0,0.02,0,0.03,0,0.05
	c0.01,0.04,0.02,0.08,0.03,0.12c0.01,0.03,0.03,0.06,0.05,0.09c0.03,0.04,0.06,0.07,0.1,0.1C19.73,5.53,19.77,5.55,19.8,5.56z
	 M19.92,4.47c0-0.04,0.03-0.07,0.07-0.07c0.04,0,0.06,0.03,0.07,0.07c0,0.03-0.03,0.07-0.07,0.06C19.95,4.54,19.91,4.51,19.92,4.47z
	"/>
</svg>
