<?xml version="1.0" encoding="utf-8"?>
<!-- Generator: Adobe Illustrator 24.0.1, SVG Export Plug-In . SVG Version: 6.00 Build 0)  -->
<svg version="1.1" id="Layer_1" xmlns="http://www.w3.org/2000/svg" xmlns:xlink="http://www.w3.org/1999/xlink" x="0px" y="0px"
	 viewBox="0 0 40.4 11.1" style="enable-background:new 0 0 40.4 11.1;" xml:space="preserve">
<style type="text/css">
	.st0{fill:#AF0404;}
</style>
<path class="st0" d="M5.9,3.9c-0.1,0-0.2,0-0.2-0.1c0,0-0.1-0.1-0.1-0.3V2.4L6.9,4h0V2.5C7,2.3,7,2.2,7,2.2c0,0,0.1-0.1,0.2-0.1v0
	H6.6v0c0.1,0,0.2,0,0.2,0.1c0,0,0.1,0.1,0.1,0.3v1L5.7,2H5.3v0c0.1,0,0.1,0,0.1,0c0,0,0.1,0,0.1,0.1l0,0v1.2c0,0.2,0,0.2,0,0.3
	c0,0-0.1,0.1-0.2,0.1h0v0L5.9,3.9L5.9,3.9z M7.9,3.9c-0.1,0-0.1,0-0.1,0c0,0-0.1,0-0.1-0.1c0,0,0-0.1,0-0.1c0,0,0.1-0.1,0.1-0.3h0.8
	l0.1,0.3c0,0,0,0.1,0,0.1c0,0,0,0.1,0,0.1c0,0,0,0.1,0,0.1c0,0-0.1,0-0.2,0v0.1h0.7V3.9c-0.1,0-0.1,0-0.1,0c0,0-0.1-0.1-0.1-0.2
	L8.3,2H8.3L7.7,3.4C7.6,3.6,7.5,3.7,7.5,3.8c0,0-0.1,0.1-0.2,0.1v0L7.9,3.9L7.9,3.9z M8.2,2.4l0.3,0.8H7.9L8.2,2.4z M9.3,2.2
	c0.1,0,0.2-0.1,0.3-0.1h0.2v1.4c0,0.1,0,0.2,0,0.2c0,0-0.1,0.1-0.2,0.1v0h0.8v0c-0.1,0-0.2,0-0.2,0c0,0,0-0.1,0-0.2V2.1h0.2
	c0.2,0,0.3,0,0.3,0.1s0.1,0.2,0.1,0.3h0.1l0-0.5H9.1l0,0.5h0.1C9.2,2.4,9.2,2.3,9.3,2.2z M11.6,3.9c-0.1,0-0.2,0-0.2,0
	c0,0,0-0.1,0-0.2V2.3c0-0.1,0-0.2,0-0.2c0,0,0.1,0,0.2,0v0h-0.8v0.1c0.1,0,0.2,0,0.2,0c0,0,0,0.1,0,0.2v1.3c0,0.1,0,0.2,0,0.2
	c0,0-0.1,0-0.2,0.1v0L11.6,3.9L11.6,3.9z M12.7,3.9c0.2,0,0.5-0.1,0.6-0.2c0.2-0.2,0.3-0.4,0.3-0.7c0-0.3-0.1-0.5-0.3-0.7
	C13.2,2.1,13,2,12.7,2c-0.3,0-0.5,0.1-0.6,0.2c-0.2,0.2-0.3,0.4-0.3,0.7s0.1,0.5,0.3,0.7C12.2,3.9,12.5,3.9,12.7,3.9z M12.3,2.3
	c0.1-0.1,0.3-0.2,0.4-0.2c0.2,0,0.3,0.1,0.4,0.2c0.1,0.1,0.2,0.4,0.2,0.7s-0.1,0.5-0.2,0.7s-0.3,0.2-0.4,0.2c-0.2,0-0.3-0.1-0.4-0.2
	S12.1,3.3,12.1,3C12.1,2.7,12.2,2.4,12.3,2.3z M14.5,3.9c-0.1,0-0.2,0-0.2-0.1c0,0-0.1-0.1-0.1-0.3V2.4L15.5,4h0V2.5
	c0-0.2,0-0.2,0-0.3c0,0,0.1-0.1,0.2-0.1v0h-0.7v0c0.1,0,0.2,0,0.2,0.1c0,0,0.1,0.1,0.1,0.3v1L14.3,2h-0.5v0c0.1,0,0.1,0,0.1,0
	c0,0,0.1,0,0.1,0.1l0,0v1.2c0,0.2,0,0.2,0,0.3c0,0-0.1,0.1-0.2,0.1v0L14.5,3.9L14.5,3.9z M16.4,3.9c-0.1,0-0.1,0-0.1,0
	c0,0-0.1,0-0.1-0.1c0,0,0-0.1,0-0.1s0.1-0.2,0.1-0.3h0.8l0.1,0.3c0,0,0,0.1,0,0.1c0,0,0,0.1,0,0.1c0,0,0,0.1,0,0.1s-0.1,0-0.2,0v0.1
	h0.7V3.9c-0.1,0-0.1,0-0.1,0c0,0-0.1-0.1-0.1-0.2L16.8,2h-0.1l-0.6,1.4C16.1,3.6,16,3.7,16,3.8c0,0-0.1,0.1-0.2,0.1v0L16.4,3.9
	L16.4,3.9z M16.7,2.4l0.3,0.8h-0.7L16.7,2.4z M19.6,3.4L19.6,3.4c-0.2,0.2-0.2,0.3-0.3,0.3c-0.1,0-0.3,0.1-0.5,0.1
	c-0.1,0-0.1,0-0.1,0c0,0-0.1,0-0.1,0c0,0,0,0-0.1,0s0,0,0-0.1V2.3c0-0.1,0-0.1,0-0.2c0,0,0.1,0,0.2,0v0h-0.8v0c0.1,0,0.2,0,0.2,0.1
	c0,0,0,0.1,0,0.2v1.3c0,0.1,0,0.2,0,0.2c0,0-0.1,0.1-0.2,0.1v0h1.5L19.6,3.4z M20.5,4C20.5,3.9,20.5,3.9,20.5,4
	C20.5,3.9,20.6,3.9,20.5,4c0.1-0.1,0.1-0.1,0.2,0c0.1,0,0.2,0,0.3,0c0.2,0,0.3,0,0.4-0.2c0.1-0.1,0.2-0.2,0.2-0.4
	c0-0.1,0-0.2-0.1-0.3c-0.1-0.1-0.2-0.2-0.3-0.3L21,2.7c-0.1-0.1-0.2-0.1-0.2-0.2c0,0-0.1-0.1-0.1-0.2c0-0.1,0-0.1,0.1-0.2
	c0,0,0.1-0.1,0.2-0.1c0.1,0,0.2,0,0.3,0.1c0.1,0.1,0.2,0.2,0.2,0.4h0.1L21.5,2h-0.1c0,0,0,0,0,0.1c0,0,0,0-0.1,0c0,0-0.1,0-0.2,0
	C21.1,2,21,2,21,2c-0.2,0-0.3,0-0.4,0.1c-0.1,0.1-0.1,0.2-0.1,0.4c0,0.1,0,0.2,0.1,0.3c0,0,0.1,0.1,0.2,0.1L21,3.1
	c0.1,0.1,0.2,0.2,0.3,0.2c0.1,0.1,0.1,0.1,0.1,0.2c0,0.1,0,0.2-0.1,0.2c-0.1,0.1-0.1,0.1-0.2,0.1c-0.2,0-0.3-0.1-0.4-0.2
	c-0.1-0.1-0.1-0.2-0.2-0.3l-0.1,0L20.5,4L20.5,4z M22.7,3.9c-0.1,0-0.2,0-0.2-0.1c0,0,0-0.1,0-0.2V3h0.9v0.5c0,0.1,0,0.2,0,0.2
	c0,0-0.1,0.1-0.2,0.1v0h0.8v0c-0.1,0-0.2,0-0.2-0.1c0,0,0-0.1,0-0.2V2.4c0-0.1,0-0.2,0-0.2c0,0,0.1,0,0.2-0.1v0H23v0
	c0.1,0,0.2,0,0.2,0.1c0,0,0.1,0.1,0.1,0.2v0.5h-0.9V2.4c0-0.1,0-0.2,0-0.2c0,0,0.1,0,0.2-0.1v0h-0.8v0c0.1,0,0.2,0,0.2,0.1
	c0,0,0,0.1,0,0.2v1.2c0,0.1,0,0.2,0,0.2c0,0-0.1,0.1-0.2,0.1v0.1L22.7,3.9L22.7,3.9z M24.1,3.8c0,0-0.1,0.1-0.2,0.1l0,0h0.8v0
	c-0.1,0-0.2,0-0.2-0.1c0,0,0-0.1,0-0.2V3.1l0.1,0l0.7,0.9h0.5v0c-0.1,0-0.1,0-0.1,0c0,0-0.1-0.1-0.1-0.1L24.9,3
	c0.2,0,0.3-0.1,0.4-0.1c0.1-0.1,0.1-0.2,0.1-0.3c0-0.2-0.1-0.3-0.3-0.4C25,2.1,24.9,2,24.7,2h-0.8v0c0.1,0,0.2,0,0.2,0.1
	c0,0,0,0.1,0,0.2v1.2C24.2,3.7,24.1,3.8,24.1,3.8z M24.5,2.2C24.5,2.2,24.5,2.2,24.5,2.2c0-0.1,0.1-0.1,0.2-0.1c0.1,0,0.2,0,0.3,0
	c0.1,0.1,0.2,0.2,0.2,0.3c0,0.2-0.1,0.3-0.2,0.3c-0.1,0-0.2,0.1-0.4,0.1V2.2z M26,3.8c0,0-0.1,0.1-0.2,0.1h0v0h0.8v0
	c-0.1,0-0.2,0-0.2,0c0,0,0-0.1,0-0.2V2.3c0-0.1,0-0.2,0-0.2c0,0,0.1,0,0.2,0v0h-0.8v0.1c0.1,0,0.2,0,0.2,0c0,0,0,0.1,0,0.2v1.3
	C26.1,3.7,26.1,3.8,26,3.8z M27.4,3.9c-0.1,0-0.2,0-0.2-0.1c-0.1,0-0.1-0.1-0.1-0.3V2.4L28.4,4h0.1V2.5c0-0.2,0-0.2,0-0.3
	c0,0,0.1-0.1,0.2-0.1v0h-0.7v0c0.1,0,0.2,0,0.2,0.1c0,0,0.1,0.1,0.1,0.3v1L27.2,2h-0.5v0c0.1,0,0.1,0,0.1,0c0,0,0.1,0,0.1,0.1l0,0
	v1.2c0,0.2,0,0.2-0.1,0.3c0,0-0.1,0.1-0.2,0.1v0L27.4,3.9L27.4,3.9z M30.5,3.4L30.5,3.4c-0.2,0.2-0.2,0.3-0.3,0.3
	c-0.1,0-0.2,0.1-0.4,0.1c-0.2,0-0.3,0-0.3,0c0,0,0,0,0-0.1V3h0.4C29.9,3,30,3,30,3.1c0,0,0.1,0.1,0.1,0.2h0.1V2.6h-0.1
	c0,0.1-0.1,0.2-0.1,0.2c0,0-0.1,0-0.2,0h-0.4V2.2c0,0,0-0.1,0-0.1c0,0,0,0,0.1,0h0.4c0.2,0,0.3,0,0.3,0.1c0,0,0.1,0.1,0.1,0.2h0.1
	l0-0.4h-1.5v0c0.1,0,0.2,0,0.2,0.1c0,0,0,0.1,0,0.2v1.3c0,0.1,0,0.2,0,0.2c0,0-0.1,0.1-0.2,0.1h0v0.1h1.5L30.5,3.4z M32.2,3.9
	c0.2,0,0.5-0.1,0.6-0.2c0.2-0.2,0.3-0.4,0.3-0.7c0-0.3-0.1-0.5-0.3-0.7C32.7,2.1,32.5,2,32.2,2s-0.5,0.1-0.6,0.2
	c-0.2,0.2-0.3,0.4-0.3,0.7c0,0.3,0.1,0.5,0.3,0.7C31.8,3.9,32,3.9,32.2,3.9z M31.8,2.3c0.1-0.1,0.3-0.2,0.4-0.2
	c0.2,0,0.3,0.1,0.4,0.2c0.1,0.1,0.2,0.4,0.2,0.7s-0.1,0.5-0.2,0.7c-0.1,0.1-0.3,0.2-0.4,0.2c-0.2,0-0.3-0.1-0.4-0.2S31.6,3.3,31.6,3
	C31.6,2.7,31.7,2.4,31.8,2.3z M33.5,3.8c0,0-0.1,0.1-0.2,0.1l0,0.1h0.8V3.9c-0.1,0-0.2,0-0.2-0.1c0,0,0-0.1,0-0.2V3h0.4
	c0.1,0,0.2,0,0.2,0.1c0,0,0.1,0.1,0.1,0.2h0.1V2.6h-0.1c0,0.1,0,0.2-0.1,0.2c0,0-0.1,0-0.2,0h-0.4V2.2c0,0,0-0.1,0-0.1s0,0,0.1,0
	h0.4c0.2,0,0.3,0,0.3,0c0,0,0.1,0.1,0.1,0.2h0.1l0-0.4h-1.5v0c0.1,0,0.2,0,0.2,0.1c0,0,0,0.1,0,0.2v1.2C33.5,3.7,33.5,3.8,33.5,3.8z
	 M2.3,7.5L1.9,7.2C1.8,7.1,1.7,7.1,1.6,7C1.5,6.9,1.5,6.8,1.5,6.7c0-0.1,0-0.2,0.1-0.3c0.1-0.1,0.2-0.1,0.3-0.1
	c0.2,0,0.3,0.1,0.5,0.2s0.3,0.3,0.3,0.6h0.1L2.7,6.1H2.6c0,0,0,0.1,0,0.1c0,0-0.1,0-0.1,0c0,0-0.1,0-0.2-0.1S2,6.1,1.9,6.1
	c-0.2,0-0.4,0.1-0.6,0.2C1.2,6.5,1.1,6.7,1.1,6.9c0,0.2,0.1,0.3,0.2,0.5c0.1,0.1,0.2,0.1,0.3,0.2l0.4,0.2C2.1,7.9,2.3,8,2.3,8.1
	c0.1,0.1,0.1,0.2,0.1,0.4c0,0.2,0,0.3-0.1,0.4C2.2,8.9,2.1,8.9,2,8.9c-0.2,0-0.5-0.1-0.6-0.3C1.2,8.5,1.2,8.4,1.1,8.2H1l0.1,0.9h0.1
	c0,0,0-0.1,0-0.1c0,0,0,0,0.1,0c0,0,0.1,0,0.2,0.1c0.1,0,0.3,0.1,0.4,0.1c0.3,0,0.5-0.1,0.6-0.2c0.2-0.2,0.2-0.3,0.2-0.6
	c0-0.2,0-0.3-0.1-0.4C2.7,7.7,2.5,7.6,2.3,7.5z M5.8,8.6L4.8,6.2H4.7L3.8,8.2C3.7,8.6,3.5,8.8,3.5,8.8C3.4,8.9,3.4,8.9,3.2,8.9V9
	h0.8V9c-0.1,0-0.2,0-0.2,0c-0.1,0-0.1-0.1-0.1-0.2c0,0,0-0.1,0-0.1c0-0.1,0.1-0.2,0.2-0.5h1.1l0.2,0.4c0,0.1,0,0.1,0.1,0.2
	c0,0.1,0,0.1,0,0.1c0,0.1,0,0.1-0.1,0.1c0,0-0.1,0-0.2,0V9h1.1V9C6.1,8.9,6,8.9,6,8.9C5.9,8.8,5.9,8.7,5.8,8.6z M4.1,7.9l0.5-1.2
	l0.5,1.2H4.1z M6.3,6.3c0.2,0,0.3,0,0.3,0.1c0,0,0.1,0.1,0.1,0.3v1.9c0,0.2,0,0.3-0.1,0.3c0,0-0.2,0.1-0.3,0.1V9h1.3V8.9
	c-0.2,0-0.3,0-0.3-0.1c0,0-0.1-0.2-0.1-0.3V6.7c0-0.2,0-0.3,0.1-0.3c0,0,0.2-0.1,0.3-0.1V6.2L6.3,6.3L6.3,6.3z M9.7,6.3
	c0.1,0,0.2,0,0.3,0.1c0.1,0.1,0.1,0.2,0.1,0.5v1.4l-1.6-2H7.7v0.1c0.1,0,0.2,0,0.2,0c0,0,0.1,0.1,0.2,0.1l0.1,0.1v1.9
	c0,0.2,0,0.4-0.1,0.4S7.9,8.9,7.7,8.9h0V9h1V9c-0.2,0-0.3,0-0.3-0.1C8.4,8.8,8.3,8.6,8.3,8.4V6.7l1.9,2.3h0.1V6.9
	c0-0.2,0-0.4,0.1-0.4s0.2-0.1,0.3-0.1V6.2L9.7,6.3L9.7,6.3z M10.8,6.2l0,0.7h0.1c0-0.2,0.1-0.4,0.2-0.5c0.1-0.1,0.2-0.1,0.5-0.1h0.2
	v2.1c0,0.2,0,0.3-0.1,0.3c-0.1,0-0.2,0.1-0.3,0.1V9h1.2V9c-0.2,0-0.3,0-0.3-0.1c-0.1,0-0.1-0.1-0.1-0.3V6.4h0.2c0.2,0,0.4,0,0.5,0.1
	c0.1,0.1,0.1,0.2,0.2,0.4h0.1l0-0.7H10.8z M15.5,6.2h-1.1v0.1c0.2,0,0.2,0,0.3,0.1c0,0,0.1,0.1,0.1,0.3v1.8c0,0.2,0,0.3-0.1,0.3
	c0,0-0.1,0.1-0.3,0.1h0V9h1.2V8.9c-0.2,0-0.3,0-0.3-0.1c0,0-0.1-0.1-0.1-0.3V7.8h0.3c0.3,0,0.6-0.1,0.8-0.2c0.2-0.1,0.3-0.3,0.3-0.6
	c0-0.2-0.1-0.4-0.3-0.5S15.9,6.2,15.5,6.2z M15.9,7.6c-0.1,0.1-0.3,0.1-0.5,0.1h-0.1c0,0-0.1,0-0.1,0V6.5c0-0.1,0-0.1,0-0.1
	s0.1,0,0.2,0c0.2,0,0.3,0,0.5,0.1c0.2,0.1,0.3,0.3,0.3,0.5C16.2,7.3,16.1,7.5,15.9,7.6z M18.5,6.3c0.2,0,0.3,0,0.3,0.1
	c0,0,0.1,0.1,0.1,0.3v0.8h-1.3V6.7c0-0.2,0-0.2,0.1-0.3c0-0.1,0.1-0.1,0.3-0.1V6.2h-1.2v0.1c0.2,0,0.2,0,0.3,0.1
	c0,0,0.1,0.1,0.1,0.3v1.8c0,0.2,0,0.3-0.1,0.3c0,0-0.1,0.1-0.3,0.1V9H18V9c-0.1,0-0.2,0-0.3-0.1c0,0-0.1-0.1-0.1-0.3V7.7h1.3v0.8
	c0,0.2,0,0.3-0.1,0.3c0,0-0.1,0.1-0.3,0.1V9h1.2V9c-0.2,0-0.2,0-0.3-0.1c0-0.1-0.1-0.2-0.1-0.3V6.7c0-0.2,0-0.2,0.1-0.3
	c0-0.1,0.1-0.1,0.3-0.1V6.2L18.5,6.3L18.5,6.3z M19.9,6.3c0.2,0,0.3,0,0.3,0.1c0,0,0.1,0.1,0.1,0.3v1.9c0,0.2,0,0.3-0.1,0.3
	c-0.1,0-0.2,0.1-0.3,0.1V9h1.3V8.9c-0.2,0-0.3,0-0.3-0.1c0,0-0.1-0.2-0.1-0.3V6.7c0-0.2,0-0.3,0.1-0.3c0.1,0,0.2-0.1,0.3-0.1V6.2
	L19.9,6.3L19.9,6.3z M23.3,8.8c-0.1,0.1-0.4,0.1-0.8,0.1h-0.2c0,0-0.1,0-0.1,0c-0.1,0-0.1,0-0.1,0c0,0,0-0.1,0-0.1v-2
	c0-0.1,0-0.2,0.1-0.3c0.1-0.1,0.2-0.1,0.3-0.1V6.2h-1.2v0.1c0.2,0,0.3,0,0.3,0.1c0,0,0.1,0.1,0.1,0.3v1.9c0,0.2,0,0.3-0.1,0.3
	c0,0-0.1,0.1-0.3,0.1l0,0.1h2.3l0.2-0.7h-0.1C23.5,8.6,23.4,8.7,23.3,8.8z M25.3,6.1c-0.4,0-0.7,0.1-1,0.4C24.1,6.8,24,7.2,24,7.6
	c0,0.4,0.1,0.8,0.4,1.1c0.3,0.3,0.6,0.4,1,0.4c0.4,0,0.7-0.1,1-0.4c0.3-0.3,0.4-0.6,0.4-1.1c0-0.5-0.2-0.8-0.4-1.1
	C26.1,6.3,25.7,6.1,25.3,6.1z M26,8.6c-0.2,0.2-0.4,0.3-0.6,0.3c-0.3,0-0.5-0.1-0.6-0.3c-0.2-0.2-0.3-0.6-0.3-1c0-0.4,0.1-0.8,0.3-1
	c0.2-0.2,0.4-0.3,0.6-0.3c0.2,0,0.5,0.1,0.6,0.3c0.2,0.2,0.3,0.6,0.3,1C26.3,8.1,26.2,8.4,26,8.6z M28.8,8.3l-1-2.1H27v0.1
	c0.2,0,0.3,0,0.3,0.1c0,0,0.1,0.1,0.1,0.3v1.7c0,0.2,0,0.4-0.1,0.4c0,0.1-0.2,0.1-0.3,0.1c0,0,0,0,0,0v0.1h1V9c-0.2,0-0.3,0-0.3-0.1
	c-0.1-0.1-0.1-0.2-0.1-0.5V6.7l1.1,2.3h0.1l1.1-2.4v1.9c0,0.2,0,0.3-0.1,0.3c0,0-0.1,0.1-0.3,0.1V9h1.2V9c-0.2,0-0.3,0-0.3-0.1
	c0-0.1-0.1-0.1-0.1-0.3V6.7c0-0.2,0-0.2,0.1-0.3c0.1,0,0.2-0.1,0.3-0.1V6.2h-0.8L28.8,8.3z M32.7,8.7c-0.1,0.1-0.3,0.1-0.6,0.1
	c-0.3,0-0.4,0-0.5,0c0,0-0.1-0.1-0.1-0.1v-1h0.7c0.2,0,0.3,0,0.3,0.1c0.1,0.1,0.1,0.2,0.1,0.3h0.1v-1h-0.1c0,0.2-0.1,0.3-0.1,0.3
	c0,0.1-0.2,0.1-0.3,0.1h-0.7v-1c0,0,0-0.1,0-0.1c0,0,0.1,0,0.1,0h0.6c0.2,0,0.4,0,0.5,0.1s0.1,0.2,0.2,0.4H33l0-0.6h-2.3v0.1
	c0.2,0,0.3,0,0.3,0.1c0.1,0,0.1,0.1,0.1,0.3v1.9c0,0.2,0,0.3-0.1,0.3c0,0-0.1,0.1-0.3,0.1l0,0.1H33l0.2-0.7h-0.1
	C33,8.5,32.9,8.7,32.7,8.7z M35.3,6.3c0.2,0,0.3,0,0.3,0.1c0.1,0.1,0.1,0.2,0.1,0.5v1.4l-1.6-2h-0.7v0.1c0.1,0,0.2,0,0.2,0
	c0,0,0.1,0.1,0.2,0.1l0.1,0.1v1.9c0,0.2,0,0.4-0.1,0.4s-0.2,0.1-0.3,0.1h0V9h1V9c-0.2,0-0.3,0-0.3-0.1C34,8.8,34,8.6,34,8.4V6.7
	l1.9,2.3h0.1V6.9c0-0.2,0-0.4,0.1-0.4s0.2-0.1,0.3-0.1V6.2L35.3,6.3L35.3,6.3z M39.2,8.9c0,0-0.1-0.1-0.2-0.3l-1.1-2.4h-0.1L37,8.2
	c-0.1,0.3-0.2,0.5-0.3,0.6c-0.1,0.1-0.1,0.1-0.2,0.1V9v0h0.9V9c-0.1,0-0.2,0-0.2,0C37,8.9,37,8.8,37,8.8c0,0,0-0.1,0-0.1
	c0-0.1,0.1-0.2,0.2-0.5h1.1l0.2,0.4c0,0.1,0,0.1,0.1,0.2c0,0.1,0,0.1,0,0.1c0,0.1,0,0.1-0.1,0.1c0,0-0.1,0-0.2,0V9h1.1V9
	C39.3,8.9,39.2,8.9,39.2,8.9z M37.3,7.9l0.5-1.2l0.5,1.2H37.3z M20,5.8c0.4,0,0.8-0.3,0.8-0.8h16.4c0,0.1,0.1,0.1,0.2,0.1
	c0.1,0,0.2-0.1,0.2-0.2c0-0.1-0.1-0.2-0.2-0.2c-0.1,0-0.2,0.1-0.2,0.1H20.8c0-0.4-0.4-0.8-0.8-0.8c-0.4,0-0.8,0.3-0.8,0.8H3
	c0-0.1-0.1-0.1-0.2-0.1C2.7,4.8,2.7,4.9,2.7,5c0,0.1,0.1,0.2,0.2,0.2C2.9,5.2,3,5.1,3,5.1h16.1C19.2,5.5,19.5,5.8,20,5.8z M20,4.3
	c0.4,0,0.7,0.3,0.7,0.7c0,0.4-0.3,0.7-0.7,0.7c-0.4,0-0.7-0.3-0.7-0.7C19.3,4.6,19.6,4.3,20,4.3z M19.5,5.1
	C19.5,5.1,19.5,5.1,19.5,5.1C19.5,5.2,19.5,5.2,19.5,5.1c0,0.1,0,0.1,0,0.2c0,0,0,0.1,0,0.1c0,0,0.1,0.1,0.1,0.1c0,0,0.1,0,0.1,0.1
	c0,0,0.1,0,0.1,0c0,0,0.1,0,0.1,0c0,0,0,0,0,0c0,0,0,0,0,0c0,0,0,0,0.1,0c0,0,0,0,0,0c0,0,0.1,0,0.1-0.1c0,0,0.1,0,0.1-0.1
	c0,0,0.1-0.1,0.1-0.1c0,0,0-0.1,0-0.1c0,0,0-0.1,0-0.1c0,0,0,0,0,0c0,0,0,0,0,0c0,0,0,0,0,0c0,0,0,0,0,0c0,0,0-0.1-0.1-0.1
	c0,0,0,0,0,0c0,0,0,0.1-0.1,0.1c0,0,0,0,0,0c0,0,0,0,0,0c0,0,0,0,0,0c0,0,0,0.1,0,0.1c0,0,0,0.1-0.1,0.1c0,0-0.1,0-0.1,0
	c0,0-0.1,0-0.1-0.1c0,0,0-0.1,0-0.1c0,0,0-0.1,0-0.1C20,5,20,5,20,4.9c0,0,0,0,0,0c0,0,0-0.1,0-0.1c0,0,0,0,0,0c0,0,0,0,0,0
	c0,0,0,0,0,0c0,0,0,0,0,0c0,0,0.1,0,0.1,0c0,0,0,0,0,0c0,0,0.1,0,0.1,0c0,0,0,0,0,0c0,0,0,0-0.1,0c0,0,0,0,0,0c0,0,0,0,0,0
	c0,0-0.1,0-0.1,0c0,0,0,0,0,0c0,0,0,0,0,0c0,0,0,0,0,0c0,0,0,0,0,0c0,0,0,0,0-0.1c0,0,0,0,0,0c0,0,0,0,0,0c0,0,0,0,0,0c0,0,0,0,0,0
	c0,0,0,0,0,0c0,0,0,0,0-0.1c0,0,0-0.1,0-0.1c0,0-0.1,0-0.1,0c0,0-0.1,0-0.1,0.1c0,0,0,0.1,0,0.1c0,0,0,0,0,0c0,0,0,0,0,0
	c0,0,0,0,0,0c0,0,0,0,0,0c0,0,0,0,0,0c0,0,0,0,0,0.1c0,0,0,0,0,0c0,0,0,0,0,0c0,0,0,0,0,0c0,0,0,0,0,0c-0.1,0-0.1,0-0.2,0
	c0,0,0,0,0,0c0,0-0.1,0-0.1,0c0,0,0,0,0,0c0,0,0,0,0.1,0c0,0,0,0,0,0c0,0,0,0,0.1,0c0,0,0.1,0,0.1,0c0,0,0,0,0,0c0,0,0,0,0,0
	c0,0,0,0,0,0c0,0,0,0,0,0c0,0,0,0.1,0,0.1c0,0,0,0.1,0,0.1c0,0,0,0.1,0,0.1c0,0,0,0.1,0,0.1c0,0,0,0,0,0.1c0,0-0.1,0-0.1,0
	c0,0-0.1,0-0.1,0c0,0,0,0,0,0C19.6,5.3,19.6,5.3,19.5,5.1C19.6,5.2,19.6,5.2,19.5,5.1C19.6,5.1,19.6,5.1,19.5,5.1c0.1,0,0.1,0,0.1,0
	c0,0,0,0,0,0C19.6,5.1,19.6,5.1,19.5,5.1c0.1-0.1,0.1-0.1,0-0.1c0,0,0,0,0,0C19.5,5.1,19.5,5.1,19.5,5.1C19.5,5.1,19.5,5.1,19.5,5.1
	C19.5,5.1,19.5,5.1,19.5,5.1z M19.9,4.5C19.9,4.4,19.9,4.4,19.9,4.5c0.1-0.1,0.1,0,0.1,0C20,4.5,20,4.5,19.9,4.5
	C19.9,4.5,19.9,4.5,19.9,4.5z"/>
</svg>
