<?xml version="1.0" encoding="utf-8"?>
<!-- Generator: Adobe Illustrator 24.0.1, SVG Export Plug-In . SVG Version: 6.00 Build 0)  -->
<svg version="1.1" id="Layer_1" xmlns="http://www.w3.org/2000/svg" xmlns:xlink="http://www.w3.org/1999/xlink" x="0px" y="0px"
	 viewBox="0 0 540.8 103.2" style="enable-background:new 0 0 540.8 103.2;" xml:space="preserve">
<style type="text/css">
	.st0{fill:#AF0404;}
</style>
<path class="st0" d="M71,28.2c-1.4-0.1-2.4-0.4-2.8-0.8c-0.7-0.6-1-2-1-4.2V7.6l17.6,21.8h0.7v-21c0-2.1,0.1-3.5,0.7-4.1
	c0.6-0.6,1.5-1,3.1-1.1V2.6h-9.4v0.7c1.4,0.1,2.4,0.4,2.8,0.8c0.7,0.6,1,2,1,4.2v13.3l-15.4-19h-6.7v0.7c0.8,0,1.4,0.1,1.8,0.3
	c0.4,0.1,1,0.6,1.5,1.3l0.7,0.7V23c0,2.1-0.3,3.5-0.7,4.1c-0.6,0.6-1.5,1-3.2,1.1h-0.1v0.7H71V28.2z M98.5,28c-1,0-1.7-0.1-2-0.3
	c-0.6-0.3-0.8-0.7-0.8-1.4c0-0.3,0-0.7,0.3-1.4c0.1-0.6,0.8-2.1,1.8-4.8h10.5l1.7,3.9c0.3,0.6,0.4,1.1,0.6,1.5
	c0.1,0.4,0.1,0.8,0.1,1c0,0.6-0.3,1-0.6,1.1c-0.4,0.1-1.1,0.3-2.2,0.4V29H118v-0.7c-0.8-0.1-1.5-0.3-2-0.7c-0.4-0.4-0.8-1.3-1.5-2.8
	l-9.9-22.5h-0.8l-8.3,19.4c-1.3,2.9-2.1,4.6-2.7,5.3c-0.4,0.6-1.3,1-2.2,1.1v0.7l8-0.1V28z M103,7.7l4.6,10.9h-9.1L103,7.7z
	 M117.6,5.2c0.8-0.7,2.2-1,4.5-1h2.2v19.9c0,1.7-0.1,2.8-0.6,3.2c-0.4,0.4-1.4,0.7-3.1,0.8v0.4h11.6v-0.7c-1.7-0.1-2.8-0.4-3.2-0.7
	c-0.4-0.3-0.7-1.3-0.7-2.8V4.1h2.2c2.2,0,3.8,0.3,4.5,1c0.7,0.7,1.4,2.1,1.8,4.2h1l-0.3-6.7H115l-0.3,6.9h1
	C116.2,7.2,116.7,5.9,117.6,5.2z M150.9,27.9c-1.5-0.1-2.7-0.4-3.1-0.7c-0.4-0.3-0.7-1.3-0.7-2.8V6.8c0-1.4,0.3-2.4,0.7-2.8
	c0.4-0.4,1.4-0.6,3.1-0.7V2.6h-11.8v0.8c1.5,0,2.7,0.3,3.1,0.7c0.4,0.4,0.7,1.4,0.7,2.8v17.8c0,1.5-0.3,2.5-0.7,2.8
	c-0.4,0.3-1.4,0.6-3.1,0.7v0.4h11.8V27.9z M166,29.3c3.5,0,6.4-1.1,9-3.4c2.7-2.5,4.1-5.9,4.1-10.2c0-4.2-1.3-7.7-3.9-10.2
	C172.5,3.1,169.6,2,166,2c-3.6,0-6.7,1.1-9.1,3.5c-2.7,2.5-3.9,6-3.9,10.1s1.3,7.4,3.8,9.9C159.1,28,162.2,29.3,166,29.3z
	 M159.9,6.2c1.7-2,3.6-2.9,6-2.9c2.4,0,4.3,1,6,2.9c1.7,2,2.5,5,2.5,9.4s-0.8,7.4-2.5,9.4c-1.7,2-3.6,2.9-6,2.9c-2.4,0-4.3-1-6-2.9
	s-2.5-5-2.5-9.5C157.4,11.2,158.3,8.2,159.9,6.2z M190.3,28.2c-1.4-0.1-2.4-0.4-2.8-0.8c-0.7-0.6-1-2-1-4.2V7.6l17.6,21.8h0.7v-21
	c0-2.1,0.1-3.5,0.7-4.1c0.6-0.6,1.5-1,3.1-1.1V2.6h-9.4v0.7c1.4,0.1,2.4,0.4,2.8,0.8c0.7,0.6,1,2,1,4.2v13.3l-15.4-19h-6.7v0.7
	c0.8,0,1.4,0.1,1.8,0.3c0.4,0.1,1,0.6,1.5,1.3l0.6,0.7V23c0,2.1-0.3,3.5-0.7,4.1c-0.6,0.6-1.5,1-3.2,1.1v0.7h9.4V28.2z M217.9,28.2
	c-1,0-1.7-0.1-2-0.3c-0.6-0.3-0.8-0.7-0.8-1.4c0-0.4,0.1-0.8,0.3-1.4c0.1-0.6,0.8-2.1,1.8-4.8h10.5l1.5,3.8c0.3,0.6,0.4,1.1,0.6,1.5
	c0.1,0.4,0.1,0.8,0.1,1c0,0.6-0.3,1-0.6,1.1s-1.1,0.3-2.2,0.4V29h10.1v-0.7c-0.8-0.1-1.5-0.3-2-0.7c-0.4-0.4-0.8-1.3-1.5-2.8
	l-9.9-22.5h-0.8l-8.3,19.4c-1.3,2.9-2.1,4.6-2.7,5.3c-0.4,0.6-1.3,1-2.2,1.1v0.7h8.1V28.2z M222.2,7.7l4.6,10.9h-9.2L222.2,7.7z
	 M261.7,21.9h-1c-1.1,2.4-2.4,3.9-3.6,4.5c-1.3,0.6-3.6,0.8-7.1,0.8c-0.8,0-1.4,0.1-1.8,0c-0.4-0.1-0.7-0.1-1-0.1
	c-0.6,0-0.7-0.3-1-0.4s-0.3-0.6-0.3-1V6.5c0-1.3,0.1-2.1,0.7-2.5c0.6-0.4,1.5-0.6,2.9-0.7V2.6h-11.2v0.7c1.4,0.1,2.4,0.4,2.8,0.8
	c0.4,0.4,0.7,1.4,0.7,2.8v17.6c0,1.5-0.3,2.4-0.7,2.8c-0.4,0.4-1.4,0.7-2.8,0.8v0.6h21.4L261.7,21.9z M274.9,29.4
	c0-0.3,0.1-0.6,0.3-0.8c0.1-0.3,0.6-0.4,1-0.4c0.1,0,0.8,0.3,2.2,0.7c1.4,0.4,2.7,0.7,3.9,0.7c2.4,0,4.5-0.7,6-2.1
	c1.5-1.4,2.4-3.1,2.4-5.2c0-1.5-0.4-2.9-1.3-4.1c-0.8-1.3-2.4-2.4-4.6-3.8l-3.5-2.1c-1.4-0.8-2.4-1.7-2.9-2.4c-0.7-0.7-1-1.7-1-2.7
	c0-1.1,0.4-2,1.3-2.7c0.7-0.7,1.7-1,2.8-1c1.4,0,2.8,0.6,4.2,1.5c1.4,1,2.4,2.8,3.1,5.3h1l-0.8-8.4h-0.8c-0.1,0.4-0.3,0.7-0.4,1
	c-0.1,0.1-0.4,0.3-1,0.3c-0.3,0-1-0.3-2.2-0.7c-1.3-0.4-2.4-0.7-3.2-0.7c-2.2,0-4.1,0.6-5.3,2c-1.3,1.4-2,3.1-2,5
	c0,1.5,0.6,2.9,1.7,4.2c0.7,0.6,1.5,1.3,2.5,2l3.4,2.1c2,1.3,3.2,2.2,3.8,2.8c1,1,1.4,2.1,1.4,3.4c0,1.4-0.4,2.5-1.4,3.4
	c-0.8,0.8-2,1.3-3.2,1.3c-2.4,0-4.3-1-5.9-2.8c-1-1.1-1.7-2.5-2.4-4.3L273,21l1.1,8.4H274.9z M305.2,28.3c-1.4-0.1-2.4-0.4-2.8-0.8
	c-0.4-0.4-0.7-1.4-0.7-2.8v-8.3h12v7.7c0,1.7-0.1,2.8-0.6,3.2c-0.4,0.4-1.4,0.7-2.9,0.8v0.7h11.1v-0.7c-1.4-0.1-2.4-0.4-2.8-0.8
	c-0.4-0.4-0.7-1.4-0.7-2.8V6.9c0-1.4,0.3-2.4,0.7-2.8c0.4-0.4,1.4-0.7,2.8-0.8V2.6h-11.1v0.7c1.4,0.1,2.4,0.4,2.8,0.8
	c0.4,0.4,0.7,1.4,0.7,2.8v7.7h-12V6.9c0-1.4,0.3-2.4,0.7-2.8c0.4-0.4,1.4-0.7,2.8-0.8V2.6h-11.1v0.7c1.4,0.1,2.4,0.4,2.8,0.8
	c0.4,0.4,0.7,1.4,0.7,2.8v17.2c0,1.8-0.1,2.8-0.6,3.2c-0.4,0.4-1.4,0.7-2.9,0.8V29h11.1V28.3z M325.3,27.3c-0.3,0.4-1.3,0.7-2.8,0.8
	l0.1,0.7h11.1v-0.7c-1.5-0.1-2.5-0.4-2.9-0.8c-0.4-0.4-0.7-1.4-0.7-2.8v-7.8l1.7-0.1l9.8,12.3h6.4v-0.7c-0.8-0.1-1.4-0.3-2-0.6
	c-0.6-0.3-1-0.8-1.5-1.4l-8.1-10.1c2.2-0.3,4.1-1,5.3-2.1c1.3-1.1,2-2.7,2-4.6c0-2.9-1.4-4.9-4.3-6c-1.5-0.6-3.5-0.8-5.7-0.8h-11.1
	v0.7c1.4,0.1,2.4,0.4,2.8,0.8c0.3,0.4,0.6,1.4,0.6,2.8v17.2C325.9,25.8,325.7,26.9,325.3,27.3z M330.1,5.5c0-0.7,0-1,0.3-1.3
	c0.3-0.1,1-0.3,2.1-0.3c1.7,0,3.1,0.3,4.1,0.7c1.8,0.8,2.8,2.5,2.8,4.8c0,2.4-1.1,4.1-3.2,4.9c-1.1,0.6-3.2,0.8-6,1V5.5z
	 M352.5,27.3c-0.6,0.4-1.5,0.7-3.2,0.8h0.1v0.4h11.8v-0.7c-1.5-0.1-2.7-0.4-3.1-0.7c-0.4-0.3-0.7-1.3-0.7-2.8V6.8
	c0-1.4,0.3-2.4,0.7-2.8c0.4-0.4,1.4-0.6,3.1-0.7V2.6h-11.8v0.8c1.5,0,2.7,0.3,3.1,0.7c0.4,0.4,0.7,1.4,0.7,2.8v17.6
	C353.2,26.1,353,26.9,352.5,27.3z M371.6,28c-1.4-0.1-2.4-0.4-2.8-0.8c-0.7-0.6-1-2-1-4.2V7.5l17.6,22h0.7v-21
	c0-2.1,0.1-3.5,0.7-4.1c0.6-0.6,1.5-1,3.1-1.1V2.6h-9.4v0.7c1.4,0.1,2.4,0.4,2.8,0.8c0.7,0.6,1,2,1,4.2v13.3L369,2.6h-6.7v0.7
	c0.8,0,1.4,0.1,1.8,0.3c0.4,0.1,1,0.6,1.5,1.3l0.6,0.7V23c0,2.1-0.1,3.5-0.7,4.1c-0.6,0.6-1.5,1-3.2,1.1v0.6h9.4V28z M414.3,22.3
	h-1.1c-1.1,2.4-2.2,3.8-3.5,4.3c-1.4,0.6-3.4,0.8-6,0.8c-2.5,0-3.9-0.1-4.5-0.3c-0.4-0.1-0.7-0.6-0.7-1.4V16h6.2
	c1.7,0,2.8,0.1,3.2,0.7c0.4,0.6,0.8,1.5,1.1,3.1h1v-9.2h-1c-0.3,1.5-0.7,2.5-1.1,3.1c-0.4,0.4-1.5,0.7-3.2,0.7h-6.2V5.5
	c0-0.6,0-1,0.1-1.1c0.1-0.1,0.6-0.3,1.1-0.3h5.5c2.2,0,3.8,0.3,4.5,0.8c0.7,0.4,1.3,1.7,1.5,3.4h1.1l-0.1-5.7h-21.1v0.7
	c1.4,0.1,2.4,0.4,2.8,0.8c0.6,0.4,0.7,1.4,0.7,2.8v17.6c0,1.5-0.3,2.4-0.7,2.8c-0.4,0.4-1.4,0.7-2.8,0.8h-0.1V29h21.5L414.3,22.3z
	 M439.1,29.3c3.5,0,6.4-1.1,9-3.4c2.7-2.5,4.1-5.9,4.1-10.2c0-4.2-1.3-7.7-3.9-10.2c-2.5-2.4-5.5-3.5-9.1-3.5
	c-3.6,0-6.7,1.1-9.1,3.5c-2.7,2.5-4.1,6-3.9,10.1c0,4.1,1.3,7.4,3.8,9.9C432.2,28,435.3,29.3,439.1,29.3z M432.9,6.2
	c1.7-2,3.6-2.9,6-2.9c2.4,0,4.3,1,6,2.9c1.7,2,2.5,5,2.5,9.4s-0.8,7.4-2.5,9.4c-1.7,2-3.6,2.9-6,2.9c-2.4,0-4.3-1-6-2.9
	s-2.4-5-2.5-9.5C430.4,11.2,431.2,8.2,432.9,6.2z M456.8,27.3c-0.4,0.4-1.4,0.7-2.9,0.8L454,29h11.1v-0.7c-1.5-0.1-2.5-0.4-2.9-0.8
	c-0.4-0.4-0.7-1.4-0.7-2.8V16h5.7c1.7,0,2.8,0.1,3.2,0.7c0.4,0.6,0.8,1.5,1.1,3.1h1v-9.2h-1c-0.3,1.5-0.7,2.5-1.1,3.1
	c-0.4,0.4-1.5,0.7-3.2,0.7h-5.7V5.5c0-0.6,0.1-1,0.3-1.1s0.4-0.3,1-0.3h5.5c2.2,0,3.8,0.3,4.5,0.7c0.7,0.6,1.3,1.7,1.5,3.5h1
	L475,2.6h-21.1v0.7c1.4,0.1,2.4,0.4,2.8,0.8c0.6,0.4,0.7,1.4,0.7,2.8v17.2C457.4,25.9,457.2,26.9,456.8,27.3z M19.8,78.5l-5.2-3.2
	c-2-1.3-3.4-2.4-4.3-3.5c-1-1.1-1.4-2.4-1.4-3.9c0-1.8,0.6-3.1,1.8-4.1c1.3-1,2.7-1.4,4.3-1.4c2.1,0,4.2,0.7,6.3,2.2
	c2.1,1.5,3.6,4.2,4.6,8h1.4l-1.3-12.7h-1.3c-0.1,0.7-0.4,1.1-0.7,1.5c-0.3,0.4-0.8,0.6-1.5,0.6c-0.3,0-1.3-0.3-3.2-1s-3.5-1-4.9-1
	c-3.4,0-6,1-8,2.9c-2,2.1-2.9,4.5-2.9,7.6c0,2.4,0.8,4.5,2.5,6.3c0.8,1,2.1,2,3.6,2.9l5,3.2c2.9,1.8,4.9,3.2,5.7,4.1
	c1.4,1.4,2.1,3.1,2.1,5c0,2.1-0.7,3.8-2.1,5c-1.4,1.3-2.9,1.8-4.9,1.8c-3.5,0-6.4-1.4-8.8-4.2c-1.3-1.7-2.5-3.8-3.5-6.4H2l1.7,12.7
	h1.4c0-0.6,0.1-1,0.4-1.4C5.8,99.2,6.2,99,6.9,99c0.3,0,1.5,0.4,3.5,1.1c2,0.7,3.9,1,5.7,1c3.8,0,6.7-1,9.1-3.1
	c2.4-2.1,3.5-4.8,3.5-7.8c0-2.2-0.7-4.3-2-6C25.4,82.4,23,80.5,19.8,78.5z M69.3,94.1L54.5,60.2h-1.1L40.9,89.4
	c-1.8,4.5-3.2,7.1-3.9,8.1c-0.8,1-2,1.5-3.5,1.7v1.3h11.9v-1.1c-1.4-0.1-2.2-0.3-2.8-0.6c-0.8-0.4-1.3-1.1-1.3-2.1
	c0-0.6,0.1-1.3,0.4-2.1c0.3-0.8,1.3-3.2,2.8-7.1h15.5l2.4,5.7c0.4,0.8,0.7,1.7,0.8,2.4c0.1,0.7,0.3,1.3,0.3,1.5c0,1-0.1,1.4-0.7,1.7
	c-0.6,0.3-1.7,0.4-3.4,0.6v1.1h15.1v-1.1c-1.4-0.3-2.4-0.6-2.9-1.1C71.1,97.7,70.3,96.3,69.3,94.1z M45.5,85.1l6.9-16.5l6.9,16.5
	H45.5z M76.6,61.9c2.5,0.1,4.1,0.6,4.8,1.1c0.7,0.6,1.1,2,1.1,4.2v26.6c0,2.4-0.4,3.8-1.1,4.3c-0.7,0.6-2.4,1-4.8,1.1v1.1h17.6v-1.1
	c-2.5-0.1-4.1-0.6-4.8-1.1c-0.7-0.6-1.1-2.1-1.1-4.3V67.2c0-2.1,0.4-3.6,1.1-4.2c0.7-0.6,2.4-1,4.8-1.1v-1.1H76.6V61.9z M123.7,62.2
	c2.1,0.1,3.5,0.6,4.2,1.3c1,1,1.4,3.1,1.4,6.3v19.7l-23.1-28.7H96v1.1c1.3,0,2.2,0.1,2.8,0.4c0.6,0.3,1.4,1,2.2,2l0.8,1v26.3
	c0,3.2-0.3,5.2-1,6s-2.2,1.4-4.8,1.7h0.3v1.3h14v-1.1c-2.2-0.1-3.6-0.6-4.2-1.3c-1-1.1-1.4-3.2-1.4-6.4V68.5l26.3,32.7h1V69.9
	c0-3.1,0.4-5.2,1.1-6c0.7-0.8,2.2-1.4,4.5-1.7V61h-14V62.2z M139.8,60.9l-0.3,10.4h1.4c0.6-3.2,1.4-5.3,2.7-6.3
	c1.1-1,3.4-1.4,6.7-1.4h3.5v29.8c0,2.5-0.4,4.1-1,4.8c-0.7,0.7-2.2,1.1-4.8,1.3v1.1h17.3v-1.1c-2.5-0.1-4.1-0.6-4.8-1.1
	c-0.7-0.6-1.1-2.1-1.1-4.3V63.4h3.4c3.5,0,5.7,0.4,6.9,1.4c1.1,0.8,2,2.9,2.7,6.2h1.4l-0.3-10.1H139.8z M205.3,60.8h-15.7v1.1
	c2.2,0.1,3.5,0.7,4.2,1.3c0.7,0.6,1,2,1,4.1v25.9c0,2.5-0.3,4.1-0.8,4.8c-0.6,0.7-2,1.1-4.2,1.4h-0.3v1h16.6v-1.1
	c-2.4-0.1-3.9-0.6-4.6-1.1c-0.7-0.6-1-2-1-4.2V83h4.8c4.5,0,8.3-1,11.2-2.8c2.9-1.8,4.5-4.8,4.5-8.8c0-3.2-1.4-5.7-4.1-7.7
	C214.2,61.7,210.3,60.8,205.3,60.8z M210.3,79.8c-1.5,0.7-3.6,1.1-6.4,1.1h-1c-0.3,0-1,0-2.1-0.1V65.2c0-0.8,0.1-1.4,0.4-1.7
	s1-0.4,2.2-0.4c2.7,0,4.8,0.4,6.4,1.1c3.2,1.4,4.8,3.9,4.8,7.6C214.6,75.7,213.1,78.4,210.3,79.8z M247,61.9
	c2.2,0.3,3.6,0.6,4.3,1.3c0.7,0.7,1,2.1,1,4.2v11.6h-18V67.3c0-2.2,0.3-3.5,1-4.2c0.6-0.7,2-1.1,4.2-1.3v-1.1h-16.5v1.1
	c2.1,0.3,3.5,0.6,4.2,1.3c0.7,0.7,1,2.1,1,4.2v25.9c0,2.5-0.3,4.2-0.8,4.8c-0.6,0.6-2,1-4.3,1.3v1.3h16.5v-1.1
	c-2.1-0.1-3.5-0.6-4.2-1.1c-0.7-0.7-1-2.1-1-4.2V81.7h17.9v11.6c0,2.5-0.3,4.2-0.8,4.8c-0.6,0.6-2,1-4.3,1.3v1.1h16.5v-1.1
	c-2.1-0.3-3.5-0.6-4.2-1.3c-0.7-0.7-1-2.1-1-4.2V67.3c0-2.2,0.3-3.5,1-4.2c0.6-0.7,2-1.1,4.2-1.3v-1.1H247V61.9z M266,61.9
	c2.5,0.1,4.1,0.6,4.8,1.1c0.7,0.6,1.1,2,1.1,4.2v26.6c0,2.4-0.4,3.8-1.1,4.3c-0.7,0.6-2.4,1-4.8,1.1v1.1h17.6v-1.1
	c-2.5-0.1-4.1-0.6-4.8-1.1c-0.7-0.6-1.1-2.1-1.1-4.3V67.2c0-2.1,0.4-3.6,1.1-4.2c0.7-0.6,2.4-1,4.8-1.1v-1.1H266V61.9z M313.4,96.7
	c-1.8,0.8-5.5,1.3-10.8,1.3h-2.8c-0.4,0-1-0.1-1.4-0.1c-0.8-0.1-1.3-0.3-1.5-0.7c-0.1-0.4-0.3-0.8-0.3-1.5V66.9c0-2,0.4-3.4,1.1-3.9
	c0.8-0.7,2.2-1,4.5-1.1v-1.1h-16.8v1.1c2.2,0.1,3.6,0.6,4.3,1.3c0.7,0.7,1,2.1,1,4.2v26.6c0,2.2-0.3,3.6-1,4.2
	c-0.6,0.6-2,0.8-4.2,1.1l-0.1,1.1h32l2.9-10.4h-1.5C317.1,93.6,315.2,95.9,313.4,96.7z M342.7,60.1c-5.5,0-9.9,1.8-13.6,5.3
	c-4.1,3.8-6,9-6,15.2c0,6,1.8,10.9,5.6,14.8c3.8,3.8,8.4,5.7,14,5.7c5.3,0,9.8-1.8,13.4-5.2c4.1-3.8,6.2-9,6.2-15.4
	c0-6.3-2.1-11.5-6-15.2C352.6,61.9,348,60.1,342.7,60.1z M351.6,94.8c-2.4,2.9-5.5,4.3-9,4.3c-3.6,0-6.6-1.5-9.1-4.5
	c-2.5-3.1-3.8-7.7-3.8-13.9c0-6.3,1.3-11.1,3.8-14c2.5-2.9,5.5-4.5,9.1-4.5c3.5,0,6.4,1.4,9,4.3c2.5,2.9,3.8,7.7,3.8,14.1
	C355.4,87.2,354,91.8,351.6,94.8z M390.8,90.6l-13.7-29.7h-11.8V62c2.4,0.1,3.9,0.4,4.6,1.1c0.7,0.7,1,2.1,1,4.2v24.2
	c0,3.2-0.4,5.2-1.1,6c-0.7,0.8-2.2,1.4-4.8,1.7c0,0,0.3,0,0.3,0v1.4h14v-1.1c-2.2-0.1-3.6-0.6-4.2-1.3c-1-1.1-1.4-3.2-1.4-6.4V68
	l15,32.6h0.8l15.2-34v26.7c0,2.5-0.3,4.1-0.8,4.8c-0.6,0.7-2.1,1.1-4.5,1.3v1.1h16.6v-1.1c-2.2-0.3-3.6-0.7-4.3-1.3
	c-0.7-0.7-1-2-1-4.2V67.5c0-2.1,0.3-3.5,1-4.2c0.7-0.7,2.1-1.1,4.3-1.3v-1.1h-11.9L390.8,90.6z M445.9,96.4c-2,0.8-4.9,1.3-9,1.3
	c-3.8,0-6,0-6.7-0.3c-0.7-0.3-1.1-1-1.1-2.1V80.6h9.2c2.5,0,4.2,0.3,4.9,1.1c0.7,0.8,1.3,2.2,1.7,4.6h1.4V72.7h-1.4
	c-0.4,2.4-1,3.9-1.7,4.6c-0.7,0.7-2.4,1.1-4.9,1.1h-9.2V65.1c0-0.7,0-1.3,0.3-1.5c0.3-0.3,0.8-0.4,1.7-0.4h8.1
	c3.5,0,5.7,0.4,6.7,1.1c1,0.7,1.7,2.4,2.2,5h1.5l-0.1-8.5h-31.6v1.1c2.2,0.1,3.6,0.6,4.3,1.3c0.7,0.7,1,2.1,1,4.2v26.6
	c0,2.2-0.3,3.6-1,4.2c-0.6,0.6-2,0.8-4.2,1.1l-0.1,0.8h32.2l2.7-10.1h-1.7C449.5,93.4,447.9,95.6,445.9,96.4z M482,62.2
	c2.1,0.1,3.6,0.6,4.2,1.3c0.8,1,1.4,3.1,1.4,6.3v19.6l-22.9-28.5h-10.2v1.1c1.3,0,2.2,0.1,2.8,0.4c0.6,0.3,1.4,1,2.2,2l0.8,1v26.3
	c0,3.2-0.4,5.2-1.1,6c-0.7,0.8-2.2,1.4-4.8,1.7h0.3v1.3h14v-1.1c-2.2-0.1-3.6-0.6-4.2-1.3c-1-1.1-1.4-3.2-1.4-6.4V68.5l26.3,32.7h1
	V69.9c0-3.1,0.4-5.2,1.1-6c0.7-0.8,2.2-1.4,4.5-1.7V61h-14V62.2z M535.9,98.3c-0.6-0.6-1.4-2-2.4-4.2l-14.8-33.9h-1.1l-12.5,29.2
	c-1.8,4.5-3.2,7.1-3.9,8.1c-0.8,1-2,1.5-3.5,1.7v1.1v0.1h11.9v-1.1c-1.4-0.1-2.2-0.3-2.8-0.6c-0.8-0.4-1.3-1.1-1.3-2.1
	c0-0.6,0.1-1.3,0.4-2.1c0.3-0.8,1.3-3.2,2.8-7.1h15.7l2.4,5.7c0.4,0.8,0.7,1.7,0.8,2.4c0.1,0.7,0.3,1.3,0.3,1.5c0,1-0.1,1.4-0.7,1.7
	c-0.4,0.3-1.7,0.4-3.4,0.6v1.1h15v-1.1C537.4,99.1,536.4,98.8,535.9,98.3z M509.7,85.1l6.9-16.4l6.9,16.4H509.7z M267.5,55.4
	c6,0,10.9-4.8,11.3-10.8h229c0.4,1.1,1.3,2.1,2.5,2.1c1.5,0,2.8-1.3,2.8-2.8c0-1.5-1.1-2.8-2.8-2.8c-1.3,0-2.1,1-2.5,2.1h-229
	c-0.4-6-5.3-10.8-11.3-10.8c-6,0-10.9,4.8-11.3,10.8H30.4c-0.3-1.3-1.3-2.1-2.5-2.1c-1.5,0-2.8,1.3-2.8,2.8c0,1.5,1.3,2.8,2.8,2.8
	c1.3,0,2.1-1,2.5-2.1h225.8C256.6,50.6,261.5,55.4,267.5,55.4z M267.5,33.9c5.6,0,10.1,4.5,10.1,10.1c0,5.6-4.5,10.1-10.1,10.1
	c-5.6,0-10.1-4.5-10.1-10.1C257.5,38.4,261.9,33.9,267.5,33.9z M261,45.9c0.1,0,0.2,0,0.2,0.2c0,0.2,0,0.4,0,0.6
	c0.1,0.5,0.2,1.1,0.4,1.6c0.2,0.4,0.4,0.8,0.7,1.2c0.4,0.5,0.9,1,1.4,1.3c0.4,0.3,0.9,0.5,1.4,0.7c0.5,0.2,0.9,0.3,1.4,0.5
	c0.4,0.1,0.7,0.2,1,0.6c0.1,0.1,0.1,0.1,0.2,0c0,0,0.1-0.1,0.1-0.1c0.2-0.2,0.5-0.3,0.8-0.4c0.2,0,0.3-0.1,0.5-0.1
	c0.6-0.2,1.2-0.4,1.7-0.7c0.5-0.3,0.9-0.5,1.3-0.9c0.5-0.4,0.9-1,1.2-1.5c0.3-0.5,0.4-1,0.6-1.5c0.1-0.4,0.1-0.8,0.1-1.1
	c0-0.2,0-0.2,0.2-0.2c0.1,0,0.3,0,0.4,0c0.1,0,0.1,0,0.1-0.1c0-0.1,0-0.1,0-0.1c-0.3-0.5-0.6-1-0.9-1.5c-0.1-0.1-0.1-0.1-0.2,0
	c-0.3,0.5-0.6,1-0.9,1.5c-0.1,0.1,0,0.2,0.1,0.2c0.1,0,0.3,0,0.4,0c0.1,0,0.2,0,0.1,0.2c-0.1,0.6-0.3,1.2-0.6,1.7
	c-0.2,0.4-0.5,0.7-0.9,1c-0.6,0.4-1.2,0.6-1.9,0.6c-0.7-0.1-1.1-0.5-1.2-1.2c-0.1-0.5-0.1-1.1-0.2-1.6c-0.1-0.6-0.1-1.1-0.1-1.7
	c-0.1-0.8-0.1-1.5-0.1-2.3c0,0,0-0.1,0-0.1c0-0.5,0-0.9,0-1.4c0,0,0-0.1,0.1-0.1c0.1,0,0.2-0.1,0.2-0.1c0,0,0.1,0,0.1-0.1
	c0.2,0,0.3,0,0.5,0c0.6-0.1,1.3,0,1.9,0c0,0,0.1,0,0.1,0c0.4,0.3,0.9,0.2,1-0.3c0.1-0.2,0-0.5-0.2-0.7c-0.3-0.2-0.5-0.2-0.8,0
	c-0.1,0.1-0.2,0.1-0.4,0.1c-0.1,0-0.2,0-0.3,0c-0.6,0-1.3,0-1.9-0.1c-0.1,0-0.2,0-0.2-0.1c0-0.1-0.1-0.1-0.2-0.1
	c-0.1,0-0.1,0-0.1-0.1c0-0.1,0-0.2,0-0.3c0-0.2,0-0.5,0-0.7c0-0.1,0-0.1,0.1-0.1c0.1,0,0.2-0.1,0.2-0.2c0,0,0-0.1,0-0.1
	c0.1-0.1,0.1-0.3,0-0.4c0-0.1,0-0.1,0-0.1c0.2-0.2,0.4-0.4,0.5-0.7c0.2-0.5,0-1-0.3-1.4c-0.4-0.4-0.9-0.6-1.5-0.5
	c-0.6,0.1-1.1,0.6-1.2,1.2c-0.1,0.6,0.1,1,0.5,1.4c0.1,0.1,0.1,0.1,0,0.2c-0.1,0.1-0.1,0.2,0,0.3c0.1,0.1,0.1,0.1,0.1,0.2
	c0,0.1,0.1,0.1,0.2,0.1c0.1,0,0.1,0,0.1,0.1c0,0.3,0,0.7,0,1c0,0.1,0,0.1-0.1,0.1c-0.1,0-0.1,0-0.2,0.1c0,0.1-0.1,0.1-0.2,0.1
	c-0.1,0-0.1,0-0.2,0c-0.7,0.1-1.5,0.1-2.2,0c0,0-0.1,0-0.1,0c-0.4-0.3-0.9-0.2-1,0.3c-0.1,0.2,0.1,0.5,0.3,0.7
	c0.3,0.2,0.5,0.1,0.8-0.1c0,0,0.1-0.1,0.1-0.1c0.3,0,0.7,0,1,0c0.4,0,0.9,0,1.3,0.1c0.1,0,0.2,0,0.2,0.1c0,0.1,0.1,0.1,0.1,0.1
	c0.1,0,0.1,0,0.1,0.1c0,0.1,0,0.2,0,0.4c0,0.6,0,1.2,0,1.7c0,0.6,0,1.2-0.1,1.8c0,0.4,0,0.8-0.1,1.2c-0.1,0.6-0.1,1.3-0.2,1.9
	c0,0.3-0.2,0.6-0.4,0.8c-0.3,0.3-0.7,0.4-1.1,0.4c-0.4,0-0.7-0.1-1-0.3c-0.2-0.1-0.5-0.2-0.7-0.4c-0.5-0.4-0.9-1-1.1-1.7
	c-0.1-0.3-0.2-0.6-0.2-1c0-0.1,0-0.2,0.1-0.2c0.1,0,0.3,0,0.4,0c0.1,0,0.2-0.1,0.1-0.2c-0.1-0.2-0.2-0.3-0.3-0.5
	c-0.2-0.3-0.4-0.7-0.6-1c-0.1-0.1-0.1-0.1-0.2,0c-0.3,0.5-0.6,1-0.9,1.5c-0.1,0.1,0,0.2,0.1,0.2C260.7,45.9,260.8,45.9,261,45.9z
	 M266.6,36.6c0-0.5,0.4-0.9,0.9-0.9c0.5,0,0.9,0.4,0.9,0.9c0,0.4-0.4,0.9-0.9,0.9C267,37.6,266.6,37.1,266.6,36.6z"/>
</svg>
