<?xml version="1.0" encoding="utf-8"?>
<!-- Generator: Adobe Illustrator 24.0.1, SVG Export Plug-In . SVG Version: 6.00 Build 0)  -->
<svg version="1.1" id="Layer_1" xmlns="http://www.w3.org/2000/svg" xmlns:xlink="http://www.w3.org/1999/xlink" x="0px" y="0px"
	 viewBox="0 0 215.61 75.24" style="enable-background:new 0 0 215.61 75.24;" xml:space="preserve">
<style type="text/css">
	.st0{fill:#FFFFFF;}
</style>
<g>
	<path class="st0" d="M79.73,49.3h2.68v8.54C83.72,56.59,85,56,86.55,56c2.92,0,4.73,1.79,4.73,4.73v8.9h-2.71v-8.21
		c0-2.18-0.86-3.19-2.8-3.19c-1.4,0-2.41,0.51-3.36,1.73v9.67h-2.68V49.3z"/>
	<path class="st0" d="M101.28,69.93c-4.29,0-6.97-2.92-6.97-7.23c0-3.99,2.65-6.76,6.58-6.76c3.81,0,6.31,2.65,6.31,7.06v0.39H97.14
		c0.15,2.56,1.76,4.05,4.29,4.05c1.7,0,3.54-0.63,5.54-1.91v2.68C105.18,69.37,103.3,69.93,101.28,69.93 M104.26,61.47
		c-0.18-1.96-1.55-3.24-3.39-3.24c-2.05,0-3.33,1.13-3.72,3.24H104.26z"/>
	<path class="st0" d="M114.91,69.87c-2.47,0-3.84-1.28-3.84-3.25c0-1.9,1.49-3.33,4.43-4.32l3.19-1.07
		c0.03-0.21,0.03-0.39,0.03-0.57c0-1.61-0.74-2.26-2.53-2.26c-1.49,0-3.1,0.63-4.7,1.88v-2.65c1.4-1.13,3.16-1.7,5.03-1.7
		c3.54,0,4.94,1.52,4.94,4.82v5.69c0,0.86,0.12,1.31,0.54,1.31c0.45,0,0.83-0.3,1.4-0.74v1.63c-0.98,0.83-1.97,1.22-3.01,1.22
		c-1.01,0-1.52-0.39-1.61-1.34C117.47,69.45,116.34,69.87,114.91,69.87 M118.69,62.96c-3.19,0.98-4.76,1.79-4.76,3.22
		c0,1.1,0.74,1.73,2.02,1.73c0.92,0,1.85-0.33,2.74-1.01V62.96z"/>
	<rect x="126.26" y="49.3" class="st0" width="2.68" height="20.33"/>
	<path class="st0" d="M138.76,69.9c-3.27,0-4.11-1.52-4.11-5v-6.37h-2.29v-0.27l4.7-5.18h0.3v3.12h4.2v2.32h-4.2v6.16
		c0,1.91,0.21,2.65,1.96,2.65c0.8,0,1.58-0.21,2.32-0.66v2.53C140.78,69.69,139.83,69.9,138.76,69.9"/>
	<path class="st0" d="M145.07,49.3h2.68v8.54c1.31-1.25,2.59-1.84,4.14-1.84c2.92,0,4.73,1.79,4.73,4.73v8.9h-2.71v-8.21
		c0-2.18-0.86-3.19-2.8-3.19c-1.4,0-2.41,0.51-3.36,1.73v9.67h-2.68V49.3z"/>
	<path class="st0" d="M171.03,69.18c-1.34,0.48-2.62,0.71-3.87,0.71c-4.43,0-7.5-2.97-7.5-7c0-3.9,3.07-7,7.38-7
		c1.28,0,2.53,0.27,3.78,0.83v2.86c-1.25-0.74-2.44-1.1-3.69-1.1c-2.83,0-4.67,1.88-4.67,4.41c0,2.56,1.85,4.47,4.79,4.47
		c1.31,0,2.56-0.3,3.78-0.92V69.18z"/>
	<path class="st0" d="M178.23,69.87c-2.47,0-3.84-1.28-3.84-3.25c0-1.9,1.49-3.33,4.43-4.32l3.19-1.07
		c0.03-0.21,0.03-0.39,0.03-0.57c0-1.61-0.74-2.26-2.53-2.26c-1.49,0-3.1,0.63-4.7,1.88v-2.65c1.4-1.13,3.15-1.7,5.03-1.7
		c3.54,0,4.94,1.52,4.94,4.82v5.69c0,0.86,0.12,1.31,0.54,1.31c0.45,0,0.83-0.3,1.4-0.74v1.63c-0.98,0.83-1.97,1.22-3.01,1.22
		c-1.01,0-1.52-0.39-1.61-1.34C180.79,69.45,179.66,69.87,178.23,69.87 M182.01,62.96c-3.19,0.98-4.76,1.79-4.76,3.22
		c0,1.1,0.74,1.73,2.03,1.73c0.92,0,1.85-0.33,2.74-1.01V62.96z"/>
	<path class="st0" d="M190.11,56.21h2.68v2.92c1.34-2.12,2.41-3.16,3.96-3.16c0.98,0,1.97,0.45,3.07,1.31l-1.46,2.38
		c-0.83-0.71-1.58-1.07-2.5-1.07c-1.4,0-2.59,1.22-3.07,3.45v7.59h-2.68V56.21z"/>
	<path class="st0" d="M208.54,69.93c-4.29,0-6.97-2.92-6.97-7.23c0-3.99,2.65-6.76,6.58-6.76c3.81,0,6.31,2.65,6.31,7.06v0.39H204.4
		c0.15,2.56,1.75,4.05,4.29,4.05c1.7,0,3.54-0.63,5.54-1.91v2.68C212.43,69.37,210.56,69.93,208.54,69.93 M211.51,61.47
		c-0.18-1.96-1.55-3.24-3.39-3.24c-2.05,0-3.34,1.13-3.72,3.24H211.51z"/>
	<path class="st0" d="M80.27,36.36v-6.78c2.3,1.43,4.24,2.42,5.81,2.99c1.58,0.57,3.11,0.85,4.59,0.85c1.5,0,2.63-0.23,3.4-0.69
		c0.77-0.46,1.16-1.14,1.16-2.04c0-0.73-0.24-1.31-0.72-1.76c-0.48-0.44-1.6-0.97-3.36-1.58c-4.35-1.53-7.34-3.09-8.98-4.68
		c-1.64-1.59-2.45-3.62-2.45-6.1c0-2.6,1.06-4.72,3.2-6.35c2.13-1.63,4.9-2.44,8.32-2.44c1.73,0,3.47,0.21,5.21,0.63
		c1.74,0.42,3.47,1.04,5.17,1.85v6.26c-2.05-1.03-3.89-1.8-5.52-2.29c-1.63-0.49-3.11-0.74-4.45-0.74c-1.46,0-2.56,0.21-3.33,0.63
		c-0.76,0.42-1.14,1.03-1.14,1.81c0,0.64,0.34,1.24,1.02,1.8c0.68,0.56,1.72,1.1,3.1,1.6c0.29,0.12,0.73,0.28,1.33,0.5
		c2.91,1.07,5,2,6.26,2.77c1.32,0.81,2.32,1.86,3,3.14c0.68,1.28,1.01,2.78,1.01,4.49c0,2.82-1.07,5.04-3.2,6.65
		c-2.13,1.61-5.09,2.42-8.87,2.42c-1.89,0-3.72-0.25-5.49-0.74C83.6,38.09,81.9,37.35,80.27,36.36"/>
	<path class="st0" d="M107.03,11.41c0-0.97,0.34-1.8,1.02-2.48c0.67-0.68,1.5-1.01,2.47-1.01c0.99,0,1.82,0.33,2.49,1
		c0.67,0.67,1,1.5,1,2.49c0,0.97-0.33,1.8-1,2.46c-0.67,0.67-1.5,1-2.49,1c-0.97,0-1.8-0.34-2.47-1.02
		C107.36,13.18,107.03,12.37,107.03,11.41 M107.27,18.1h6.52v20.68h-6.52V18.1z"/>
	<path class="st0" d="M118.97,38.78V18.1h6.48v2.6c1-1.03,2.07-1.79,3.2-2.28c1.13-0.49,2.38-0.73,3.76-0.73
		c1.54,0,2.81,0.31,3.82,0.94c1,0.63,1.77,1.58,2.31,2.86c1.32-1.4,2.58-2.38,3.76-2.94c1.18-0.57,2.55-0.85,4.09-0.85
		c2.27,0,4.01,0.69,5.21,2.06c1.21,1.37,1.81,3.36,1.81,5.94v13.09h-6.52V26.59c0-1.53-0.23-2.62-0.69-3.27
		c-0.46-0.65-1.2-0.98-2.24-0.98c-0.9,0-1.74,0.27-2.51,0.82c-0.77,0.55-1.48,1.36-2.14,2.45v13.18H133V26.59
		c0-1.51-0.23-2.6-0.69-3.26c-0.46-0.66-1.2-0.99-2.24-0.99c-0.89,0-1.72,0.27-2.5,0.82c-0.78,0.55-1.49,1.36-2.13,2.45v13.18
		H118.97z"/>
	<path class="st0" d="M158.51,48.93V18.1h6.24v1.7c0.87-0.74,1.79-1.29,2.75-1.64c0.96-0.35,2.03-0.52,3.21-0.52
		c2.89,0,5.24,1,7.06,3c1.81,2,2.72,4.61,2.72,7.82c0,3.2-0.91,5.79-2.72,7.78c-1.81,1.99-4.16,2.98-7.06,2.98
		c-1.13,0-2.17-0.16-3.12-0.48c-0.94-0.32-1.81-0.81-2.6-1.48v11.67H158.51z M164.98,23.95v8.86c0.55,0.42,1.13,0.74,1.73,0.96
		c0.6,0.22,1.21,0.33,1.82,0.33c1.6,0,2.86-0.5,3.77-1.52c0.92-1.01,1.37-2.4,1.37-4.15c0-1.73-0.46-3.12-1.36-4.18
		c-0.91-1.05-2.11-1.58-3.59-1.58c-0.64,0-1.27,0.11-1.9,0.32C166.21,23.19,165.59,23.51,164.98,23.95"/>
	<rect x="184.49" y="8.27" class="st0" width="6.52" height="30.52"/>
	<polygon class="st0" points="201.67,48.93 194.84,48.93 200.97,35.47 193.1,18.1 200.08,18.1 204.27,28.2 208.74,18.1 215.61,18.1 
			"/>
	<g>
		<path class="st0" d="M37.64,75.24C16.88,75.24,0,58.36,0,37.62C0,16.88,16.88,0,37.64,0s37.64,16.88,37.64,37.62
			C75.28,58.36,58.39,75.24,37.64,75.24z M37.64,3.18c-19,0-34.46,15.45-34.46,34.44c0,18.99,15.46,34.44,34.46,34.44
			c19,0,34.46-15.45,34.46-34.44C72.1,18.63,56.64,3.18,37.64,3.18z"/>
	</g>
	<path class="st0" d="M62.31,54.85c3.81-16.7-12.07-22.66-21.56-26.23c-0.53-0.2-1.2-0.41-1.91-0.64c-1.47-0.47-3.14-1-4.49-1.68
		l-0.2-0.06c-5.59-2.08-13.83-7.57-14.63-13.28c-0.19-1.37,0.05-2.65,0.73-3.83c-2.89,2.22-4.96,5.08-6.05,8.37
		C8.47,34.97,25.5,41.34,34.64,44.76c3.6,1.34,6.03,2.43,7.67,3.41c6.96,3.01,11.87,8.01,12.75,13.03c0.36,2.04,0.01,3.94-1,5.61
		c0.44-0.25,0.88-0.51,1.31-0.78C58.85,63.29,61.26,59.41,62.31,54.85z"/>
	<path class="st0" d="M55.53,9.26c-4.73-2.99-10.12-4.74-15.74-5.1C39,4.12,38.24,4.1,37.5,4.1c-4.91,0.02-9.63,1.08-14.05,3.15
		c-0.06,0.04-0.12,0.09-0.18,0.13c-2.12,1.56-3.04,3.39-2.75,5.45c0.62,4.44,6.87,9.46,12.75,11.98c-0.5-1.84,0.21-4.68,0.77-5.91
		C36.46,13.63,47.89,8.27,55.53,9.26z"/>
	<path class="st0" d="M15.83,63.05c6.07,5.22,13.72,8.06,21.81,8.06c4.98,0,9.77-1.06,14.23-3.16c1.88-1.8,2.64-4.07,2.2-6.57
		c-0.68-3.89-4.18-7.92-9.22-10.81c0.32,0.7,0.36,1.5-0.11,2.44C43.51,55.51,30.18,67.75,15.83,63.05z"/>
</g>
</svg>
