<?xml version="1.0" encoding="utf-8"?>
<!-- Generator: Adobe Illustrator 24.0.1, SVG Export Plug-In . SVG Version: 6.00 Build 0)  -->
<svg version="1.1" id="Layer_1" xmlns="http://www.w3.org/2000/svg" xmlns:xlink="http://www.w3.org/1999/xlink" x="0px" y="0px"
	 viewBox="0 0 201 40.98" style="enable-background:new 0 0 201 40.98;" xml:space="preserve">
<style type="text/css">
	.st0{fill:#FFFFFF;}
</style>
<g>
	<path class="st0" d="M27.06,17.14h6.54v0.87c-1.77,0.1-1.93,0.42-1.93,1.84V31.6c0,2.54,1.45,3.83,3.48,3.83
		c2.32,0,3.74-1.48,3.74-3.9V20.1c0-1.42-0.42-2.03-2.09-2.13V17.1H42v0.87c-1.67,0.1-2.09,0.71-2.09,2.13v10.82
		c0,3.38-1.48,5.38-5.28,5.38c-3.83,0-5.6-2.06-5.6-5.48V19.84c0-1.42-0.16-1.74-1.93-1.84v-0.87H27.06z"/>
	<path class="st0" d="M41.62,35.88v-0.87c1.32-0.06,1.74-0.55,1.74-1.35v-8.54c0-1.19-0.32-1.39-1.8-1.42v-0.87l3.99-0.19v2.64h0.06
		c0.74-1.51,1.8-2.8,3.67-2.8c2.25,0,3.32,1.48,3.32,3.87v7.25c0,0.93,0.39,1.32,1.67,1.35v0.87h-4.03v-9.73
		c0-1.8-0.68-2.42-1.61-2.42c-1.45,0-2.93,1.9-2.93,4.57v5.28c0,0.81,0.45,1.32,1.74,1.35v0.87h-5.83V35.88z"/>
	<path class="st0" d="M54.89,35.88v-0.87c1.32-0.06,1.74-0.55,1.74-1.35v-8.7c0-1.16-0.32-1.35-1.74-1.42v-0.87l4.09-0.16v11.15
		c0,0.81,0.45,1.32,1.74,1.35v0.87H54.89z M58.98,18.62c0,1.03-0.58,1.74-1.39,1.74c-0.81,0-1.39-0.71-1.39-1.74
		c0-1.03,0.58-1.74,1.39-1.74C58.43,16.88,58.98,17.59,58.98,18.62"/>
	<path class="st0" d="M64.94,17.81v5.03h3.29v1.03h-3.29v9.63c0,1.19,0.42,1.71,1.16,1.71c0.9,0,1.58-0.58,1.58-3.48v-0.77h0.87
		v1.29c0,2.77-1,3.99-3.06,3.99c-1.8,0-2.9-1.13-2.9-3.32V23.9h-1.71V23.1c1.96-0.81,3-1.74,3.16-5.25h0.9V17.81z"/>
	<path class="st0" d="M72.22,28.25c0-3.51,1.03-4.86,2.58-4.86c1.45,0,2.25,1.35,2.25,4.86H72.22z M79.76,29.28
		c0-3.93-1.9-6.76-4.93-6.76c-3.09,0-5.25,2.83-5.25,6.83c0,3.41,2.25,6.86,5.6,6.86c3.06,0,4.38-2.38,4.64-4.8l-0.87-0.16
		c-0.26,1.87-1.13,3.93-3.48,3.93c-1.84,0-3.22-2.09-3.22-5.89L79.76,29.28L79.76,29.28z"/>
	<path class="st0" d="M83.78,29.44c0-4.22,0.97-5.89,2.48-5.89c1.68,0,2.67,2.03,2.67,5.89c0,4.7-1.45,5.89-2.9,5.89
		C84.68,35.34,83.78,33.66,83.78,29.44 M87.16,18.01c1.42,0.06,1.77,0.26,1.77,1.42v4.9l-0.06,0.03c-0.55-1.06-1.48-1.84-2.74-1.84
		c-2.87,0-5.03,2.93-5.03,6.89c0,4.28,2.25,6.8,4.7,6.8c1.68,0,2.58-0.97,3.16-2.25h0.06v1.93l3.83-0.16v-0.87
		c-1.1,0.03-1.58-0.42-1.58-1.9V16.94l-4.12,0.16V18.01z"/>
	<path class="st0" d="M93.54,35.88v-0.87c1.64-0.1,1.9-0.45,1.9-1.87v-13.3c0-1.42-0.29-1.74-1.9-1.84v-0.87h6.6v0.87
		c-1.68,0.1-2.03,0.42-2.03,1.84v5.67h5.89v-5.67c0-1.42-0.32-1.74-2.03-1.84v-0.87h6.6v0.87c-1.64,0.1-1.9,0.42-1.9,1.84v13.3
		c0,1.42,0.29,1.74,1.9,1.87v0.87h-6.6v-0.87c1.68-0.1,2.03-0.45,2.03-1.87v-6.6h-5.89v6.6c0,1.42,0.32,1.74,2.03,1.87v0.87H93.54z"
		/>
	<path class="st0" d="M111.68,28.25c0-3.51,1.03-4.86,2.58-4.86c1.45,0,2.25,1.35,2.25,4.86H111.68z M119.21,29.28
		c0-3.93-1.9-6.76-4.93-6.76c-3.09,0-5.28,2.83-5.28,6.83c0,3.41,2.22,6.86,5.64,6.86c3.06,0,4.38-2.38,4.64-4.8l-0.87-0.16
		c-0.26,1.87-1.13,3.93-3.48,3.93c-1.84,0-3.22-2.09-3.22-5.89L119.21,29.28L119.21,29.28z"/>
	<path class="st0" d="M126.24,30.47c0,3.09-1.26,4.74-2.64,4.74c-0.84,0-1.51-0.71-1.51-2.16c0-2.32,1.96-3.35,4.16-4.12
		L126.24,30.47L126.24,30.47z M129.94,32.11c-0.06,1.96-0.26,2.58-0.81,2.58c-0.39,0-0.58-0.35-0.58-1.16v-7.6
		c0-2.03-1.16-3.45-4.22-3.45c-2.38,0-4.12,1.48-4.12,3.32c0,1.1,0.55,1.64,1.32,1.64c0.77,0,1.35-0.61,1.35-1.58
		c0-0.81-0.26-1.45-1.16-1.51c0.58-0.68,1.35-1,2.32-1c1.45,0,2.16,0.68,2.16,2.25v2.22c-2.35,0.87-6.64,2.16-6.64,5.28
		c0,1.8,1.22,3.09,3.32,3.09c1.9,0,2.74-0.9,3.38-2.13h0.06c0.16,1.48,0.9,2.13,2.22,2.13c1.68,0,2.25-1.22,2.25-4.09L129.94,32.11z
		"/>
	<path class="st0" d="M130.46,35.88v-0.87c1.32-0.06,1.74-0.55,1.74-1.35V19.46c0-0.93-0.45-1.42-1.8-1.48V17.1l4.16-0.16v16.69
		c0,0.81,0.45,1.32,1.74,1.35v0.87h-5.83V35.88z"/>
	<path class="st0" d="M140.25,17.81v5.03h3.29v1.03h-3.29v9.63c0,1.19,0.42,1.71,1.16,1.71c0.9,0,1.58-0.58,1.58-3.48v-0.77h0.87
		v1.29c0,2.77-1,3.99-3.06,3.99c-1.8,0-2.9-1.13-2.9-3.32V23.9h-1.71V23.1c1.96-0.81,3-1.74,3.16-5.25h0.9V17.81z"/>
	<path class="st0" d="M143.76,35.88v-0.87c1.32-0.06,1.74-0.55,1.74-1.35V19.42c0-1.16-0.32-1.35-1.8-1.42v-0.84l4.16-0.16v8.02
		h0.06c0.55-1.19,1.58-2.45,3.41-2.45c2.09,0,3.41,1.48,3.41,3.87v7.25c0,0.81,0.45,1.32,1.71,1.35v0.87h-4.03v-9.57
		c0-1.9-0.68-2.54-1.68-2.54c-1.35,0-2.87,1.8-2.87,4.41v5.44c0,0.81,0.45,1.32,1.74,1.35v0.87H143.76z"/>
	<path class="st0" d="M166.57,31.37c-0.26,2.58-1.45,4.9-4.45,4.9c-2.77,0-5.31-2.48-5.31-6.51c0-3.41,2.35-7.25,5.67-7.25
		c2.32,0,3.8,1.45,3.8,3.58c0,1.32-0.42,2.03-1.39,2.03c-0.77,0-1.29-0.64-1.29-1.64c0-1.16,0.42-1.64,1.13-1.64
		c0.19,0,0.29,0.1,0.42,0.1l0.06-0.06c-0.42-1-1.29-1.51-2.29-1.51c-2.03,0-3.41,2.06-3.41,5.93c0,4.61,1.42,5.93,3.03,5.93
		c2.22,0,2.93-2.03,3.22-3.96L166.57,31.37z"/>
	<path class="st0" d="M174.2,30.47c0,3.09-1.26,4.77-2.67,4.77c-0.87,0-1.51-0.71-1.51-2.16c0-2.35,1.96-3.38,4.19-4.16V30.47z
		 M177.9,32.18c-0.06,2-0.26,2.61-0.81,2.61c-0.39,0-0.58-0.35-0.58-1.16v-7.67c0-2.06-1.16-3.45-4.25-3.45
		c-2.38,0-4.12,1.48-4.12,3.35c0,1.1,0.55,1.64,1.32,1.64c0.77,0,1.35-0.61,1.35-1.61c0-0.81-0.26-1.45-1.13-1.55
		c0.58-0.68,1.35-1,2.32-1c1.45,0,2.19,0.68,2.19,2.25v2.25c-2.35,0.87-6.7,2.16-6.7,5.28c0,1.8,1.22,3.09,3.35,3.09
		c1.93,0,2.74-0.9,3.41-2.16h0.06c0.16,1.48,0.9,2.16,2.22,2.16c1.68,0,2.25-1.22,2.25-4.12L177.9,32.18z"/>
	<path class="st0" d="M179.1,35.92v-0.87c1.16-0.06,1.58-0.55,1.58-1.39v-7.47c0-1.87-0.32-2.48-1.71-2.51v-0.87l3.77-0.16v3.16
		h0.06c0.35-1.42,1.32-3.32,2.96-3.32c1,0,2,0.84,2,2.38c0,1.19-0.58,1.77-1.29,1.77c-0.61,0-1.22-0.39-1.22-1.61
		c0-0.68,0.39-1.35,1.16-1.35c-0.13-0.23-0.42-0.32-0.71-0.32c-1.84,0.03-2.67,4.06-2.67,6.44v3.9c0,0.84,0.42,1.32,2.29,1.39v0.87
		h-6.22V35.92z"/>
	<path class="st0" d="M190.43,28.28c0-3.54,1.03-4.93,2.61-4.93c1.45,0,2.29,1.39,2.29,4.93H190.43z M197.97,29.31
		c0-3.99-1.9-6.83-4.93-6.83c-3.09,0-5.25,2.87-5.25,6.93c0,3.41,2.22,6.86,5.64,6.86c3.06,0,4.38-2.38,4.64-4.8l-0.87-0.16
		c-0.26,1.87-1.13,3.93-3.51,3.93c-1.84,0-3.22-2.06-3.22-5.89h7.51V29.31z"/>
	<path class="st0" d="M198.97,19.55c0.97,0,1.74,0.77,1.74,1.74c0,0.97-0.77,1.74-1.74,1.74c-0.97,0-1.74-0.77-1.74-1.74
		C197.23,20.33,198,19.55,198.97,19.55 M198.97,19.26c-1.13,0-2.06,0.9-2.06,2.03c0,1.13,0.9,2.06,2.06,2.06
		c1.13,0,2.03-0.9,2.03-2.06C201,20.16,200.07,19.26,198.97,19.26 M198.58,21.42h0.39c0.1,0,0.32,0,0.35,0.26
		c0.03,0.32,0,0.61,0.1,0.77h0.39c-0.06-0.16-0.1-0.52-0.1-0.61c0-0.48-0.13-0.58-0.42-0.58l0,0c0.29-0.06,0.52-0.26,0.52-0.55
		c0-0.29-0.19-0.58-0.64-0.58h-0.93v2.35h0.39v-1.06H198.58z M198.58,20.39h0.48c0.26,0,0.35,0.19,0.35,0.35
		c0,0.19-0.1,0.39-0.35,0.39h-0.48V20.39z"/>
	<path class="st0" d="M3.32,35.88L3.32,35.88h0.03c0.03,0,0.03,0,0.03,0c0.03,0,0.03,0,0.06,0c0.03,0,0.03,0,0.03,0
		c0.03,0,0.03,0,0.06,0c0.03,0,0.03,0,0.06,0h0.03c0.03,0,0.03,0,0.06,0h0.03c0.03,0,0.06,0,0.06,0h0.03c0.03,0,0.06,0,0.06,0
		c0.03,0,0.03,0,0.03,0c0.03,0,0.06,0,0.1-0.03h0.03c0.03,0,0.06,0,0.1-0.03c0,0,0.03,0,0.03-0.03c0.03,0,0.06-0.03,0.1-0.03
		c0,0,0.03,0,0.03-0.03c0.03,0,0.06-0.03,0.1-0.03c0.03,0,0.03,0,0.03-0.03c0.03,0,0.06-0.03,0.1-0.03c0,0,0.03,0,0.03-0.03
		c0.03-0.03,0.06-0.03,0.1-0.06c0,0,0.03,0,0.03-0.03c0.03,0,0.06-0.03,0.1-0.06l0.03-0.03c0.03-0.03,0.06-0.03,0.1-0.06l0.03-0.03
		c0.03-0.03,0.06-0.03,0.1-0.06c0,0,0.03-0.03,0.06-0.03c0.03-0.03,0.06-0.06,0.1-0.1c0.03,0,0.03-0.03,0.03-0.03
		c0.03-0.03,0.06-0.06,0.1-0.1c0.03-0.03,0.03-0.03,0.06-0.06c0.03-0.03,0.06-0.06,0.1-0.1c0.03-0.03,0.03-0.03,0.06-0.06
		c0.03-0.03,0.06-0.06,0.1-0.1c0.03-0.03,0.03-0.03,0.06-0.06c0.03-0.03,0.06-0.06,0.1-0.1c0.03-0.03,0.03-0.03,0.06-0.06
		c0.03-0.03,0.06-0.06,0.1-0.13c0.03-0.03,0.03-0.06,0.06-0.06c0.03-0.03,0.06-0.1,0.1-0.13c0.03-0.03,0.03-0.06,0.06-0.1
		c0.03-0.03,0.06-0.1,0.1-0.13c0.03-0.03,0.03-0.06,0.06-0.1c0.03-0.03,0.06-0.1,0.1-0.13c0.03-0.03,0.03-0.06,0.06-0.1
		c0.03-0.06,0.06-0.1,0.1-0.16c0.03-0.03,0.03-0.06,0.06-0.13c0.03-0.06,0.06-0.1,0.1-0.16c0.03-0.03,0.03-0.1,0.06-0.13
		c0.03-0.06,0.06-0.1,0.06-0.16c0.03-0.06,0.03-0.1,0.06-0.16c0.03-0.06,0.03-0.1,0.06-0.16c0.03-0.06,0.03-0.1,0.06-0.16
		c0.03-0.06,0.03-0.13,0.06-0.16c0.03-0.06,0.03-0.1,0.06-0.16c0.03-0.06,0.06-0.13,0.06-0.19c0.03-0.06,0.06-0.16,0.06-0.23
		c0-0.06,0.03-0.1,0.03-0.13c0.03-0.13,0.06-0.26,0.13-0.39c0.55-1.96,0.68-5.93,0.68-8.54V5.73L0,10.11v17.33
		c0,6.6,1.19,8.18,2.67,8.47c0,0,0,0-0.03,0L3.32,35.88z"/>
	<path class="st0" d="M5.38,37.69c3.25-0.42,5.12-4.03,5.57-5.8c0.71-2.45,0.87-5.48,0.87-8.89V3.83L8.34,5.7l1.84,0.42v15.36
		c0,3.96-0.1,7.44-0.74,9.73c-0.9,3.25-2.54,4.57-3.7,4.99L2.8,35.88c0,0,0,0-0.03,0c0.32,0.93,1.03,1.64,1.87,1.77L5.38,37.69z"/>
	<path class="st0" d="M4.64,37.62c0.29,0.77,1.03,1.48,1.84,1.64l0.74,0.06c3.38-0.03,5.6-3.32,6.38-5.06
		c1.16-2.58,1.71-6.22,1.71-11.44V1.93l-3.51,1.9l1.87,0.42V22.1c0,4.45-0.19,8.25-1.26,11.05c-0.93,2.42-2.64,4.32-4.74,4.83
		l-2.29-0.26L4.64,37.62z"/>
	<path class="st0" d="M15.3,1.93l1.9,0.42v19.71c0,6.06-0.61,10.18-1.96,12.98c-1.26,2.61-3.38,4.28-5.41,4.64l-2.61-0.32L6.47,39.3
		c0.64,1.06,1.74,1.61,2.93,1.68c1.64,0.06,2.96-0.64,4.22-1.48c3.99-2.77,5.25-8.92,5.25-17.27V0L15.3,1.93z"/>
</g>
</svg>
