<?xml version="1.0" encoding="utf-8"?>
<!-- Generator: Adobe Illustrator 24.0.1, SVG Export Plug-In . SVG Version: 6.00 Build 0)  -->
<svg version="1.1" id="Layer_1" xmlns="http://www.w3.org/2000/svg" xmlns:xlink="http://www.w3.org/1999/xlink" x="0px" y="0px"
	 viewBox="0 0 179 30" style="enable-background:new 0 0 179 30;" xml:space="preserve">
<style type="text/css">
	.st0{fill:#8DC63F;}
	.st1{fill:#008FD5;}
</style>
<g>
	<path class="st0" d="M19.77,6.71c-0.71,0.74-1.32,1.52-1.76,2.42c-0.63,1.29-0.99,2.64-1.01,4.08c0,0.25-0.08,0.44-0.23,0.62
		c-1.15,1.44-1.66,3.08-1.51,4.92c0.01,0.18-0.02,0.25-0.21,0.28c-1.46,0.27-2.92,0.56-4.37,0.85c-0.21,0.04-0.26-0.01-0.29-0.22
		c-0.18-1.48-0.07-2.94,0.29-4.37c0.07-0.3,0.09-0.42-0.29-0.38c-0.49,0.04-0.99,0.05-1.47,0c-0.37-0.04-0.41,0.11-0.4,0.41
		c0.01,1.53,0,3.06,0.01,4.59c0,0.27-0.04,0.41-0.34,0.46c-1.46,0.26-2.92,0.54-4.37,0.83c-0.25,0.05-0.29,0-0.29-0.23
		c0.01-3.39-0.07-6.79,0.05-10.18c0.09-2.55,1.16-4.77,2.86-6.67c2.06-2.29,4.62-3.63,7.68-4.05c1.01-0.14,1.01-0.17,1.01,0.87
		c0,1.21-0.01,2.43,0.01,3.64c0,0.29-0.06,0.38-0.37,0.4c-2.68,0.17-4.94,1.91-5.8,4.44c-0.18,0.53-0.17,0.54,0.4,0.54
		c1.31,0,2.63,0,3.94,0c0.23,0,0.4-0.06,0.57-0.22c1.62-1.56,3.53-2.58,5.74-3.03C19.65,6.69,19.69,6.7,19.77,6.71z"/>
	<path class="st1" d="M24.82,24.27c0,0.59,0,1.15,0,1.71c0,1.07-0.01,2.14,0.01,3.21c0,0.28-0.08,0.41-0.35,0.47
		c-3.81,0.91-7.2,0.04-10.16-2.48c-1.36-1.16-2.36-2.6-3.07-4.25c-0.1-0.24-0.15-0.34,0.2-0.41c1.42-0.25,2.83-0.53,4.25-0.82
		c0.25-0.05,0.42-0.04,0.58,0.21c1.67,2.82,5.28,4.06,8.35,2.42C24.66,24.31,24.72,24.3,24.82,24.27z"/>
	<path class="st1" d="M33.13,24.09c0,1.76-0.01,3.52,0.01,5.29c0,0.29-0.06,0.39-0.37,0.39c-1.42-0.02-2.83-0.02-4.25,0
		c-0.29,0-0.36-0.08-0.36-0.36c0.01-3.25,0.01-6.5,0-9.75c0-0.25,0.07-0.36,0.32-0.4c1.42-0.26,2.84-0.52,4.24-0.81
		c0.39-0.08,0.41,0.05,0.41,0.37C33.12,20.57,33.13,22.33,33.13,24.09z"/>
	<path class="st1" d="M21.01,6.75c-0.17,0.29-0.36,0.58-0.52,0.88c-0.64,1.15-1.11,2.35-1.06,3.7c0.04,1.25,0.89,2.17,2.02,2.17
		c0.93,0,1.62-0.47,2.11-1.24c0.81-1.29,0.93-2.73,0.84-4.21c-0.06-1.03-0.23-2.05-0.44-3.08c0.19-0.01,0.21,0.13,0.27,0.22
		c1.64,2.41,1.81,4.95,0.63,7.6c-0.39,0.87-0.85,1.71-1.36,2.51c-1.62,2.52-1.46,4.78,0.52,7.05c0.24,0.28,0.5,0.55,0.73,0.85
		c-1.21-0.65-2.35-1.39-3.39-2.28c-1.55-1.33-2.84-2.86-3.35-4.89c-0.84-3.32-0.2-6.29,2.22-8.8C20.44,7.02,20.67,6.83,21.01,6.75z"
		/>
	<path class="st0" d="M26.03,7.39c1.89,0.81,3.4,2.01,4.62,3.6c0.99,1.29,1.67,2.72,2.09,4.29c0.09,0.34-0.02,0.39-0.29,0.44
		c-1.33,0.25-2.66,0.51-3.99,0.77c-0.31,0.06-0.48,0.05-0.6-0.35c-0.36-1.23-1.03-2.28-2.01-3.12c-0.12-0.11-0.27-0.18-0.17-0.42
		C26.34,10.92,26.49,9.19,26.03,7.39z"/>
	<path class="st1" d="M8.53,26.48c0,0.97-0.01,1.94,0,2.9c0,0.26-0.03,0.38-0.34,0.38c-1.44-0.02-2.89-0.02-4.34,0
		c-0.27,0-0.33-0.08-0.33-0.34c0.01-1.69,0.01-3.38,0-5.07c0-0.23,0.06-0.31,0.3-0.36c1.43-0.26,2.86-0.54,4.29-0.84
		c0.37-0.08,0.43,0.04,0.43,0.38C8.51,24.52,8.53,25.5,8.53,26.48z"/>
	<path class="st0" d="M23.54,10.12c-0.69-1.36-1.64-1.69-3-0.98c0.33-0.96,0.87-1.74,1.43-2.52c0.08-0.11,0.19-0.13,0.31-0.11
		c0.17,0.02,0.34,0.03,0.51,0.05c0.83,0.11,0.82,0.12,0.9,0.97c0.07,0.76,0.12,1.52,0,2.28C23.67,9.93,23.71,10.06,23.54,10.12z"/>
	<path class="st1" d="M20.45,10.65c-0.01-0.73,0.54-1.29,1.27-1.29c0.69,0,1.25,0.56,1.27,1.26c0.01,0.68-0.56,1.27-1.24,1.29
		C21.02,11.92,20.45,11.38,20.45,10.65z"/>
</g>
<g>
	<g>
		<path class="st0" d="M40.75,5.36v4.28h4.48v1.47h-4.48v6.01h-2.09V3.82h6.92v1.54H40.75z"/>
		<path class="st0" d="M48.07,17.12V3.82h2.09v11.73h4.64v1.58H48.07z"/>
		<path class="st0" d="M66.57,10.45c0,1.04-0.13,1.99-0.38,2.85c-0.26,0.86-0.63,1.59-1.11,2.21c-0.49,0.61-1.08,1.09-1.77,1.43
			c-0.69,0.34-1.47,0.51-2.36,0.51s-1.67-0.17-2.37-0.51s-1.29-0.81-1.78-1.43c-0.49-0.61-0.86-1.35-1.12-2.21
			c-0.26-0.86-0.38-1.81-0.38-2.85c0-1.04,0.12-1.99,0.37-2.85c0.25-0.86,0.61-1.59,1.09-2.2C57.25,4.8,57.85,4.33,58.55,4
			c0.7-0.33,1.51-0.5,2.4-0.5c0.88,0,1.67,0.17,2.36,0.5c0.69,0.33,1.28,0.8,1.77,1.41s0.86,1.34,1.11,2.2
			C66.45,8.46,66.57,9.41,66.57,10.45z M64.37,10.45c0-0.75-0.07-1.46-0.22-2.12C64,7.66,63.78,7.09,63.5,6.6
			c-0.29-0.49-0.64-0.87-1.07-1.16C62,5.16,61.51,5.02,60.95,5.02c-0.57,0-1.08,0.14-1.51,0.42c-0.43,0.28-0.79,0.67-1.08,1.16
			c-0.29,0.49-0.5,1.06-0.64,1.73c-0.14,0.66-0.21,1.37-0.21,2.12c0,0.75,0.07,1.46,0.21,2.12c0.14,0.66,0.35,1.24,0.64,1.73
			c0.29,0.49,0.65,0.87,1.08,1.16c0.43,0.28,0.94,0.42,1.51,0.42c0.56,0,1.05-0.14,1.47-0.42s0.78-0.67,1.07-1.16
			c0.29-0.49,0.5-1.06,0.65-1.73C64.29,11.91,64.37,11.2,64.37,10.45z"/>
		<path class="st0" d="M76.21,17.12l-2.79-5.94h-1.9v5.94h-2.04V3.82h4.26c0.61,0,1.18,0.07,1.71,0.2c0.54,0.13,1,0.34,1.41,0.63
			c0.4,0.29,0.72,0.66,0.95,1.13c0.23,0.46,0.35,1.02,0.35,1.67c0,0.54-0.09,1.01-0.26,1.41c-0.17,0.4-0.4,0.74-0.67,1.02
			s-0.58,0.5-0.9,0.67c-0.33,0.16-0.65,0.27-0.96,0.32l3.09,6.26H76.21z M76.07,7.51c0-0.45-0.08-0.82-0.23-1.11
			c-0.15-0.29-0.36-0.52-0.6-0.7c-0.25-0.18-0.53-0.3-0.86-0.37c-0.32-0.07-0.65-0.1-0.97-0.1h-1.88v4.64h1.93
			c0.79,0,1.42-0.2,1.9-0.61C75.83,8.85,76.07,8.26,76.07,7.51z"/>
		<path class="st0" d="M80.9,17.12V3.82h2.09v13.31H80.9z"/>
		<path class="st0" d="M96.56,10.49c0,2.15-0.54,3.8-1.63,4.93c-1.08,1.13-2.6,1.7-4.55,1.7h-3.76V3.82h3.79
			c1.95,0,3.46,0.57,4.54,1.71C96.02,6.67,96.56,8.32,96.56,10.49z M94.47,10.49c0-0.88-0.1-1.64-0.31-2.29s-0.49-1.19-0.86-1.62
			C92.93,6.15,92.5,5.83,92,5.62c-0.5-0.21-1.04-0.32-1.61-0.32h-1.69v10.34h1.69c0.57,0,1.11-0.11,1.61-0.32
			c0.5-0.21,0.93-0.53,1.3-0.96c0.36-0.43,0.65-0.96,0.86-1.61C94.36,12.11,94.47,11.35,94.47,10.49z"/>
		<path class="st0" d="M106.03,17.12L105.1,14h-4.76l-0.95,3.12h-2.11l4.13-13.31h2.76l4.04,13.31H106.03z M102.8,5.4h-0.09
			l-2.09,7.27h4.2L102.8,5.4z"/>
		<path class="st1" d="M120.92,17.12L119.99,14h-4.76l-0.95,3.12h-2.11l4.13-13.31h2.76l4.04,13.31H120.92z M117.69,5.4h-0.09
			l-2.09,7.27h4.2L117.69,5.4z"/>
		<path class="st1" d="M132.44,16.96c-0.65,0.32-1.44,0.48-2.37,0.48c-0.91,0-1.73-0.18-2.46-0.53c-0.73-0.35-1.34-0.84-1.83-1.47
			c-0.5-0.63-0.87-1.36-1.14-2.21c-0.26-0.85-0.39-1.77-0.39-2.77c0-1,0.14-1.93,0.41-2.78c0.27-0.85,0.66-1.59,1.16-2.21
			c0.5-0.62,1.11-1.1,1.83-1.46c0.72-0.35,1.53-0.53,2.43-0.53c0.84,0,1.6,0.13,2.3,0.39c0.7,0.26,1.27,0.66,1.72,1.2l-1.3,1.15
			c-0.34-0.4-0.74-0.7-1.18-0.89s-0.93-0.29-1.44-0.29c-0.63,0-1.18,0.14-1.65,0.43c-0.46,0.29-0.85,0.68-1.15,1.17
			c-0.3,0.49-0.53,1.06-0.69,1.72c-0.15,0.66-0.23,1.36-0.23,2.1s0.08,1.43,0.23,2.09c0.15,0.65,0.39,1.23,0.7,1.72
			c0.31,0.5,0.7,0.89,1.17,1.17c0.47,0.29,1.03,0.43,1.66,0.43c0.57,0,1.08-0.12,1.52-0.38c0.44-0.25,0.79-0.56,1.06-0.92l1.25,1.11
			C133.62,16.22,133.09,16.64,132.44,16.96z"/>
		<path class="st1" d="M143.45,16.96c-0.65,0.32-1.44,0.48-2.37,0.48c-0.91,0-1.73-0.18-2.46-0.53c-0.73-0.35-1.34-0.84-1.83-1.47
			c-0.5-0.63-0.87-1.36-1.14-2.21c-0.26-0.85-0.39-1.77-0.39-2.77c0-1,0.14-1.93,0.41-2.78c0.27-0.85,0.66-1.59,1.16-2.21
			c0.5-0.62,1.11-1.1,1.83-1.46c0.72-0.35,1.53-0.53,2.43-0.53c0.84,0,1.6,0.13,2.3,0.39c0.7,0.26,1.27,0.66,1.72,1.2l-1.3,1.15
			c-0.34-0.4-0.74-0.7-1.18-0.89s-0.93-0.29-1.44-0.29c-0.63,0-1.18,0.14-1.65,0.43c-0.46,0.29-0.85,0.68-1.15,1.17
			s-0.53,1.06-0.69,1.72c-0.15,0.66-0.23,1.36-0.23,2.1s0.08,1.43,0.23,2.09c0.15,0.65,0.39,1.23,0.7,1.72
			c0.31,0.5,0.7,0.89,1.17,1.17c0.47,0.29,1.03,0.43,1.66,0.43c0.57,0,1.08-0.12,1.52-0.38c0.44-0.25,0.79-0.56,1.06-0.92l1.25,1.11
			C144.63,16.22,144.1,16.64,143.45,16.96z"/>
		<path class="st1" d="M147.25,17.12V3.82h6.92v1.5h-4.9v4.19h4.58v1.41h-4.58v4.68h5.13v1.52H147.25z"/>
		<path class="st1" d="M164.58,13.59c0,0.6-0.12,1.14-0.35,1.63c-0.23,0.48-0.55,0.89-0.94,1.21c-0.39,0.33-0.86,0.58-1.41,0.75
			c-0.54,0.18-1.12,0.26-1.74,0.26c-0.84,0-1.63-0.14-2.38-0.42c-0.75-0.28-1.35-0.65-1.8-1.12l1.23-1.22
			c0.36,0.38,0.8,0.67,1.34,0.88c0.53,0.21,1.07,0.32,1.61,0.32c0.7,0,1.27-0.19,1.72-0.56c0.45-0.38,0.67-0.92,0.67-1.63
			c0-0.34-0.07-0.64-0.21-0.89c-0.14-0.26-0.33-0.49-0.58-0.7c-0.25-0.21-0.53-0.4-0.85-0.56c-0.32-0.17-0.66-0.33-1.03-0.48
			c-0.45-0.18-0.87-0.37-1.27-0.59c-0.39-0.22-0.75-0.47-1.06-0.76c-0.31-0.29-0.55-0.63-0.73-1.02c-0.18-0.39-0.27-0.86-0.27-1.4
			c0-0.64,0.12-1.2,0.37-1.67c0.25-0.48,0.58-0.87,0.99-1.18c0.41-0.31,0.88-0.55,1.41-0.7c0.53-0.15,1.06-0.23,1.6-0.23
			c0.79,0,1.5,0.11,2.13,0.32c0.63,0.21,1.15,0.53,1.57,0.96l-1.25,1.2c-0.59-0.63-1.38-0.94-2.37-0.94c-0.29,0-0.58,0.04-0.87,0.12
			c-0.29,0.08-0.55,0.21-0.78,0.39c-0.23,0.18-0.42,0.41-0.56,0.69c-0.14,0.28-0.21,0.61-0.21,1c0,0.34,0.07,0.63,0.2,0.87
			c0.13,0.24,0.31,0.46,0.53,0.66s0.48,0.37,0.78,0.53c0.29,0.16,0.61,0.3,0.95,0.44c0.43,0.18,0.86,0.37,1.28,0.59
			s0.8,0.48,1.14,0.78c0.34,0.3,0.62,0.65,0.82,1.06C164.47,12.58,164.58,13.05,164.58,13.59z"/>
		<path class="st1" d="M174.8,13.59c0,0.6-0.12,1.14-0.35,1.63c-0.23,0.48-0.55,0.89-0.94,1.21c-0.39,0.33-0.86,0.58-1.41,0.75
			c-0.54,0.18-1.12,0.26-1.74,0.26c-0.84,0-1.63-0.14-2.38-0.42c-0.75-0.28-1.35-0.65-1.8-1.12l1.23-1.22
			c0.36,0.38,0.8,0.67,1.34,0.88c0.53,0.21,1.07,0.32,1.61,0.32c0.7,0,1.27-0.19,1.72-0.56c0.45-0.38,0.67-0.92,0.67-1.63
			c0-0.34-0.07-0.64-0.21-0.89c-0.14-0.26-0.33-0.49-0.58-0.7c-0.25-0.21-0.53-0.4-0.85-0.56c-0.32-0.17-0.66-0.33-1.03-0.48
			c-0.45-0.18-0.87-0.37-1.27-0.59c-0.39-0.22-0.75-0.47-1.06-0.76c-0.31-0.29-0.55-0.63-0.73-1.02c-0.18-0.39-0.27-0.86-0.27-1.4
			c0-0.64,0.12-1.2,0.37-1.67c0.25-0.48,0.58-0.87,0.99-1.18c0.41-0.31,0.88-0.55,1.41-0.7c0.53-0.15,1.06-0.23,1.6-0.23
			c0.79,0,1.5,0.11,2.13,0.32c0.63,0.21,1.15,0.53,1.57,0.96l-1.25,1.2c-0.59-0.63-1.38-0.94-2.37-0.94c-0.29,0-0.58,0.04-0.87,0.12
			c-0.29,0.08-0.55,0.21-0.78,0.39c-0.23,0.18-0.42,0.41-0.56,0.69c-0.14,0.28-0.21,0.61-0.21,1c0,0.34,0.07,0.63,0.2,0.87
			c0.13,0.24,0.31,0.46,0.53,0.66s0.48,0.37,0.78,0.53c0.29,0.16,0.61,0.3,0.95,0.44c0.43,0.18,0.86,0.37,1.28,0.59
			s0.8,0.48,1.14,0.78c0.34,0.3,0.62,0.65,0.82,1.06C174.69,12.58,174.8,13.05,174.8,13.59z"/>
	</g>
	<g>
		<path class="st0" d="M61.34,28.4l-0.46-1.64h-2.34l-0.47,1.64h-1.04l2.04-6.98h1.36l1.99,6.98H61.34z M59.75,22.25h-0.05
			l-1.03,3.81h2.07L59.75,22.25z"/>
		<path class="st0" d="M66.68,28.4l-2.58-5.41h-0.03v5.41h-0.95v-6.98h1.24l2.55,5.42h0.03v-5.42h0.95v6.98H66.68z"/>
		<path class="st0" d="M74.27,24.92c0,1.13-0.27,1.99-0.8,2.59c-0.53,0.59-1.28,0.89-2.24,0.89h-1.85v-6.98h1.86
			c0.96,0,1.71,0.3,2.24,0.9C74.01,22.91,74.27,23.78,74.27,24.92z M73.24,24.92c0-0.46-0.05-0.86-0.15-1.2
			c-0.1-0.34-0.24-0.62-0.42-0.85c-0.18-0.22-0.39-0.39-0.64-0.5c-0.25-0.11-0.51-0.17-0.79-0.17h-0.83v5.42h0.83
			c0.28,0,0.54-0.06,0.79-0.17s0.46-0.28,0.64-0.5c0.18-0.22,0.32-0.5,0.42-0.84C73.19,25.77,73.24,25.37,73.24,24.92z"/>
		<path class="st0" d="M77.3,28.4v-6.98h1.03v6.98H77.3z"/>
		<path class="st0" d="M83.4,28.4l-2.58-5.41h-0.03v5.41h-0.95v-6.98h1.24l2.55,5.42h0.03v-5.42h0.95v6.98H83.4z"/>
		<path class="st0" d="M89.76,26.54c0,0.32-0.06,0.6-0.17,0.85c-0.11,0.25-0.27,0.46-0.46,0.64c-0.19,0.17-0.43,0.3-0.69,0.39
			c-0.27,0.09-0.55,0.14-0.86,0.14c-0.41,0-0.8-0.07-1.17-0.22c-0.37-0.15-0.67-0.34-0.89-0.59l0.61-0.64
			c0.18,0.2,0.39,0.35,0.66,0.46c0.26,0.11,0.53,0.17,0.79,0.17c0.34,0,0.62-0.1,0.85-0.3c0.22-0.2,0.33-0.48,0.33-0.86
			c0-0.18-0.03-0.33-0.1-0.47c-0.07-0.13-0.16-0.26-0.29-0.36c-0.12-0.11-0.26-0.21-0.42-0.3c-0.16-0.09-0.33-0.17-0.51-0.25
			c-0.22-0.09-0.43-0.2-0.62-0.31c-0.19-0.11-0.37-0.25-0.52-0.4c-0.15-0.15-0.27-0.33-0.36-0.54c-0.09-0.21-0.13-0.45-0.13-0.73
			c0-0.34,0.06-0.63,0.18-0.88c0.12-0.25,0.28-0.46,0.49-0.62c0.2-0.16,0.43-0.29,0.69-0.36c0.26-0.08,0.52-0.12,0.79-0.12
			c0.39,0,0.74,0.06,1.05,0.17c0.31,0.11,0.57,0.28,0.77,0.5l-0.62,0.63c-0.29-0.33-0.68-0.49-1.17-0.49
			c-0.14,0-0.29,0.02-0.43,0.06c-0.14,0.04-0.27,0.11-0.38,0.21c-0.11,0.1-0.21,0.22-0.27,0.36c-0.07,0.14-0.1,0.32-0.1,0.52
			c0,0.18,0.03,0.33,0.1,0.46c0.06,0.13,0.15,0.24,0.26,0.34c0.11,0.1,0.24,0.19,0.38,0.28c0.14,0.08,0.3,0.16,0.47,0.23
			c0.21,0.09,0.42,0.2,0.63,0.31c0.21,0.12,0.39,0.25,0.56,0.41c0.17,0.16,0.3,0.34,0.41,0.56C89.7,26.01,89.76,26.26,89.76,26.54z"
			/>
		<path class="st0" d="M95.42,27c-0.08,0.31-0.22,0.58-0.41,0.81c-0.19,0.23-0.44,0.42-0.75,0.55c-0.31,0.13-0.69,0.2-1.14,0.2
			c-0.45,0-0.82-0.07-1.13-0.2c-0.3-0.13-0.55-0.32-0.74-0.55c-0.19-0.23-0.33-0.5-0.41-0.81c-0.08-0.31-0.12-0.64-0.12-1v-4.58
			h1.03v4.49c0,0.24,0.02,0.46,0.06,0.68c0.04,0.22,0.11,0.42,0.22,0.59c0.1,0.17,0.24,0.31,0.42,0.41c0.18,0.1,0.41,0.15,0.68,0.15
			s0.5-0.05,0.67-0.15c0.18-0.1,0.31-0.24,0.42-0.41c0.1-0.17,0.18-0.37,0.22-0.59c0.04-0.22,0.06-0.45,0.06-0.68v-4.49h1.03V26
			C95.54,26.36,95.5,26.69,95.42,27z"/>
		<path class="st0" d="M100.24,28.4l-1.37-3.11h-0.94v3.11h-1.01v-6.98h2.1c0.3,0,0.58,0.03,0.84,0.1c0.26,0.07,0.49,0.18,0.69,0.33
			c0.2,0.15,0.36,0.35,0.47,0.59c0.11,0.24,0.17,0.54,0.17,0.88c0,0.28-0.04,0.53-0.13,0.74c-0.08,0.21-0.19,0.39-0.33,0.54
			c-0.14,0.15-0.28,0.26-0.44,0.35c-0.16,0.09-0.32,0.14-0.47,0.17l1.52,3.28H100.24z M100.17,23.36c0-0.24-0.04-0.43-0.11-0.58
			c-0.08-0.15-0.18-0.27-0.3-0.37c-0.12-0.09-0.26-0.16-0.42-0.19c-0.16-0.04-0.32-0.05-0.48-0.05h-0.93v2.43h0.95
			c0.39,0,0.7-0.11,0.94-0.32C100.05,24.06,100.17,23.75,100.17,23.36z"/>
		<path class="st0" d="M105.78,28.4l-0.46-1.64h-2.34l-0.47,1.64h-1.04l2.04-6.98h1.36l1.99,6.98H105.78z M104.19,22.25h-0.05
			l-1.03,3.81h2.07L104.19,22.25z"/>
		<path class="st0" d="M111.12,28.4l-2.58-5.41h-0.03v5.41h-0.95v-6.98h1.24l2.55,5.42h0.03v-5.42h0.95v6.98H111.12z"/>
		<path class="st0" d="M117.5,28.31c-0.32,0.17-0.71,0.25-1.17,0.25c-0.45,0-0.85-0.09-1.21-0.28c-0.36-0.18-0.66-0.44-0.9-0.77
			c-0.24-0.33-0.43-0.71-0.56-1.16c-0.13-0.44-0.19-0.93-0.19-1.45c0-0.52,0.07-1.01,0.2-1.46c0.13-0.45,0.32-0.83,0.57-1.16
			c0.25-0.33,0.55-0.58,0.9-0.76c0.35-0.18,0.75-0.28,1.19-0.28c0.41,0,0.79,0.07,1.13,0.21c0.34,0.14,0.62,0.35,0.85,0.63
			l-0.64,0.6c-0.17-0.21-0.36-0.37-0.58-0.47c-0.22-0.1-0.46-0.15-0.71-0.15c-0.31,0-0.58,0.08-0.81,0.23s-0.42,0.35-0.57,0.61
			c-0.15,0.26-0.26,0.56-0.34,0.9c-0.08,0.34-0.11,0.71-0.11,1.1c0,0.39,0.04,0.75,0.11,1.09c0.08,0.34,0.19,0.64,0.34,0.9
			c0.15,0.26,0.34,0.46,0.58,0.62c0.23,0.15,0.5,0.23,0.82,0.23c0.28,0,0.53-0.07,0.75-0.2c0.22-0.13,0.39-0.29,0.52-0.48l0.62,0.58
			C118.08,27.92,117.82,28.15,117.5,28.31z"/>
		<path class="st0" d="M119.09,28.4v-6.98h3.41v0.79h-2.41v2.2h2.25v0.74h-2.25v2.45h2.53v0.8H119.09z"/>
		<path class="st0" d="M128.86,28.4l-0.46-1.64h-2.34l-0.47,1.64h-1.04l2.04-6.98h1.36l1.99,6.98H128.86z M127.27,22.25h-0.05
			l-1.03,3.81h2.07L127.27,22.25z"/>
		<path class="st0" d="M133.07,21.25c0.43,0,0.82,0.07,1.15,0.21c0.34,0.14,0.61,0.35,0.83,0.63l-0.64,0.6
			c-0.17-0.21-0.36-0.37-0.58-0.47c-0.22-0.1-0.46-0.16-0.72-0.16c-0.31,0-0.58,0.08-0.81,0.23c-0.22,0.15-0.41,0.36-0.57,0.62
			c-0.15,0.26-0.26,0.56-0.34,0.91c-0.07,0.34-0.11,0.71-0.11,1.09c0,0.4,0.04,0.77,0.12,1.12c0.08,0.35,0.2,0.64,0.35,0.9
			s0.35,0.45,0.59,0.6s0.51,0.22,0.83,0.22c0.43,0,0.75-0.08,0.97-0.24v-2.16h-1.06v-0.77h2.06v3.4c-0.24,0.17-0.51,0.31-0.83,0.41
			c-0.32,0.1-0.7,0.15-1.16,0.15c-0.46,0-0.88-0.09-1.25-0.26c-0.37-0.17-0.68-0.42-0.93-0.73c-0.26-0.32-0.45-0.7-0.58-1.14
			c-0.13-0.45-0.2-0.94-0.2-1.49c0-0.53,0.06-1.01,0.19-1.45c0.13-0.44,0.32-0.83,0.56-1.15c0.24-0.33,0.54-0.58,0.9-0.76
			C132.22,21.34,132.62,21.25,133.07,21.25z"/>
		<path class="st0" d="M136.47,28.4v-6.98h3.41v0.79h-2.41v2.2h2.25v0.74h-2.25v2.45h2.53v0.8H136.47z"/>
		<path class="st0" d="M144.62,28.4l-2.58-5.41H142v5.41h-0.95v-6.98h1.24l2.55,5.42h0.03v-5.42h0.95v6.98H144.62z"/>
		<path class="st0" d="M151,28.31c-0.32,0.17-0.71,0.25-1.17,0.25c-0.45,0-0.85-0.09-1.21-0.28c-0.36-0.18-0.66-0.44-0.9-0.77
			c-0.24-0.33-0.43-0.71-0.56-1.16c-0.13-0.44-0.19-0.93-0.19-1.45c0-0.52,0.07-1.01,0.2-1.46c0.13-0.45,0.32-0.83,0.57-1.16
			c0.25-0.33,0.55-0.58,0.9-0.76c0.35-0.18,0.75-0.28,1.19-0.28c0.41,0,0.79,0.07,1.13,0.21c0.34,0.14,0.62,0.35,0.85,0.63
			l-0.64,0.6c-0.17-0.21-0.36-0.37-0.58-0.47c-0.22-0.1-0.46-0.15-0.71-0.15c-0.31,0-0.58,0.08-0.81,0.23s-0.42,0.35-0.57,0.61
			c-0.15,0.26-0.26,0.56-0.34,0.9c-0.08,0.34-0.11,0.71-0.11,1.1c0,0.39,0.04,0.75,0.11,1.09c0.08,0.34,0.19,0.64,0.34,0.9
			c0.15,0.26,0.34,0.46,0.58,0.62c0.23,0.15,0.5,0.23,0.82,0.23c0.28,0,0.53-0.07,0.75-0.2c0.22-0.13,0.39-0.29,0.52-0.48l0.62,0.58
			C151.58,27.92,151.32,28.15,151,28.31z"/>
		<path class="st0" d="M154.64,25.61v2.79h-1.03v-2.79l-2.01-4.19h1.12l1.41,3.28l1.45-3.28h1.1L154.64,25.61z"/>
	</g>
</g>
</svg>
