<?xml version="1.0" encoding="utf-8"?>
<!-- Generator: Adobe Illustrator 24.0.1, SVG Export Plug-In . SVG Version: 6.00 Build 0)  -->
<svg version="1.1" id="Layer_1" xmlns="http://www.w3.org/2000/svg" xmlns:xlink="http://www.w3.org/1999/xlink" x="0px" y="0px"
	 viewBox="0 0 186.11 45.88" style="enable-background:new 0 0 186.11 45.88;" xml:space="preserve">
<style type="text/css">
	.st0{fill:#FFFFFF;}
</style>
<g>
	<path class="st0" d="M180.78,9.52l2.22,5.63l2.21-5.63h0.9v6.42h-0.61v-5.55h-0.02l-2.2,5.55h-0.58l-2.2-5.55h-0.02v5.55h-0.61
		V9.52H180.78L180.78,9.52z M174.42,14.66c0.11,0.22,0.26,0.4,0.44,0.53c0.19,0.13,0.41,0.23,0.67,0.28
		c0.26,0.06,0.53,0.08,0.83,0.08c0.17,0,0.35-0.02,0.55-0.07c0.2-0.05,0.38-0.12,0.55-0.23c0.17-0.1,0.31-0.24,0.43-0.4
		c0.12-0.16,0.17-0.36,0.17-0.6c0-0.18-0.04-0.34-0.12-0.47c-0.08-0.13-0.19-0.24-0.31-0.33c-0.13-0.09-0.27-0.16-0.43-0.22
		c-0.15-0.06-0.31-0.1-0.46-0.14l-1.43-0.35c-0.19-0.05-0.37-0.11-0.54-0.18c-0.18-0.07-0.33-0.17-0.46-0.29
		c-0.13-0.12-0.24-0.27-0.32-0.44c-0.08-0.17-0.12-0.39-0.12-0.64c0-0.16,0.03-0.34,0.09-0.55c0.06-0.21,0.17-0.41,0.34-0.59
		c0.16-0.19,0.39-0.34,0.68-0.47c0.29-0.13,0.66-0.19,1.11-0.19c0.32,0,0.62,0.04,0.91,0.13c0.29,0.08,0.54,0.21,0.76,0.38
		c0.21,0.17,0.39,0.38,0.52,0.63c0.13,0.25,0.19,0.54,0.19,0.87h-0.61c-0.01-0.25-0.07-0.46-0.17-0.64
		c-0.1-0.18-0.23-0.33-0.39-0.46c-0.16-0.12-0.34-0.22-0.55-0.28c-0.21-0.06-0.42-0.09-0.65-0.09c-0.21,0-0.41,0.02-0.61,0.07
		c-0.2,0.05-0.37,0.12-0.51,0.22c-0.15,0.1-0.27,0.23-0.35,0.39c-0.09,0.16-0.14,0.36-0.14,0.6c0,0.15,0.03,0.28,0.08,0.39
		c0.05,0.11,0.12,0.2,0.21,0.28c0.09,0.08,0.19,0.14,0.31,0.19c0.12,0.05,0.24,0.09,0.37,0.12l1.56,0.39
		c0.23,0.06,0.44,0.13,0.64,0.22c0.2,0.09,0.38,0.19,0.53,0.32c0.15,0.13,0.27,0.29,0.36,0.47c0.09,0.18,0.13,0.41,0.13,0.67
		c0,0.07-0.01,0.17-0.02,0.29c-0.01,0.12-0.05,0.25-0.1,0.38c-0.06,0.14-0.14,0.27-0.24,0.41c-0.1,0.14-0.25,0.26-0.43,0.37
		c-0.18,0.11-0.41,0.2-0.68,0.27c-0.27,0.07-0.6,0.1-0.97,0.1c-0.38,0-0.73-0.04-1.05-0.13c-0.32-0.09-0.6-0.22-0.83-0.4
		c-0.23-0.18-0.4-0.41-0.53-0.69c-0.12-0.28-0.18-0.62-0.16-1.01h0.61C174.26,14.16,174.32,14.43,174.42,14.66L174.42,14.66z
		 M159.07,38.49c-0.17-2.42-0.11-5.9-0.08-8.88c-0.42-0.04-1-0.03-1.48-0.03c-5.22,0-7.3,1.75-7.3,4.84c0,3.2,1.63,4.47,5.46,4.47
		C156.82,38.89,158.16,38.74,159.07,38.49L159.07,38.49z M170.64,45.07c-6.89,0-12.24,0.76-17.66,0.76
		c-10.27,0-13.88-4.26-13.88-11.52c0-7.04,5.79-10.83,18.34-10.83c0.49,0,1.37,0.01,1.72,0.02l0.01-0.74c0-4.98-1.52-7.05-6.57-7.05
		c-3.58,0-7.34,1.28-9.85,2.63l-0.42-7.95c2.89-1.18,7.63-1.98,13.01-1.98c11,0,15.13,3.61,15.13,13.58c0,5.34-0.34,9.91-0.34,13.13
		C170.12,37.98,170.14,42.16,170.64,45.07L170.64,45.07z M52.91,24.02c4.83,0,7.14-1.62,7.14-5.1c0-2.47-1.68-3.83-4.28-3.83
		c-4.57,0-6.16,3.66-6.16,8.66l0,0.18C50.51,23.99,51.75,24.02,52.91,24.02L52.91,24.02z M19.97,38.49
		c-0.17-2.42-0.11-5.9-0.08-8.88c-0.42-0.04-1.01-0.03-1.49-0.03c-5.22,0-7.3,1.75-7.3,4.84c0,3.2,1.63,4.47,5.46,4.47
		C17.72,38.89,19.06,38.74,19.97,38.49L19.97,38.49z M54.26,30.07c-1.29,0-3.48-0.04-4.59-0.09l0,0.25c0,5.09,3.34,8.33,9.53,8.33
		c3.73,0,7.14-1.15,9.58-2.58l0.43,7.96c-2.46,1.15-7.17,1.94-11.81,1.94c-12.58,0-18.63-4.31-19.68-15.97
		c-1.43-0.07-3.6-0.14-6.55-0.17c-0.08,2.05-0.16,3.86-0.16,5.38c0,2.87,0.02,7.05,0.52,9.96c-6.89,0-12.23,0.76-17.66,0.76
		C3.61,45.83,0,41.57,0,34.31c0-7.04,5.8-10.83,18.34-10.83c0.49,0,1.37,0.01,1.72,0.02l0.01-0.74c0-4.98-1.53-7.05-6.57-7.05
		c-3.58,0-7.34,1.28-9.86,2.63l-0.42-7.95c2.89-1.18,7.64-1.98,13.02-1.98c11,0,15.13,3.61,15.13,13.58c0,0.55,0,1.09-0.01,1.62
		c2.69,0.01,4.64,0.06,6.44,0.17c1.11-9.84,6.04-15.33,18.34-15.33c10.17,0,14.84,4.28,14.84,10.71
		C70.98,26.61,65.3,30.07,54.26,30.07L54.26,30.07z M134.5,28.49c0-3.01,0.06-7.02,0.06-7.02c0-9.01-3.95-13.05-15.12-13.05
		c-6.27,0-10.74,1.1-17.74,1.1c0.39,6.32,0.4,14.14,0.37,18.97c0.03,4.92-0.16,13.74-0.37,16.58h12
		c-0.28-2.85-0.52-11.05-0.49-16.58c0-3.15,0.04-6.96,0.17-12.07c1.19-0.41,2.71-0.71,4.36-0.71c4.21,0,5.56,1.97,5.56,7.39
		c0,0,0.06,3.4,0.06,5.4c0,4.92-0.16,13.74-0.38,16.58h12.01C134.71,42.22,134.47,34.02,134.5,28.49L134.5,28.49z M96.77,37.09
		l0.49,7.92c-0.93,0.27-3.77,0.83-7.62,0.83c-7.9,0-12.11-3.33-12.11-11.45c0-6.36,0.12-13.34,0.18-17.17h-4.09
		c0.07-1.73-0.03-4.19,0-6.01C79.76,10.19,81.71,6.73,82.6,0h6.76c-0.24,2.77-0.45,6.8-0.45,9.52h7.18v7.7H88.8v13.85
		c0,5.37,1.09,6.83,4.78,6.83C94.72,37.9,96.08,37.55,96.77,37.09L96.77,37.09z"/>
</g>
</svg>
