<?xml version="1.0" encoding="utf-8"?>
<!-- Generator: Adobe Illustrator 25.0.0, SVG Export Plug-In . SVG Version: 6.00 Build 0)  -->
<svg version="1.1" id="Layer_1" xmlns="http://www.w3.org/2000/svg" xmlns:xlink="http://www.w3.org/1999/xlink" x="0px" y="0px"
	 viewBox="0 0 500 390.37" style="enable-background:new 0 0 500 390.37;" xml:space="preserve">
<style type="text/css">
	.st0{fill:#9B0000;}
	.st1{fill:#FFFFFF;}
</style>
<g id="N1T2IU_2_">
	<g>
		<path class="st0" d="M279.99,247.86c-24.49,0-48.98,0.09-73.46-0.09c-3.9-0.03-5.42,0.72-4.01,4.7c0.48,1.36,0.69,2.81,1.04,4.22
			c1.95,7.99,5.1,10.55,13.34,10.55c40.63,0.03,81.26-0.03,121.89,0.04c17.88,0.03,31.26,10.65,35.03,27.51
			c4.01,17.92-7.76,35.67-26.51,39.97c-17.25,3.96-36.03-8.03-39.86-25.38c-1.15-5.22-1.52-10.42,0.01-15.59
			c1.03-3.45-0.25-4.51-3.63-4.5c-21.22,0.07-42.45,0.16-63.67-0.05c-5.2-0.05-4.37,2.58-3.74,5.85
			c3.22,16.62-6.16,32.89-22.06,38.42c-15.28,5.31-31.58-0.53-40.19-14.41c-8.32-13.42-6.53-31.16,5.48-41.7
			c5.01-4.4,5.09-7.87,3.61-13.65c-6.13-23.85-11.64-47.87-17.37-71.82c-7.92-33.12-15.82-66.24-23.76-99.35
			c-1.69-7.06-3.66-8.58-10.96-8.61c-10.52-0.05-21.04,0.04-31.56-0.04c-7.31-0.05-11.93-4.18-12.03-10.51
			c-0.11-6.5,4.66-10.82,12.22-10.86c11.43-0.07,22.86-0.07,34.28-0.01c13.41,0.07,24.44,8.38,28.2,21.37
			c1.61,5.56,3.08,11.2,4.09,16.89c0.76,4.33,2.91,5.5,7.06,5.48c28.48-0.13,56.96-0.07,85.43-0.07c39.91,0,79.81,0,119.72,0
			c1.63,0,3.27-0.03,4.9,0.02c9.96,0.29,14.5,6.05,12.2,15.82c-6.45,27.33-13.01,54.63-19.51,81.94c-2.47,10.4-4.84,20.82-7.35,31.2
			c-2.43,10.06-5.5,12.6-15.89,12.64C328.6,247.92,304.29,247.86,279.99,247.86z M272.33,128.27c-7.07,0-14.15,0.1-21.22-0.04
			c-3.22-0.06-4.57,0.83-4.22,4.37c0.96,9.73,1.72,19.48,2.3,29.24c0.2,3.44,1.86,4.22,4.87,4.2c12.15-0.07,24.31-0.1,36.46,0.02
			c3.33,0.03,4.95-0.97,5.17-4.55c0.54-9.04,0.94-18.12,2.27-27.06c0.84-5.67-1.35-6.44-6.03-6.25
			C285.4,128.47,278.86,128.27,272.33,128.27z M199.3,128.27c-6.88,0-13.77,0.15-20.65-0.06c-3.97-0.12-5.69,0.75-4.52,5.22
			c2.47,9.45,4.52,19,6.79,28.51c0.53,2.23,1.42,4.06,4.26,4.05c13.04-0.04,26.09-0.02,39.13,0c2.21,0,3.32-0.75,3.09-3.24
			c-0.89-9.91-1.78-19.82-2.41-29.74c-0.24-3.85-2.08-4.87-5.57-4.78C212.71,128.38,206,128.27,199.3,128.27z M346.38,128.28
			c-7.24,0-14.49,0.06-21.73-0.03c-3.13-0.04-4.52,1.12-4.72,4.4c-0.6,9.74-1.39,19.48-2.29,29.2c-0.29,3.06,0.55,4.24,3.75,4.21
			c12.31-0.12,24.63-0.12,36.94-0.01c3.26,0.03,4.95-1.14,5.68-4.4c2.12-9.53,4.3-19.06,6.79-28.49c1-3.8-0.12-4.96-3.77-4.91
			C360.15,128.35,353.27,128.28,346.38,128.28z M272.4,188.07c-5.07,0-10.15,0.22-15.2-0.06c-4.63-0.26-6.12,1.64-5.7,6.07
			c0.87,9.18,1.54,18.37,2.18,27.56c0.18,2.55,1.01,4.16,3.83,4.16c9.96-0.01,19.91,0,29.87,0.01c2.07,0,3.47-0.69,3.64-3.04
			c0.72-9.91,1.43-19.83,2.27-29.73c0.33-3.93-1.54-5.09-5.12-5C282.91,188.18,277.65,188.08,272.4,188.07z M213.99,225.84
			c4.34,0,8.7-0.18,13.03,0.05c4,0.22,5.62-1.2,5.23-5.31c-0.87-9.17-1.53-18.37-2.23-27.56c-0.25-3.2-1.64-4.97-5.1-4.95
			c-11.04,0.06-22.09,0.09-33.13-0.03c-3.56-0.04-4.34,1.31-3.51,4.63c2.42,9.64,4.67,19.33,6.87,29.02
			c0.74,3.25,2.57,4.36,5.81,4.2C205.3,225.69,209.65,225.84,213.99,225.84z M336.98,188.07c-4.89,0-9.81,0.36-14.65-0.09
			c-5.57-0.52-7.35,2.11-7.66,7.1c-0.53,8.65-1.19,17.31-2.05,25.93c-0.36,3.6,0.81,4.93,4.4,4.88c9.23-0.13,18.46-0.11,27.69-0.01
			c2.88,0.03,4.34-1.24,4.96-3.9c2.25-9.68,4.42-19.38,6.84-29.02c0.91-3.6,0.01-5.04-3.79-4.92
			C347.48,188.2,342.23,188.08,336.98,188.07z M215.21,301.71c0.13-7.38-4.62-12.26-11.99-12.33c-7-0.07-12.65,5.38-12.57,12.1
			c0.08,6.24,5.9,12.22,12.08,12.4C209.5,314.08,215.08,308.64,215.21,301.71z M328.48,301.29c-0.1,7.02,5.28,12.6,12.16,12.59
			c6.24-0.01,12.16-5.86,12.37-12.23c0.22-6.53-5.21-12.09-11.96-12.27C333.55,289.19,328.59,293.9,328.48,301.29z"/>
	</g>
</g>
<g id="N1T2IU_1_">
	<g>
		<path class="st1" d="M276.08,244.05c-24.49,0-48.98,0.09-73.46-0.09c-3.9-0.03-5.42,0.72-4.01,4.7c0.48,1.36,0.69,2.81,1.04,4.22
			c1.95,7.99,5.1,10.55,13.34,10.55c40.63,0.03,81.26-0.03,121.89,0.04c17.88,0.03,31.26,10.65,35.03,27.51
			c4.01,17.92-7.76,35.67-26.51,39.97c-17.25,3.96-36.03-8.03-39.86-25.38c-1.15-5.22-1.52-10.42,0.01-15.59
			c1.03-3.45-0.25-4.51-3.63-4.5c-21.22,0.07-42.45,0.16-63.67-0.05c-5.2-0.05-4.37,2.58-3.74,5.85
			c3.22,16.62-6.16,32.89-22.06,38.42c-15.28,5.31-31.58-0.53-40.19-14.41c-8.32-13.42-6.53-31.16,5.48-41.7
			c5.01-4.4,5.09-7.87,3.61-13.65c-6.13-23.85-11.64-47.87-17.37-71.82c-7.92-33.12-15.82-66.24-23.76-99.35
			c-1.69-7.06-3.66-8.58-10.96-8.61c-10.52-0.05-21.04,0.04-31.56-0.04c-7.31-0.05-11.93-4.18-12.03-10.51
			c-0.11-6.5,4.66-10.82,12.22-10.86c11.43-0.07,22.86-0.07,34.28-0.01c13.41,0.07,24.44,8.38,28.2,21.37
			c1.61,5.56,3.08,11.2,4.09,16.89c0.76,4.33,2.91,5.5,7.06,5.48c28.48-0.13,56.96-0.07,85.43-0.07c39.91,0,79.81,0,119.72,0
			c1.63,0,3.27-0.03,4.9,0.02c9.96,0.29,14.5,6.05,12.2,15.82c-6.45,27.33-13.01,54.63-19.51,81.94c-2.47,10.4-4.84,20.82-7.35,31.2
			c-2.43,10.06-5.5,12.6-15.89,12.64C324.7,244.12,300.39,244.05,276.08,244.05z M268.42,124.47c-7.07,0-14.15,0.1-21.22-0.04
			c-3.22-0.06-4.57,0.83-4.22,4.37c0.96,9.73,1.72,19.48,2.3,29.24c0.2,3.44,1.86,4.22,4.87,4.2c12.15-0.07,24.31-0.1,36.46,0.02
			c3.33,0.03,4.95-0.97,5.17-4.55c0.54-9.04,0.94-18.12,2.27-27.06c0.84-5.67-1.35-6.44-6.03-6.25
			C281.49,124.66,274.95,124.47,268.42,124.47z M195.4,124.47c-6.88,0-13.77,0.15-20.65-0.06c-3.97-0.12-5.69,0.75-4.52,5.22
			c2.47,9.45,4.52,19,6.79,28.51c0.53,2.23,1.42,4.06,4.26,4.05c13.04-0.04,26.09-0.02,39.13,0c2.21,0,3.32-0.75,3.09-3.24
			c-0.89-9.91-1.78-19.82-2.41-29.74c-0.24-3.85-2.08-4.87-5.57-4.78C208.81,124.58,202.1,124.47,195.4,124.47z M342.48,124.48
			c-7.24,0-14.49,0.06-21.73-0.03c-3.13-0.04-4.52,1.12-4.72,4.4c-0.6,9.74-1.39,19.48-2.29,29.2c-0.29,3.06,0.55,4.24,3.75,4.21
			c12.31-0.12,24.63-0.12,36.94-0.01c3.26,0.03,4.95-1.14,5.68-4.4c2.12-9.53,4.3-19.06,6.79-28.49c1-3.8-0.12-4.96-3.77-4.91
			C356.24,124.55,349.36,124.48,342.48,124.48z M268.5,184.27c-5.07,0-10.15,0.22-15.2-0.06c-4.63-0.26-6.12,1.64-5.7,6.07
			c0.87,9.18,1.54,18.37,2.18,27.56c0.18,2.55,1.01,4.16,3.83,4.16c9.96-0.01,19.91,0,29.87,0.01c2.07,0,3.47-0.69,3.64-3.04
			c0.72-9.91,1.43-19.83,2.27-29.73c0.33-3.93-1.54-5.09-5.12-5C279,184.38,273.75,184.28,268.5,184.27z M210.09,222.04
			c4.34,0,8.7-0.18,13.03,0.05c4,0.22,5.62-1.2,5.23-5.31c-0.87-9.17-1.53-18.37-2.23-27.56c-0.25-3.2-1.64-4.97-5.1-4.95
			c-11.04,0.06-22.09,0.09-33.13-0.03c-3.56-0.04-4.34,1.31-3.51,4.63c2.42,9.64,4.67,19.33,6.87,29.02
			c0.74,3.25,2.57,4.36,5.81,4.2C201.39,221.88,205.75,222.04,210.09,222.04z M333.08,184.27c-4.89,0-9.81,0.36-14.65-0.09
			c-5.57-0.52-7.35,2.11-7.66,7.1c-0.53,8.65-1.19,17.31-2.05,25.93c-0.36,3.6,0.81,4.93,4.4,4.88c9.23-0.13,18.46-0.11,27.69-0.01
			c2.88,0.03,4.34-1.24,4.96-3.9c2.25-9.68,4.42-19.38,6.84-29.02c0.91-3.6,0.01-5.04-3.79-4.92
			C343.58,184.4,338.33,184.28,333.08,184.27z M211.3,297.91c0.13-7.38-4.62-12.26-11.99-12.33c-7-0.07-12.65,5.38-12.57,12.1
			c0.08,6.24,5.9,12.22,12.08,12.4C205.6,310.28,211.18,304.84,211.3,297.91z M324.57,297.49c-0.1,7.02,5.28,12.6,12.16,12.59
			c6.24-0.01,12.16-5.86,12.37-12.23c0.22-6.53-5.21-12.09-11.96-12.27C329.65,285.39,324.68,290.1,324.57,297.49z"/>
	</g>
</g>
</svg>
