<?xml version="1.0" encoding="utf-8"?>
<!-- Generator: Adobe Illustrator 24.0.1, SVG Export Plug-In . SVG Version: 6.00 Build 0)  -->
<svg version="1.1" id="Layer_1" xmlns="http://www.w3.org/2000/svg" xmlns:xlink="http://www.w3.org/1999/xlink" x="0px" y="0px"
	 viewBox="0 0 204.8 67.05" style="enable-background:new 0 0 204.8 67.05;" xml:space="preserve">
<style type="text/css">
	.st0{fill:#FFFFFF;}
</style>
<g>
	<path class="st0" d="M50.34,28.68c0,0.52-0.54,1.09-1.26,1.97c-2.42,2.98-7.82,8.28-7.82,21.4c0,6.8,1.12,9.62,1.12,12.8
		c0,1.45-0.29,2.2-1.04,2.2c-1.71,0-4.6-7.17-4.6-15.77c0-18,11.35-23.01,13.1-23.01C50.19,28.28,50.34,28.47,50.34,28.68
		 M21.73,28.28c1.75,0,13.1,5.01,13.1,23.01c0,8.6-2.89,15.77-4.6,15.77c-0.75,0-1.04-0.75-1.04-2.2c0-3.18,1.12-6,1.12-12.8
		c0-13.12-5.4-18.42-7.82-21.4c-0.72-0.88-1.26-1.46-1.26-1.97C21.23,28.47,21.37,28.28,21.73,28.28z"/>
	<path class="st0" d="M31.63,31.88c0,2.35,1.86,4.25,4.15,4.25c2.29,0,4.15-1.9,4.15-4.25c0-2.35-1.86-4.25-4.15-4.25
		C33.49,27.63,31.63,29.53,31.63,31.88"/>
	<path class="st0" d="M71.22,58.6c-5.9-3.63-14.87-7.39-27.87-8.59c-0.03,0.16-0.14,1.12-0.14,2.04c0,0.43,0.08,1,0.09,1.11
		c12.69,0.83,21.73,3.52,27.85,5.71c0.12,0.04,0.24,0.1,0.3,0.1c0.07,0,0.1-0.04,0.1-0.1C71.56,58.78,71.46,58.75,71.22,58.6
		 M42.51,10.1c-1-0.9-1.83-2.25-1.18-4.34c0.62-1.99,2.15-3.62,3.78-4.06c1.1,1.28,1.45,3.49,0.83,5.48
		C45.29,9.27,43.84,9.92,42.51,10.1z M52.09,18.06c-0.34-1.24-0.32-2.77,1.28-4.12c1.53-1.29,3.61-1.82,5.15-1.33
		c0.23,1.6-0.63,3.57-2.16,4.87C54.76,18.83,53.25,18.61,52.09,18.06z M52.39,30.09c0.4-1.19,1.27-2.42,3.31-2.64
		c1.95-0.21,3.93,0.51,4.91,1.75c-0.7,1.43-2.47,2.55-4.42,2.76C54.15,32.18,53.04,31.17,52.39,30.09z M48.93,34.44
		c0.66-0.91,1.71-1.72,3.51-1.38c1.72,0.33,3.21,1.46,3.72,2.78c-0.97,1.03-2.78,1.52-4.49,1.18
		C49.87,36.68,49.19,35.53,48.93,34.44z M38.5,23.07c-1.2-1.08-2.19-2.7-1.42-5.2c0.74-2.39,2.58-4.34,4.53-4.87
		c1.32,1.54,1.73,4.19,1,6.58C41.84,22.08,40.1,22.85,38.5,23.07z M43.06,25.72c-0.38-1.39-0.35-3.11,1.45-4.64
		c1.72-1.45,4.06-2.04,5.8-1.5c0.26,1.81-0.71,4.01-2.43,5.47C46.07,26.58,44.37,26.33,43.06,25.72z M46.09,16
		c-0.87-1.39-1.4-3.26,0.06-5.5c1.39-2.14,3.74-3.54,5.8-3.52c0.86,1.88,0.54,4.59-0.85,6.73C49.64,15.95,47.72,16.23,46.09,16z
		 M52.23,24.44c0.02-1.53,0.54-3.26,2.81-4.29c2.17-0.98,4.71-0.9,6.32,0.16c-0.26,1.91-1.89,3.87-4.05,4.85
		C55.04,26.19,53.39,25.44,52.23,24.44z M32.44,6.92c0-2.89,1.36-5.67,3.34-6.92c1.98,1.25,3.34,4.03,3.34,6.92
		c0,3.03-1.66,4.49-3.34,5.27C34.09,11.41,32.44,9.95,32.44,6.92z M0,58.88c0,0.05,0.04,0.1,0.11,0.1c0.06,0,0.18-0.05,0.3-0.1
		c6.13-2.2,15.17-4.89,27.85-5.71c0.02-0.11,0.09-0.68,0.09-1.11c0-0.92-0.11-1.88-0.14-2.04C15.21,51.21,6.24,54.98,0.34,58.6
		C0.11,58.75,0,58.78,0,58.88z M25.62,7.18c-0.61-1.99-0.27-4.2,0.83-5.48c1.63,0.44,3.16,2.07,3.78,4.06
		c0.64,2.09-0.19,3.44-1.18,4.34C27.72,9.92,26.27,9.27,25.62,7.18z M15.2,17.47c-1.53-1.3-2.39-3.26-2.16-4.87
		c1.55-0.49,3.63,0.04,5.16,1.33c1.6,1.36,1.63,2.88,1.28,4.12C18.31,18.61,16.8,18.83,15.2,17.47z M15.37,31.96
		c-1.95-0.21-3.73-1.33-4.42-2.76c0.99-1.25,2.96-1.96,4.91-1.75c2.04,0.22,2.91,1.45,3.31,2.64
		C18.52,31.17,17.42,32.18,15.37,31.96z M19.9,37.03c-1.72,0.33-3.52-0.16-4.49-1.18c0.51-1.32,2-2.45,3.72-2.78
		c1.8-0.35,2.85,0.47,3.51,1.38C22.37,35.53,21.7,36.68,19.9,37.03z M28.95,19.57c-0.74-2.39-0.32-5.04,0.99-6.58
		c1.95,0.53,3.79,2.48,4.53,4.87c0.78,2.5-0.22,4.13-1.42,5.2C31.47,22.85,29.72,22.08,28.95,19.57z M23.69,25.05
		c-1.72-1.46-2.68-3.67-2.43-5.47c1.74-0.55,4.08,0.04,5.79,1.5c1.8,1.53,1.83,3.25,1.45,4.64C27.19,26.33,25.49,26.58,23.69,25.05z
		 M20.46,13.71c-1.39-2.14-1.72-4.85-0.85-6.73c2.06-0.03,4.41,1.37,5.8,3.52c1.46,2.24,0.93,4.12,0.06,5.5
		C23.85,16.23,21.92,15.95,20.46,13.71z M14.25,25.16c-2.17-0.98-3.79-2.94-4.05-4.85c1.6-1.06,4.15-1.14,6.32-0.16
		c2.27,1.03,2.8,2.76,2.81,4.29C18.17,25.44,16.52,26.19,14.25,25.16z"/>
	<path class="st0" d="M144.85,50.03V33.38c0-2.23-0.21-6.51-0.26-7.48h5.17l0.25,3.38h0.11c0.6-0.95,2.54-3.93,7.05-3.93
		c5.45,0,8.48,4,8.48,8.99v15.68h-5.75V35.49c0-3.06-1.71-5.38-4.64-5.38c-3.03,0-4.64,2.44-4.64,5.38v14.54H144.85 M111.22,25.97
		h-5.76v24.05h5.76V25.97z M193.28,50.03c-0.18-1.35-0.73-4.89-0.73-7.95V26.45c-0.9-0.23-4.16-1.09-7.92-1.09
		c-9.76,0-13.95,6.54-13.95,13.61c0,6.5,3.27,11.6,9.53,11.6c4.58,0,6.63-2.96,7.41-4.54h0.15c0.06,0.75,0.27,3.3,0.33,4H193.28z
		 M186.8,38.09c0,5.52-2.16,7.82-5.28,7.82c-3.15,0-4.92-2.67-4.92-7.36c0-4.78,2.74-8.74,7.81-8.74c1.04,0,1.77,0.1,2.39,0.25
		V38.09z M99.71,44.14c-1.56,0.73-4.07,1.22-6.5,1.22c-6.61,0-11.48-4.73-11.48-11.94c0-7.16,4.84-11.94,11.48-11.94
		c3.3,0,5.64,0.8,6.5,1.21v-5.15c-1.44-0.54-3.79-1.08-7.1-1.08c-10.27,0-17.16,7.09-17.16,16.96c0,9.33,6.35,16.96,17.16,16.96
		c3.17,0,5.56-0.5,7.1-1.08V44.14z M132.87,47.15v1.79c0,4.92-3.03,6.83-6.79,6.83c-3.38,0-5.87-1.01-6.66-1.29v4.87
		c0.64,0.18,3.39,1.04,7.3,1.04c6.95,0,11.6-2.87,11.6-12.71V26.45c-0.89-0.23-4.16-1.09-7.92-1.09c-9.75,0-13.95,6.54-13.95,13.61
		c0,6.5,3.27,11.6,9.54,11.6c4.13,0,6.12-2.5,6.76-3.42H132.87z M132.57,38.09c0,5.52-2.16,7.82-5.29,7.82
		c-3.15,0-4.91-2.67-4.91-7.36c0-4.78,2.74-8.74,7.81-8.74c1.04,0,1.77,0.1,2.39,0.25V38.09z M104.77,19.68c0,1.93,1.6,3.5,3.56,3.5
		c1.97,0,3.56-1.56,3.56-3.5c0-1.93-1.59-3.49-3.56-3.49C106.37,16.19,104.77,17.76,104.77,19.68z"/>
	<path class="st0" d="M203.86,49.32c-0.63,0.63-1.38,0.94-2.27,0.94c-0.89,0-1.64-0.31-2.26-0.94c-0.62-0.62-0.93-1.38-0.93-2.27
		c0-0.88,0.31-1.63,0.94-2.26c0.62-0.62,1.37-0.93,2.26-0.93c0.88,0,1.64,0.31,2.27,0.93c0.63,0.62,0.94,1.37,0.94,2.26
		C204.8,47.94,204.49,48.69,203.86,49.32 M199.65,45.1c-0.54,0.54-0.8,1.19-0.8,1.95c0,0.77,0.27,1.42,0.8,1.96
		c0.53,0.54,1.18,0.81,1.95,0.81c0.76,0,1.41-0.27,1.95-0.81c0.53-0.54,0.8-1.2,0.8-1.96c0-0.76-0.27-1.41-0.8-1.95
		c-0.54-0.54-1.19-0.81-1.95-0.81C200.84,44.29,200.19,44.56,199.65,45.1z M201.53,45.28c0.44,0,0.76,0.04,0.96,0.13
		c0.36,0.15,0.55,0.45,0.55,0.89c0,0.31-0.11,0.55-0.34,0.69c-0.12,0.08-0.29,0.14-0.51,0.17c0.27,0.04,0.48,0.16,0.6,0.34
		c0.13,0.19,0.19,0.37,0.19,0.55v0.26c0,0.08,0,0.17,0.01,0.26c0.01,0.09,0.02,0.15,0.03,0.18l0.02,0.04h-0.58
		c0-0.01-0.01-0.02-0.01-0.03c0-0.01-0.01-0.02-0.01-0.04l-0.01-0.11v-0.28c0-0.41-0.11-0.67-0.33-0.8
		c-0.13-0.08-0.36-0.11-0.69-0.11h-0.49v1.38h-0.62v-3.51H201.53z M202.2,45.84c-0.16-0.09-0.41-0.13-0.75-0.13h-0.53v1.27h0.56
		c0.26,0,0.46-0.03,0.59-0.08c0.24-0.1,0.36-0.28,0.36-0.55C202.44,46.1,202.36,45.92,202.2,45.84z"/>
</g>
</svg>
