<?xml version="1.0" encoding="utf-8"?>
<!-- Generator: Adobe Illustrator 24.0.1, SVG Export Plug-In . SVG Version: 6.00 Build 0)  -->
<svg version="1.1" id="Layer_1" xmlns="http://www.w3.org/2000/svg" xmlns:xlink="http://www.w3.org/1999/xlink" x="0px" y="0px"
	 viewBox="0 0 193.04 69.51" style="enable-background:new 0 0 193.04 69.51;" xml:space="preserve">
<style type="text/css">
	.st0{fill:#FFFFFF;}
</style>
<g>
	<polygon class="st0" points="27.89,30.09 45.76,30.09 45.01,35.12 34.39,35.12 33.78,39.19 42.86,39.19 42.16,43.93 33.08,43.93 
		31.65,53.48 24.4,53.48 	"/>
	<path class="st0" d="M44.26,53.48l3.48-23.38H59.8c2.23,0,3.92,0.19,5.04,0.58c1.13,0.38,1.97,1.1,2.55,2.13
		c0.57,1.04,0.74,2.3,0.52,3.79c-0.19,1.3-0.64,2.42-1.33,3.36c-0.7,0.94-1.58,1.7-2.64,2.29c-0.68,0.37-1.57,0.68-2.69,0.92
		c0.82,0.29,1.4,0.58,1.75,0.86c0.24,0.19,0.56,0.6,0.97,1.23c0.41,0.63,0.67,1.12,0.79,1.46l2.51,6.76H59.1l-2.79-7.15
		c-0.35-0.92-0.7-1.52-1.04-1.8c-0.47-0.36-1.03-0.54-1.7-0.54h-0.64l-1.42,9.49H44.26 M53.59,39.58h3.06
		c0.33,0,0.99-0.11,1.98-0.32c0.49-0.1,0.92-0.34,1.29-0.73c0.36-0.4,0.58-0.85,0.66-1.35c0.11-0.76-0.04-1.33-0.46-1.74
		c-0.42-0.4-1.29-0.61-2.62-0.61h-3.19L53.59,39.58z"/>
	<polygon class="st0" points="71.43,30.09 90.84,30.09 90.1,35.06 77.94,35.06 77.39,38.73 88.64,38.73 87.93,43.53 76.68,43.53 
		75.99,48.17 88.5,48.17 87.7,53.48 67.94,53.48 	"/>
	<polygon class="st0" points="93.4,30.09 112.82,30.09 112.08,35.06 99.91,35.06 99.37,38.73 110.62,38.73 109.9,43.53 98.65,43.53 
		97.96,48.17 110.47,48.17 109.68,53.48 89.92,53.48 	"/>
	<path class="st0" d="M115.49,30.09h10.74c2.12,0,3.79,0.29,5.01,0.86c1.22,0.58,2.17,1.4,2.86,2.47c0.69,1.08,1.12,2.33,1.29,3.75
		c0.17,1.43,0.13,2.94-0.1,4.53c-0.37,2.5-0.95,4.44-1.72,5.82c-0.77,1.38-1.74,2.53-2.88,3.46c-1.15,0.93-2.33,1.55-3.54,1.86
		c-1.65,0.43-3.12,0.64-4.4,0.64h-10.74L115.49,30.09 M121.95,35.4l-1.9,12.77h1.77c1.51,0,2.6-0.17,3.29-0.5
		c0.69-0.33,1.27-0.92,1.76-1.75c0.49-0.83,0.87-2.19,1.15-4.05c0.37-2.47,0.22-4.17-0.45-5.09c-0.67-0.91-1.94-1.37-3.81-1.37
		H121.95z"/>
	<path class="st0" d="M136.93,41.8c0.57-3.82,2.08-6.79,4.53-8.92c2.45-2.12,5.57-3.19,9.37-3.19c3.9,0,6.75,1.04,8.54,3.13
		c1.8,2.09,2.42,5.02,1.86,8.78c-0.41,2.73-1.2,4.97-2.38,6.72c-1.19,1.75-2.72,3.11-4.6,4.08c-1.89,0.97-4.13,1.46-6.73,1.46
		c-2.64,0-4.76-0.42-6.37-1.26c-1.61-0.84-2.81-2.17-3.62-3.99C136.72,46.81,136.52,44.53,136.93,41.8 M144.18,41.83
		c-0.35,2.35-0.16,4.05,0.56,5.08c0.72,1.03,1.84,1.54,3.35,1.54c1.55,0,2.82-0.51,3.82-1.51c1-1.01,1.69-2.82,2.09-5.43
		c0.33-2.2,0.12-3.8-0.62-4.82c-0.73-1.01-1.86-1.52-3.38-1.52c-1.46,0-2.7,0.52-3.74,1.54C145.23,37.75,144.53,39.45,144.18,41.83"
		/>
	<polygon class="st0" points="164.71,30.09 174.28,30.09 175.77,44.31 181.51,30.09 191.04,30.09 187.55,53.48 181.62,53.48 
		184.28,35.63 177.06,53.48 171.7,53.48 169.83,35.63 167.17,53.48 161.23,53.48 	"/>
	<path class="st0" d="M16.63,10.76c1.14-1.47,1.96-3.05,1.65-4.98c-0.23-1.44-1.11-2.64-2.09-3c0.02,0.04,1.54,3.02-3.76,8.46
		c-1.5,1.76-3.14,3.08-3.93,5.5c0.2-2.22,2.81-5.48,3.25-6.03c3.09-3.87,3.91-6.55,3.72-8.09c-0.22-1.76-1.8-2.42-3.32-2.61
		c0,0,2.85,3.04-1.9,8.17c-5.13,4.94-9.37,12.6-2.34,19.99c0,0-1.84-5.36,3.29-11.25C13,14.85,14.95,12.91,16.63,10.76 M19.44,9.02
		c0,0-1.09,3.17-6.54,8.75c-2.47,3.13-1.92,5.63-0.25,8.63c-0.29-0.7-0.64-3.03,4.02-7.83c0.46-0.48,0.87-0.93,1.24-1.37
		c-0.25,0.94-0.99,2.42-1.55,3.54c-1.92,3.85-0.77,4.21-0.27,5.27c0.15-2.98,3.92-5.3,5.28-7.45C23.49,15.24,22.05,11.76,19.44,9.02
		 M12.65,26.4c0.07,0.16,0.13,0.24,0.13,0.24C12.74,26.56,12.7,26.48,12.65,26.4"/>
	<path class="st0" d="M13.02,58.4c-0.23,0.22-0.46,0.44-0.67,0.65c-0.2,0.2-0.42,0.41-0.64,0.62c1.99,2.06,3.93,4.63,2.19,7.41
		c1.04-1.61,1.56-3.5,1.16-5.46C14.83,60.45,13.99,59.42,13.02,58.4 M5.39,39.01c-0.03,0.18-0.04,0.37-0.04,0.57
		c0.09,3.04,1.54,4.64,2.56,5.65c0.4-0.36,0.81-0.69,1.23-0.97c0.59-0.39,1.09-0.71,1.51-1c-0.78-1.04-1.71-2.66-0.98-4.26H5.39
		 M11.3,49.5c0.65,0.7,1.2,1.48,1.48,2.36c1.25,4.01-4.78,6.29-5.47,9.75c-0.39,1.97,0.12,3.85,1.16,5.46
		c-2.16-3.43,1.3-6.54,3.54-8.76c1.55-1.54,3.82-3.3,4.07-5.92c0.18-1.94-0.79-3.63-1.95-4.96C13.19,48.05,12.17,48.7,11.3,49.5
		 M1,29.99l1.03,4.5h18.22l1.04-4.5H1 M13.29,39.01c0.12,0.51,0.18,1.1,0.11,1.74c-0.26,2.35-1.18,2.67-3.53,4.24
		c-2.35,1.57-4.57,4.55-4.05,7.21c0.4,2.04,2.33,4,3.42,5.02l1.18-1.15c-0.9-0.95-2.18-2.63-1.6-4.49c0.78-2.51,3.66-4.23,5.36-5.33
		c2.55-1.66,2.88-4.55,2.88-6.12c0-0.35-0.06-0.73-0.14-1.12H13.29 M3.9,37.81h14.96l0.32-2.12H3.51L3.9,37.81 M11.06,63.1
		c-1.22,0-2.21,0.99-2.21,2.21c0,1.22,0.99,2.2,2.21,2.2c1.22,0,2.21-0.99,2.21-2.2C13.27,64.09,12.28,63.1,11.06,63.1"/>
	<polygon class="st0" points="133.72,54.95 132.03,66.34 128.5,66.34 129.17,61.71 125.36,61.71 124.7,66.34 121.13,66.34 
		122.82,54.95 126.36,54.95 125.76,58.98 129.57,58.98 130.19,54.95 	"/>
	<polygon class="st0" points="144.08,54.95 143.72,57.4 137.95,57.4 137.69,59.21 143.26,59.21 142.9,61.51 137.33,61.51 137,63.75 
		143.27,63.75 142.88,66.34 133.1,66.34 134.78,54.95 	"/>
	<path class="st0" d="M155.37,66.34h-3.45l-0.28-1.86h-3.71l-0.76,1.86h-3.79l5.67-11.39h3.75L155.37,66.34z M151.25,62.06
		l-0.63-4.15h-0.03l-1.68,4.15H151.25z"/>
	<polygon class="st0" points="165.44,63.56 165.04,66.34 155.87,66.34 157.52,54.95 161.07,54.95 159.8,63.56 	"/>
	<polygon class="st0" points="175.82,54.95 175.43,57.75 171.73,57.75 170.45,66.34 166.91,66.34 168.19,57.75 164.66,57.75 
		165.06,54.95 	"/>
	<polygon class="st0" points="187.46,54.95 185.77,66.34 182.24,66.34 182.92,61.71 179.1,61.71 178.44,66.34 174.88,66.34 
		176.56,54.95 180.1,54.95 179.5,58.98 183.31,58.98 183.94,54.95 	"/>
</g>
</svg>
