<?xml version="1.0" encoding="utf-8"?>
<!-- Generator: Adobe Illustrator 24.0.1, SVG Export Plug-In . SVG Version: 6.00 Build 0)  -->
<svg version="1.1" id="Layer_1" xmlns="http://www.w3.org/2000/svg" xmlns:xlink="http://www.w3.org/1999/xlink" x="0px" y="0px"
	 viewBox="0 0 192.64 43.02" style="enable-background:new 0 0 192.64 43.02;" xml:space="preserve">
<style type="text/css">
	.st0{fill:#FFFFFF;}
</style>
<g>
	<path class="st0" d="M181.97,4.79l-0.44-0.01V1.14h-7.53v40.64h8.66V19.11c0-3.69,0.5-7.9,4.24-9.74c1.53-0.81,3.97-1.47,5.73-1.47
		V0.04C188.4,0.18,184.54,1.28,181.97,4.79L181.97,4.79z M146.26,35.99c-8.08,0-14.4-6.71-14.4-14.37c0-7.96,6.1-14.6,14.48-14.6
		c8.61,0,14.63,6.41,14.63,14.6C160.97,29.5,154.49,35.99,146.26,35.99L146.26,35.99z M160.46,6.42C157.28,2.07,151.84,0,146.37,0
		c-12.82,0-22.43,9.29-22.43,21.68c0,12.31,9.77,21.31,22.43,21.31c5.6,0,11.05-2.27,14.09-6.89v5.69h8.66V1.14h-8.66V6.42
		L160.46,6.42z M100.99,7.05c5.62,0,9.49,2.86,11.85,7.64h8.73c-2.36-8.74-11.62-14.62-20.66-14.62c-12.46,0-21.64,9.48-21.64,21.37
		c0,11.9,9.04,21.45,21.57,21.45c9.65,0,17.62-5.73,20.73-14.47h-8.81c-2.2,4.7-6.53,7.49-11.92,7.49
		c-8.43,0-13.67-6.76-13.67-14.47C87.16,13.44,92.33,7.05,100.99,7.05L100.99,7.05z M63.41,16.77c-2.89-0.88-6.54-1.69-6.54-5.3
		c0-2.72,2.28-4.34,4.94-4.34c3.19,0,5.02,1.99,5.4,4.93h7.91C74.97,5,69.42,0.14,62.19,0.14c-6.92,0-13.23,4.78-13.23,11.77
		c0,14.42,19.24,10,19.24,18.53c0,3.53-2.59,5.59-6.08,5.59c-4.71,0-5.86-3.23-6.16-7.42h-8.68c0,6.4,3.06,11.32,9.29,13.45
		c1.75,0.59,3.57,0.96,5.4,0.96c8.06,0,14.14-5,14.14-13.02C76.11,22.13,70.33,18.82,63.41,16.77L63.41,16.77z M22.79,35.99
		c-8.23,0-14.86-6.56-14.86-14.52c0-7.96,6.63-14.45,14.86-14.45c8.23,0,14.86,6.41,14.86,14.37C37.65,29.36,31.1,35.99,22.79,35.99
		L22.79,35.99z M22.79,0.02C10.59,0.02,0,9.23,0,21.25c0,12.09,10.37,21.75,22.79,21.75c12.8,0,22.79-9.95,22.79-21.6
		C45.58,9.31,35.14,0.02,22.79,0.02L22.79,0.02z"/>
</g>
</svg>
