<?xml version="1.0" encoding="utf-8"?>
<!-- Generator: Adobe Illustrator 24.0.1, SVG Export Plug-In . SVG Version: 6.00 Build 0)  -->
<svg version="1.1" id="Layer_1" xmlns="http://www.w3.org/2000/svg" xmlns:xlink="http://www.w3.org/1999/xlink" x="0px" y="0px"
	 viewBox="0 0 205.55 34.89" style="enable-background:new 0 0 205.55 34.89;" xml:space="preserve">
<style type="text/css">
	.st0{fill:#FFFFFF;}
</style>
<g>
	<g>
		<path class="st0" d="M0.23,0.31c10.79,0.43,23.92-2.1,29.91,7.64c0.63,1.02,2.4,4.41,3.41,6.61c3.31,7.2,6.1,15.14,13.33,19.87
			c-7.53,0.84-16.93,1.05-23.1-4.08C13.66,21.46,15.63,3.68,0.29,0.45C-0.06,0.38-0.11,0.29,0.23,0.31"/>
		<path class="st0" d="M53.88,10.81c4.08,8.05,6.17,17.03,14,23.62c-7.21,0.84-16.31,1.05-22.05-4.08
			c-8.78-9.09-9.2-22.68-20.06-30.1C37.05-0.68,48.24,0.57,53.88,10.81"/>
	</g>
	<path class="st0" d="M98.86,10.12c-1.28,0.11-2.08,0.98-2.51,2.33l-7.28,21.92h-0.99l-6.12-17.04h-0.25l-6.63,17.04h-1.02
		l-7.72-21.92c-0.62-1.75-0.98-2.11-2.51-2.33V9.21h10.71v0.91c-1.31,0.11-2.33,0.18-2.33,1.53c0,0.4,0.11,0.8,0.26,1.2L76.79,26
		h0.08l4.26-11.11l-1.27-3.49c-0.48-0.8-0.87-1.2-2.62-1.27V9.21h11.36v0.91c-1.57,0.11-2.62,0.15-2.62,1.38
		c0,0.43,0.29,1.31,0.51,2l3.9,12.13h0.07l4.04-12.38c0.11-0.37,0.26-0.77,0.26-1.53c0-1.49-1.27-1.53-2.51-1.6V9.21h6.63V10.12"/>
	<path class="st0" d="M109.83,29.78c-2.22,3.39-4.3,4.55-7.21,4.55c-3.68,0-7.39-2.69-7.39-8.92c0-5.39,3.31-8.81,7.5-8.81
		c6.33,0,6.81,6.34,6.92,8.3h-9.18c0.11,3.09,0.91,6.81,4.37,6.81c2.15,0,3.42-1.6,4.11-2.44L109.83,29.78 M105.17,23.56
		c-0.04-1.13-0.04-3.02-0.33-4.12c-0.22-0.8-0.69-1.71-1.97-1.71c-1.35,0-2.59,0.8-2.59,5.83H105.17z"/>
	<path class="st0" d="M119.22,33.82h-8.7v-0.87c1.46,0,1.86-1.31,1.86-2.18V12.19c0-0.4-0.07-2.11-1.86-2.11V9.21h6.92v21.56
		c0,1.05,0.36,2.18,1.78,2.18V33.82"/>
	<path class="st0" d="M129.35,33.82h-8.7v-0.87c1.46,0,1.86-1.31,1.86-2.18V12.19c0-0.4-0.07-2.11-1.86-2.11V9.21h6.92v21.56
		c0,1.05,0.37,2.18,1.79,2.18V33.82"/>
	<path class="st0" d="M153.84,29.2c-2.66,3.02-5.5,5.32-10.16,5.32c-8.49,0-13.08-5.97-13.08-12.78c0-7.39,5.25-13.07,12.9-13.07
		c3.28,0,6.08,1.79,7.03,1.79c0.98,0,1.31-0.77,1.67-1.68h0.98v8.52h-0.91c-1.27-3.17-4.33-7.43-8.48-7.43
		c-5.32,0-6.74,5.57-6.74,11.73c0,2.18,0.22,5.68,1.57,8.01c1.53,2.62,4.41,3.17,5.54,3.17c2.84,0,5.57-1.09,8.59-4.48L153.84,29.2"
		/>
	<path class="st0" d="M171.25,32.26c-1.02,1.2-2.37,2.07-4.01,2.07c-2.55,0-2.84-1.53-3.06-2.55c-2.37,2.36-4.92,2.55-5.79,2.55
		c-1.75,0-4-1.13-4-3.89c0-3.79,4.62-5.25,9.8-6.81v-2.66c0-1.86-0.51-3.2-3.21-3.2c-1.31,0-2.15,0.73-2.15,1.31
		c0,0.76,1.09,1.06,1.09,2.48c0,0.65-0.55,2.04-2.44,2.04c-0.44,0-2.4,0-2.4-2.48c0-2.29,2.29-4.51,6.81-4.51
		c4.04,0,7.28,1.56,7.28,4.99v9.5c0,0.22,0,0.91,0.8,0.91c0.14,0,0.26-0.03,0.36-0.15l0.36-0.36L171.25,32.26 M164.15,24.9
		c-0.84,0.18-4.44,1.24-4.44,4.41c0,1.13,0.55,2.44,1.86,2.44c1.24,0,2.07-0.98,2.59-1.57V24.9z"/>
	<path class="st0" d="M181.88,33.82h-9.69v-0.87c1.16-0.22,1.97-0.36,1.97-2.18V20.06c0-1.82-0.88-2-1.97-2.15v-0.87h6.88v2.88h0.07
		c0.77-1.13,2.4-3.31,4.77-3.31c2.47,0,3.02,1.97,3.02,2.84c0,0.95-0.51,2.44-2.33,2.44c-2.11,0-2.07-2.15-3.24-2.15
		c-0.55,0-2.15,0.8-2.15,3.46v6.88c0,2.22,0.44,2.77,2.66,2.88V33.82"/>
	<path class="st0" d="M201.62,29.78c-2.22,3.39-4.3,4.55-7.21,4.55c-3.68,0-7.39-2.69-7.39-8.92c0-5.39,3.32-8.81,7.5-8.81
		c6.34,0,6.81,6.34,6.92,8.3h-9.18c0.11,3.09,0.91,6.81,4.37,6.81c2.15,0,3.42-1.6,4.12-2.44L201.62,29.78 M196.96,23.56
		c-0.03-1.13-0.03-3.02-0.33-4.12c-0.22-0.8-0.69-1.71-1.97-1.71c-1.35,0-2.59,0.8-2.59,5.83H196.96z"/>
	<path class="st0" d="M204.84,18.22c-0.46,0.44-1,0.66-1.64,0.66c-0.66,0-1.21-0.23-1.66-0.68c-0.45-0.45-0.68-1-0.68-1.66
		c0-0.68,0.24-1.25,0.73-1.7c0.46-0.42,0.99-0.63,1.61-0.63c0.65,0,1.2,0.23,1.65,0.68c0.46,0.46,0.69,1.01,0.69,1.65
		C205.55,17.2,205.31,17.76,204.84,18.22 M201.84,15.18c-0.37,0.38-0.56,0.83-0.56,1.36c0,0.54,0.19,1,0.57,1.38
		c0.38,0.38,0.83,0.57,1.36,0.57c0.53,0,0.98-0.19,1.36-0.57c0.38-0.38,0.56-0.84,0.56-1.38c0-0.52-0.19-0.97-0.56-1.36
		c-0.38-0.39-0.83-0.58-1.36-0.58C202.67,14.59,202.22,14.79,201.84,15.18z M202.18,17.84v-2.59c0.16,0,0.4,0,0.72,0
		c0.32,0,0.5,0,0.54,0.01c0.21,0.01,0.38,0.06,0.51,0.13c0.23,0.13,0.35,0.33,0.35,0.62c0,0.22-0.06,0.38-0.18,0.47
		c-0.12,0.1-0.27,0.16-0.45,0.17c0.16,0.03,0.29,0.08,0.37,0.15c0.15,0.12,0.23,0.31,0.23,0.58v0.23c0,0.03,0,0.05,0.01,0.08
		c0.01,0.03,0.01,0.05,0.02,0.08l0.02,0.07h-0.65c-0.02-0.08-0.04-0.2-0.05-0.36c-0.01-0.16-0.02-0.26-0.04-0.32
		c-0.04-0.09-0.1-0.15-0.19-0.19c-0.05-0.02-0.13-0.04-0.23-0.04L203,16.92h-0.14v0.91H202.18z M203.41,15.75
		c-0.09-0.04-0.23-0.06-0.39-0.06h-0.17v0.76h0.26c0.16,0,0.28-0.03,0.37-0.1c0.09-0.06,0.13-0.17,0.13-0.31
		C203.63,15.91,203.55,15.8,203.41,15.75z"/>
</g>
</svg>
