<?xml version="1.0" encoding="utf-8"?>
<!-- Generator: Adobe Illustrator 24.0.1, SVG Export Plug-In . SVG Version: 6.00 Build 0)  -->
<svg version="1.1" id="Layer_1" xmlns="http://www.w3.org/2000/svg" xmlns:xlink="http://www.w3.org/1999/xlink" x="0px" y="0px"
	 viewBox="0 0 897.1 165.8" style="enable-background:new 0 0 897.1 165.8;" xml:space="preserve">
<style type="text/css">
	.st0{fill:#FFFFFF;}
</style>
<path class="st0" d="M125.3,45.4c-2.2-0.1-3.9-0.7-4.6-1.3c-1.2-0.9-1.6-3.3-1.6-6.8V11.8l28.7,35.6h1.2V13.1c0-3.4,0.1-5.7,1.2-6.7
	c0.9-0.9,2.5-1.6,5.1-1.8V3.7H140v1.2c2.2,0.1,3.9,0.7,4.6,1.3c1.2,0.9,1.6,3.3,1.6,6.8v21.7l-25.1-31h-11v1.2
	c1.3,0,2.2,0.1,2.9,0.5c0.7,0.1,1.6,0.9,2.5,2.1l1.2,1.2V37c0,3.4-0.5,5.7-1.2,6.7c-0.9,0.9-2.5,1.6-5.2,1.8h-0.1v1.2h15.3v-1.3
	H125.3z M170.2,45c-1.6,0-2.8-0.1-3.3-0.5c-0.9-0.5-1.3-1.2-1.3-2.2c0-0.5,0-1.2,0.5-2.2c0.1-0.9,1.3-3.4,2.9-7.8h17.2l2.8,6.4
	c0.5,0.9,0.7,1.8,0.9,2.5c0.1,0.7,0.1,1.3,0.1,1.6c0,0.9-0.5,1.6-0.9,1.8c-0.7,0.1-1.8,0.5-3.5,0.7v1.6h16.5v-1.2
	c-1.3-0.1-2.5-0.5-3.3-1.2c-0.7-0.7-1.3-2.1-2.5-4.6L180.2,3.3h-1.3l-13.5,31.6c-2.1,4.7-3.4,7.5-4.4,8.6c-0.7,0.9-2.1,1.6-3.5,1.8
	v1.2l13.1-0.1v-1.2h-0.4V45z M177.5,11.9l7.5,17.8h-14.8L177.5,11.9z M201.3,7.8c1.3-1.2,3.5-1.6,7.3-1.6h3.5v32.4
	c0,2.8-0.1,4.6-0.9,5.2c-0.7,0.7-2.2,1.2-5.1,1.3v0.7h19v-1.2c-2.8-0.1-4.6-0.7-5.2-1.2c-0.7-0.5-1.2-2.1-1.2-4.6v-33h3.5
	c3.5,0,6.2,0.5,7.3,1.6c1.2,1.2,2.2,3.4,2.9,6.8h1.6l-0.5-11h-36.6l-0.5,11.2h1.6C199.1,11.1,199.9,9,201.3,7.8z M255.6,44.9
	c-2.5-0.1-4.4-0.7-5.1-1.2c-0.7-0.5-1.2-2.1-1.2-4.6V10.5c0-2.2,0.5-3.9,1.2-4.6s2.2-0.9,5.1-1.2V3.6h-19.2v1.3
	c2.5,0,4.4,0.5,5.1,1.2c0.7,0.7,1.2,2.2,1.2,4.6v29c0,2.5-0.5,4.1-1.2,4.6c-0.7,0.5-2.2,0.9-5.1,1.2v0.7h19.2V44.9z M280.2,47.1
	c5.7,0,10.5-1.8,14.7-5.5c4.4-4.1,6.7-9.7,6.7-16.6c0-6.8-2.1-12.6-6.4-16.6c-4.4-3.9-9.2-5.7-15-5.7c-5.8,0-11,1.8-14.8,5.7
	c-4.4,4.1-6.4,9.8-6.4,16.5s2.1,12,6.2,16.1C269,45,274.1,47.1,280.2,47.1z M270.3,9.4c2.8-3.3,5.9-4.7,9.8-4.7s7.1,1.6,9.8,4.7
	c2.8,3.3,4.1,8.1,4.1,15.3s-1.3,12-4.1,15.3c-2.8,3.3-5.9,4.7-9.8,4.7s-7.1-1.6-9.8-4.7c-2.8-3.1-4.1-8.1-4.1-15.4
	C266.2,17.6,267.7,12.7,270.3,9.4z M319.9,45.4c-2.2-0.1-3.9-0.7-4.6-1.3c-1.2-0.9-1.6-3.3-1.6-6.8V11.8l28.7,35.6h1.2V13.1
	c0-3.4,0.1-5.7,1.2-6.7c0.9-0.9,2.5-1.6,5.1-1.8V3.7h-15.3v1.2c2.2,0.1,3.9,0.7,4.6,1.3c1.2,0.9,1.6,3.3,1.6,6.8v21.7l-25.1-31h-11
	v1.2c1.3,0,2.2,0.1,2.9,0.5c0.7,0.1,1.6,0.9,2.5,2.1l0.9,1.2V37c0,3.4-0.5,5.7-1.2,6.7c-0.9,0.9-2.5,1.6-5.2,1.8v1.2H320L319.9,45.4
	L319.9,45.4z M364.9,45.4c-1.6,0-2.8-0.1-3.3-0.5c-0.9-0.5-1.3-1.2-1.3-2.2c0-0.7,0.1-1.3,0.5-2.2c0.1-0.9,1.3-3.4,2.9-7.8h17.1
	l2.5,6.2c0.5,0.9,0.7,1.8,0.9,2.5c0.1,0.7,0.1,1.3,0.1,1.6c0,0.9-0.5,1.6-0.9,1.8s-1.8,0.5-3.5,0.7v1.4h16.5v-1.2
	c-1.3-0.1-2.5-0.5-3.3-1.2c-0.7-0.7-1.3-2.1-2.5-4.6L374.4,3.3h-1.3l-13.5,31.6c-2.1,4.7-3.4,7.5-4.4,8.6c-0.7,0.9-2.1,1.6-3.5,1.8
	v1.2h13.2V45.4L364.9,45.4z M371.8,11.9l7.5,17.8h-15L371.8,11.9z M436.3,35.1h-1.6c-1.8,3.9-3.9,6.4-5.9,7.3
	c-2.1,0.9-5.9,1.3-11.5,1.3c-1.3,0-2.2,0.1-2.9,0c-0.7-0.1-1.2-0.1-1.6-0.1c-0.9,0-1.2-0.5-1.6-0.7c-0.5-0.1-0.5-0.9-0.5-1.6V9.9
	c0-2.1,0.1-3.4,1.2-4.1c0.9-0.7,2.5-0.9,4.7-1.2V3.4h-18.3v1.2c2.2,0.1,3.9,0.7,4.6,1.3c0.7,0.7,1.2,2.2,1.2,4.6v28.9
	c0,2.5-0.5,3.9-1.2,4.6c-0.7,0.7-2.2,1.2-4.6,1.3v0.9H433L436.3,35.1z M457.7,47.2c0-0.5,0.1-0.9,0.5-1.3c0.1-0.5,0.9-0.7,1.6-0.7
	c0.1,0,1.3,0.5,3.5,1.2c2.2,0.7,4.4,1.2,6.4,1.2c3.9,0,7.3-1.2,9.8-3.4c2.5-2.2,3.9-5.1,3.9-8.5c0-2.5-0.7-4.7-2.1-6.7
	c-1.3-2.1-3.9-3.9-7.5-6.2l-5.7-3.4c-2.2-1.3-3.9-2.8-4.7-3.9c-1.2-1.2-1.6-2.8-1.6-4.4c0-1.8,0.7-3.3,2.1-4.4
	c1.2-1.2,2.8-1.6,4.6-1.6c2.2,0,4.6,0.9,6.8,2.5c2.2,1.6,3.9,4.6,5.1,8.6h1.6l-1.3-13.7h-1.2c-0.1,0.7-0.5,1.2-0.7,1.6
	c-0.1,0.1-0.7,0.5-1.6,0.5c-0.5,0-1.6-0.5-3.5-1.2c-2.1-0.7-3.9-1.2-5.2-1.2c-3.5,0-6.7,0.9-8.6,3.3c-2.1,2.2-3.3,5.1-3.3,8.1
	c0,2.5,0.9,4.7,2.8,6.8c1.2,0.9,2.5,2.1,4.1,3.3l5.5,3.4c3.3,2.1,5.2,3.5,6.2,4.6c1.6,1.6,2.2,3.4,2.2,5.5c0,2.2-0.7,4.1-2.2,5.5
	c-1.3,1.3-3.3,2.1-5.2,2.1c-3.9,0-7.1-1.6-9.7-4.6c-1.6-1.8-2.8-4.1-3.9-7.1l-1.6,0.1l1.8,13.7h1.1V47.2z M507.1,45.5
	c-2.2-0.1-3.9-0.7-4.6-1.3s-1.2-2.2-1.2-4.6V26h19.5v12.6c0,2.8-0.1,4.6-0.9,5.2c-0.7,0.7-2.2,1.2-4.7,1.3v1.2h18.1v-1.2
	c-2.2-0.1-3.9-0.7-4.6-1.3s-1.2-2.2-1.2-4.6V10.6c0-2.2,0.5-3.9,1.2-4.6s2.2-1.2,4.6-1.3V3.6h-18.1v1.2c2.2,0.1,3.9,0.7,4.6,1.3
	c0.7,0.7,1.2,2.2,1.2,4.6v12.6h-19.5V10.6c0-2.2,0.5-3.9,1.2-4.6s2.2-1.2,4.6-1.3V3.6h-18.1v1.2c2.2,0.1,3.9,0.7,4.6,1.3
	c0.7,0.7,1.2,2.2,1.2,4.6v28c0,2.9-0.1,4.6-0.9,5.2c-0.7,0.7-2.2,1.2-4.7,1.3v1.4h18.1v-1.1H507.1z M539.9,43.8
	c-0.5,0.7-2.1,1.2-4.6,1.3l0.1,1.2h18.1v-1.2c-2.5-0.1-4.1-0.7-4.7-1.3c-0.7-0.7-1.2-2.2-1.2-4.6V26.6l2.8-0.1l16,20H577v-1.2
	c-1.3-0.1-2.2-0.5-3.3-0.9c-0.9-0.5-1.6-1.3-2.5-2.2L558,25.7c3.5-0.5,6.7-1.6,8.6-3.4c2.1-1.8,3.3-4.4,3.3-7.5c0-4.7-2.2-8-7.1-9.8
	c-2.5-0.9-5.7-1.3-9.3-1.3h-18.1v1.2c2.2,0.1,3.9,0.7,4.6,1.3c0.5,0.7,0.9,2.2,0.9,4.6v28C540.8,41.5,540.6,43.2,539.9,43.8z
	 M547.7,8.4c0-1.2,0-1.6,0.5-2.1c0.5-0.1,1.6-0.5,3.4-0.5c2.8,0,5.1,0.5,6.7,1.2c2.9,1.3,4.6,4.1,4.6,7.8c0,3.9-1.8,6.7-5.2,8
	c-1.8,0.9-5.2,1.3-9.8,1.6v-16H547.7z M584.2,43.8c-0.9,0.7-2.5,1.2-5.2,1.3h0.1v0.7h19.3v-1.2c-2.5-0.1-4.4-0.7-5.1-1.2
	s-1.2-2.1-1.2-4.6V10.5c0-2.2,0.5-3.9,1.2-4.6s2.2-0.9,5.1-1.2V3.6h-19.2v1.3c2.5,0,4.4,0.5,5.1,1.2c0.7,0.7,1.2,2.2,1.2,4.6v28.7
	C585.3,41.9,585,43.2,584.2,43.8z M615.4,45c-2.2-0.1-3.9-0.7-4.6-1.3c-1.2-0.9-1.6-3.3-1.6-6.8V11.6l28.7,35.8h1.2V13.2
	c0-3.4,0.1-5.7,1.2-6.7c0.9-0.9,2.5-1.6,5.1-1.8V3.6H630v1.2c2.2,0.1,3.9,0.7,4.6,1.3c1.2,0.9,1.6,3.3,1.6,6.8v21.7l-25-31h-11v1.2
	c1.3,0,2.2,0.1,2.9,0.5c0.7,0.1,1.6,0.9,2.5,2.1l0.9,1.2v28.4c0,3.4-0.1,5.7-1.2,6.7c-0.9,0.9-2.5,1.6-5.2,1.8v0.9h15.3V45
	C615.6,45,615.4,45,615.4,45z M685,35.7h-1.8c-1.8,3.9-3.5,6.2-5.7,7.1c-2.2,0.9-5.5,1.3-9.8,1.3c-4.1,0-6.4-0.1-7.3-0.5
	c-0.7-0.1-1.2-0.9-1.2-2.2V25.5h10.1c2.8,0,4.6,0.1,5.2,1.2c0.7,0.9,1.3,2.5,1.8,5.1h1.6V16.6h-1.6c-0.5,2.5-1.2,4.1-1.8,5.1
	c-0.7,0.7-2.5,1.2-5.2,1.2h-10.1V8.4c0-0.9,0-1.6,0.1-1.8s0.9-0.5,1.8-0.5h9c3.5,0,6.2,0.5,7.3,1.3c1.2,0.7,2.1,2.8,2.5,5.5h1.8
	l-0.1-9.3h-34.4v1.2c2.2,0.1,3.9,0.7,4.6,1.3c0.9,0.7,1.2,2.2,1.2,4.6v28.6c0,2.5-0.5,3.9-1.2,4.6c-0.7,0.7-2.2,1.2-4.6,1.3h-0.1
	v1.4h35L685,35.7z M725.4,47.1c5.7,0,10.5-1.8,14.7-5.5c4.4-4.1,6.7-9.7,6.7-16.6c0-6.8-2.1-12.6-6.4-16.6c-4.1-3.9-9-5.7-14.8-5.7
	c-5.9,0-11,1.8-14.8,5.7c-4.4,4.1-6.7,9.8-6.4,16.5c0,6.7,2.1,12,6.2,16.1C714.2,45,719.1,47.1,725.4,47.1z M715.2,9.4
	c2.8-3.3,5.9-4.7,9.8-4.7c3.9,0,7.1,1.6,9.8,4.7c2.8,3.3,4.1,8.1,4.1,15.3s-1.3,12-4.1,15.3c-2.8,3.3-5.9,4.7-9.8,4.7
	c-3.9,0-7.1-1.6-9.8-4.7c-2.8-3.1-3.9-8.1-4.1-15.4C711.2,17.6,712.5,12.7,715.2,9.4z M754.2,43.8c-0.7,0.7-2.2,1.2-4.7,1.3l0.1,1.4
	h18.1v-1.2c-2.5-0.1-4.1-0.7-4.7-1.3c-0.7-0.7-1.2-2.2-1.2-4.6V25.3h9.3c2.8,0,4.6,0.1,5.2,1.2c0.7,0.9,1.3,2.5,1.8,5.1h1.6v-15
	h-1.6c-0.5,2.5-1.2,4.1-1.8,5.1c-0.7,0.7-2.5,1.2-5.2,1.2h-9.3V8.4c0-0.9,0.1-1.6,0.5-1.8c0.4-0.1,0.7-0.5,1.6-0.5h9
	c3.5,0,6.2,0.5,7.3,1.2c1.2,0.9,2.1,2.8,2.5,5.7h1.6l-0.5-9.3h-34.4v1.2c2.2,0.1,3.9,0.7,4.6,1.3c0.9,0.7,1.2,2.2,1.2,4.6v28
	C755.2,41.6,754.9,43.2,754.2,43.8z M42,127.3l-8.5-5.2c-3.3-2.1-5.5-3.9-7.1-5.7c-1.6-1.8-2.2-3.9-2.2-6.4c0-2.9,0.9-5.1,2.9-6.7
	c2.1-1.6,4.4-2.2,7.1-2.2c3.4,0,6.8,1.2,10.2,3.5c3.4,2.5,5.9,6.8,7.5,13.1h2.2l-2.1-20.7H50c-0.1,1.2-0.7,1.8-1.2,2.5
	c-0.5,0.7-1.3,0.9-2.5,0.9c-0.5,0-2.1-0.5-5.2-1.6c-3.1-1.2-5.7-1.6-8-1.6c-5.5,0-9.8,1.6-13.1,4.7c-3.3,3.4-4.7,7.3-4.7,12.4
	c0,3.9,1.3,7.3,4.1,10.2c1.3,1.6,3.4,3.3,5.9,4.7l8.1,5.2c4.7,2.9,8,5.2,9.3,6.7c2.2,2.2,3.4,5.1,3.4,8.1c0,3.4-1.2,6.2-3.4,8.1
	c-2.2,2.1-4.7,2.9-8,2.9c-5.7,0-10.5-2.2-14.4-6.8c-2.1-2.8-4.1-6.2-5.7-10.5H13l2.8,20.7h2.2c0-0.9,0.1-1.6,0.7-2.2
	c0.5-0.5,1.2-0.8,2.2-0.8c0.5,0,2.5,0.7,5.7,1.8c3.3,1.2,6.4,1.6,9.3,1.6c6.2,0,11-1.6,14.8-5.1c3.9-3.4,5.7-7.8,5.7-12.7
	c0-3.5-1.2-7.1-3.3-9.8C51,133.7,47.2,130.6,42,127.3z M122.6,152.8L98.5,97.5h-1.8l-20.4,47.6c-2.9,7.3-5.2,11.5-6.4,13.2
	c-1.3,1.6-3.3,2.5-5.7,2.8v2.1h19.4v-1.8c-2.2-0.1-3.5-0.5-4.6-0.9c-1.3-0.7-2.1-1.8-2.1-3.4c0-0.9,0.1-2.1,0.7-3.4
	c0.5-1.3,2.1-5.2,4.6-11.5h25.3l3.9,9.3c0.7,1.3,1.2,2.8,1.3,3.9s0.5,2.1,0.5,2.5c0,1.6-0.1,2.2-1.2,2.8c-1.1,0.6-2.8,0.7-5.5,0.9
	v1.8h24.6v-1.8c-2.2-0.5-3.9-0.9-4.7-1.8C125.6,158.7,124.3,156.3,122.6,152.8z M83.9,138l11.2-26.9l11.2,26.9H83.9z M134.5,100.2
	c4.1,0.1,6.7,0.9,7.8,1.8c1.2,0.9,1.8,3.3,1.8,6.8v43.3c0,3.9-0.7,6.2-1.8,7.1c-1.2,0.9-3.9,1.6-7.8,1.8v1.8h28.7V161
	c-4.1-0.1-6.7-0.9-7.8-1.8c-1.2-0.9-1.8-3.4-1.8-7.1v-43.3c0-3.4,0.7-5.9,1.8-6.8c1.2-0.9,3.9-1.6,7.8-1.8v-1.8h-28.7V100.2z
	 M211.3,100.7c3.4,0.1,5.7,0.9,6.8,2.1c1.6,1.6,2.2,5.1,2.2,10.2v32.2l-37.7-46.8h-16.6v1.8c2.1,0,3.5,0.1,4.6,0.7
	c0.9,0.5,2.2,1.6,3.5,3.3l1.3,1.6v42.9c0,5.2-0.5,8.5-1.6,9.8c-1.2,1.3-3.5,2.2-7.8,2.8h0.5v2.1h22.8v-1.8c-3.5-0.1-5.9-0.9-6.8-2.1
	c-1.6-1.8-2.2-5.2-2.2-10.5v-37.9l42.9,53.3h1.6v-51c0-5.1,0.7-8.5,1.8-9.8c1.2-1.3,3.5-2.2,7.3-2.8v-2h-22.8v2h0.2V100.7z
	 M237.6,98.6l-0.5,17h2.2c0.9-5.2,2.2-8.6,4.4-10.2c1.8-1.6,5.5-2.2,11-2.2h5.7v48.5c0,4.1-0.7,6.7-1.6,7.8
	c-1.2,1.2-3.5,1.8-7.8,2.1v1.8H279v-1.8c-4.1-0.1-6.7-0.9-7.8-1.8c-1.2-0.9-1.8-3.4-1.8-7.1v-49.9h5.5c5.7,0,9.3,0.7,11.2,2.2
	c1.8,1.3,3.3,4.7,4.4,10.1h2.2l-0.5-16.5H237.6z M344.3,98.5h-25.6v1.8c3.5,0.1,5.7,1.2,6.8,2.1c1.2,0.9,1.6,3.3,1.6,6.7v42.2
	c0,4.1-0.5,6.7-1.3,7.8c-0.9,1.2-3.3,1.8-6.8,2.2h-0.5v1.6h27.1v-1.8c-3.9-0.1-6.4-0.9-7.5-1.8c-1.2-0.9-1.6-3.3-1.6-6.8v-17.9h7.8
	c7.3,0,13.5-1.6,18.3-4.6c4.7-2.9,7.3-7.8,7.3-14.4c0-5.2-2.2-9.3-6.7-12.6C358.8,99.9,352.4,98.5,344.3,98.5z M352.4,129.4
	c-2.5,1.2-5.9,1.8-10.5,1.8h-1.6c-0.5,0-1.6,0-3.4-0.1v-25.4c0-1.3,0.1-2.2,0.7-2.8c0.5-0.5,1.6-0.7,3.5-0.7c4.4,0,7.8,0.7,10.5,1.8
	c5.2,2.2,7.8,6.4,7.8,12.4C359.5,122.7,357,127.2,352.4,129.4z M412.2,100.2c3.5,0.5,5.9,0.9,7.1,2.1c1.2,1.2,1.6,3.4,1.6,6.8v19
	h-29.3v-19.1c0-3.5,0.5-5.7,1.6-6.8c0.9-1.2,3.3-1.8,6.8-2.1v-1.8h-26.9v1.8c3.4,0.5,5.7,0.9,6.8,2.1c1.2,1.2,1.6,3.4,1.6,6.8v42.2
	c0,4.1-0.5,6.8-1.3,7.8c-0.9,0.9-3.3,1.6-7.1,2.1v2.1h26.9v-1.8c-3.4-0.1-5.7-0.9-6.8-1.8c-1.2-1.2-1.6-3.4-1.6-6.8v-20.4h29.2v19
	c0,4.1-0.5,6.8-1.3,7.8c-0.9,0.9-3.3,1.6-7.1,2.1v1.8h26.9v-1.8c-3.4-0.5-5.7-0.9-6.8-2.1c-1.2-1.2-1.6-3.4-1.6-6.8v-43.3
	c0-3.5,0.5-5.7,1.6-6.8c0.9-1.2,3.3-1.8,6.8-2.1v-1.8h-27.2V100.2z M443.2,100.2c4.1,0.1,6.7,0.9,7.8,1.8c1.2,0.9,1.8,3.3,1.8,6.8
	v43.3c0,3.9-0.7,6.2-1.8,7.1c-1.2,0.9-3.9,1.6-7.8,1.8v1.8h28.7V161c-4.1-0.1-6.7-0.9-7.8-1.8c-1.2-0.9-1.8-3.4-1.8-7.1v-43.3
	c0-3.4,0.7-5.9,1.8-6.8c1.2-0.9,3.9-1.6,7.8-1.8v-1.8h-28.7V100.2z M520.5,157c-2.9,1.3-9,2.1-17.5,2.1h-4.6c-0.7,0-1.6-0.1-2.2-0.1
	c-1.3-0.1-2.1-0.5-2.5-1.2c-0.1-0.7-0.5-1.3-0.5-2.5v-47c0-3.3,0.7-5.5,1.8-6.4c1.3-1.2,3.5-1.6,7.3-1.8v-1.8h-27.4v1.8
	c3.5,0.1,5.9,0.9,7.1,2.1c1.2,1.2,1.6,3.4,1.6,6.8v43.3c0,3.5-0.5,5.9-1.6,6.8c-0.9,0.9-3.3,1.3-6.8,1.8l-0.1,1.8H527l4.7-17h-2.5
	C526.6,151.9,523.4,155.7,520.5,157z M568.3,97.3c-9,0-16.1,2.9-22.1,8.6c-6.7,6.2-9.8,14.7-9.8,24.7c0,9.8,2.9,17.8,9.2,24.1
	c6.2,6.2,13.7,9.3,22.8,9.3c8.6,0,16-2.9,21.8-8.5c6.7-6.2,10.1-14.7,10.1-25.1c0-10.2-3.4-18.7-9.8-24.7
	C584.4,100.2,576.9,97.3,568.3,97.3z M582.8,153.8c-3.9,4.7-9,7.1-14.7,7.1c-5.9,0-10.7-2.5-14.8-7.3c-4.1-5.1-6.2-12.6-6.2-22.6
	c0-10.2,2.1-18.1,6.2-22.8c4.1-4.7,9-7.3,14.8-7.3c5.7,0,10.5,2.2,14.7,7.1c4.1,4.7,6.2,12.6,6.2,23
	C589,141.5,586.6,149,582.8,153.8z M646.7,147l-22.4-48.4h-19.2v1.8c3.9,0.1,6.4,0.7,7.5,1.8c1.2,1.2,1.6,3.4,1.6,6.8v39.5
	c0,5.2-0.7,8.5-1.8,9.8c-1.2,1.3-3.5,2.2-7.8,2.8h0.5v2.2h22.6v-1.8c-3.5-0.1-5.9-0.9-6.8-2.1c-1.6-1.8-2.2-5.2-2.2-10.5v-38.7
	l24.5,53.1h1.3l24.7-55.5v43.6c0,4.1-0.5,6.7-1.3,7.8c-0.9,1.2-3.4,1.8-7.3,2.1v1.8h27.1v-1.8c-3.5-0.5-5.9-1.2-7.1-2.1
	c-1.2-1.2-1.6-3.3-1.6-6.8v-43c0-3.4,0.5-5.7,1.6-6.8c1.2-1.2,3.4-1.8,7.1-2.1v-1.8h-19.4L646.7,147z M736.4,156.5
	c-3.3,1.3-8,2.1-14.7,2.1c-6.2,0-9.8,0-11-0.5s-1.8-1.6-1.8-3.4v-23.9h15c4.1,0,6.8,0.5,8,1.8c1.2,1.3,2.1,3.5,2.8,7.5h2.2V118h-2.2
	c-0.7,3.9-1.6,6.4-2.8,7.5c-1.2,1.2-3.9,1.8-8,1.8h-14.8v-21.7c0-1.2,0-2.1,0.5-2.5c0.5-0.5,1.3-0.7,2.8-0.7h13.2
	c5.7,0,9.3,0.7,11,1.8c1.6,1.2,2.8,3.9,3.5,8.1h2.5l-0.1-13.9H691v1.8c3.5,0.1,5.9,0.9,7.1,2.1s1.6,3.4,1.6,6.8v43.3
	c0,3.5-0.5,5.9-1.6,6.8c-0.9,0.9-3.3,1.3-6.8,1.8l-0.1,1.3h52.2l4.4-16.5h-2.8C742.3,151.6,739.7,155.2,736.4,156.5z M795.3,100.7
	c3.4,0.1,5.9,0.9,6.8,2.1c1.3,1.6,2.2,5.1,2.2,10.2V145l-37.3-46.4h-16.6v1.8c2.1,0,3.5,0.1,4.6,0.7c0.9,0.5,2.2,1.6,3.5,3.3
	l1.3,1.6v42.9c0,5.2-0.7,8.5-1.8,9.8c-1.2,1.3-3.5,2.2-7.8,2.8h0.5v2.1h22.8v-1.8c-3.5-0.1-5.9-0.9-6.8-2.1
	c-1.6-1.8-2.2-5.2-2.2-10.5v-38.2l42.9,53.3h1.6v-51c0-5.1,0.7-8.5,1.8-9.8c1.2-1.3,3.5-2.2,7.3-2.8v-2h-22.8L795.3,100.7
	L795.3,100.7z M883.2,159.6c-0.9-0.9-2.2-3.3-3.9-6.8l-24.1-55.2h-1.8L833,145.1c-2.9,7.3-5.2,11.5-6.4,13.2
	c-1.3,1.6-3.3,2.5-5.7,2.8v1.8v0.1h19.4v-1.8c-2.2-0.1-3.5-0.5-4.6-0.9c-1.3-0.7-2.1-1.8-2.1-3.4c0-0.9,0.1-2.1,0.7-3.4
	c0.5-1.3,2.1-5.2,4.6-11.5h25.6l3.9,9.3c0.7,1.3,1.2,2.8,1.3,3.9s0.5,2.1,0.5,2.5c0,1.6-0.1,2.2-1.2,2.8c-0.7,0.5-2.8,0.7-5.5,0.9
	v1.8H888v-1.8C885.5,160.9,884,160.4,883.2,159.6z M840.4,138l11.2-26.7l11.2,26.7H840.4z M445.7,89.6c9.8,0,17.8-7.8,18.4-17.5
	h373.2c0.7,1.8,2.1,3.4,4.1,3.4c2.5,0,4.6-2.1,4.6-4.6s-1.8-4.6-4.6-4.6c-2.1,0-3.4,1.6-4.1,3.4H464c-0.7-9.8-8.6-17.5-18.4-17.5
	c-9.8,0-17.8,7.8-18.4,17.5h-368c-0.5-2.1-2.1-3.4-4.1-3.4c-2.5,0-4.6,2.1-4.6,4.6s2.1,4.6,4.6,4.6c2.1,0,3.4-1.6,4.1-3.4h368
	C427.9,81.9,435.9,89.6,445.7,89.6z M445.7,54.7c9.2,0,16.5,7.3,16.5,16.5s-7.3,16.5-16.5,16.5c-9.2,0-16.5-7.3-16.5-16.5
	C429.4,62,436.6,54.7,445.7,54.7z M435.1,74.2c0.1,0,0.4,0,0.4,0.4s0,0.7,0,0.9c0.1,0.8,0.4,1.8,0.7,2.6c0.4,0.7,0.7,1.3,1.2,2
	c0.7,0.8,1.4,1.6,2.2,2.1c0.7,0.5,1.4,0.8,2.2,1.2s1.4,0.5,2.2,0.8c0.7,0.1,1.2,0.4,1.6,0.9c0.1,0.1,0.1,0.1,0.4,0l0.1-0.1
	c0.4-0.4,0.8-0.5,1.3-0.7c0.4,0,0.5-0.1,0.8-0.1c0.9-0.4,2-0.7,2.8-1.2c0.8-0.5,1.4-0.8,2.1-1.4c0.8-0.7,1.4-1.6,2-2.5
	c0.5-0.8,0.7-1.6,0.9-2.5c0.1-0.7,0.1-1.3,0.1-1.8c0-0.4,0-0.4,0.4-0.4c0.1,0,0.5,0,0.7,0c0.1,0,0.1,0,0.1-0.1c0-0.1,0-0.1,0-0.1
	c-0.5-0.8-0.9-1.6-1.4-2.5c-0.1-0.1-0.1-0.1-0.4,0c-0.5,0.8-0.9,1.6-1.4,2.5c-0.1,0.1,0,0.4,0.1,0.4s0.5,0,0.7,0
	c0.1,0,0.4,0,0.1,0.4c-0.1,0.9-0.5,2-0.9,2.8c-0.4,0.7-0.8,1.2-1.4,1.6c-0.9,0.7-2,0.9-3.1,0.9c-1.2-0.1-1.8-0.8-2-2
	c-0.1-0.8-0.1-1.8-0.4-2.6c-0.1-0.9-0.1-1.8-0.1-2.8c-0.1-1.3-0.1-2.5-0.1-3.8v-0.1c0-0.8,0-1.4,0-2.2c0,0,0-0.1,0.1-0.1
	s0.4-0.1,0.4-0.1s0.1,0,0.1-0.1c0.4,0,0.5,0,0.8,0c0.9-0.1,2.1,0,3.1,0h0.1c0.7,0.5,1.4,0.4,1.6-0.5c0.1-0.4,0-0.8-0.4-1.2
	c-0.5-0.4-0.8-0.4-1.3,0c-0.1,0.1-0.4,0.1-0.7,0.1c-0.1,0-0.4,0-0.5,0c-0.9,0-2.1,0-3.1-0.1c-0.1,0-0.4,0-0.4-0.1
	c0-0.1-0.1-0.1-0.4-0.1c-0.1,0-0.1,0-0.1-0.1c0-0.1,0-0.4,0-0.5c0-0.4,0-0.8,0-1.2c0-0.1,0-0.1,0.1-0.1s0.4-0.1,0.4-0.4v-0.1
	c0.1-0.1,0.1-0.5,0-0.7c0-0.1,0-0.1,0-0.1c0.4-0.4,0.7-0.7,0.8-1.2c0.4-0.8,0-1.6-0.5-2.2c-0.7-0.7-1.4-0.9-2.5-0.8
	c-0.9,0.1-1.8,0.9-2,2c-0.1,0.9,0.1,1.6,0.8,2.2c0.1,0.1,0.1,0.1,0,0.4c-0.1,0.1-0.1,0.4,0,0.5s0.1,0.1,0.1,0.4
	c0,0.2,0.1,0.1,0.4,0.1c0.1,0,0.1,0,0.1,0.1c0,0.5,0,1.2,0,1.6c0,0.1,0,0.1-0.1,0.1s-0.1,0-0.4,0.1c0,0.1-0.1,0.1-0.4,0.1
	c-0.1,0-0.1,0-0.4,0c-1.2,0.1-2.5,0.1-3.5,0h-0.1c-0.7-0.5-1.4-0.4-1.6,0.5c-0.1,0.4,0.1,0.8,0.5,1.2c0.5,0.4,0.8,0.1,1.3-0.1
	l0.1-0.1c0.5,0,1.2,0,1.6,0c0.7,0,1.4,0,2.1,0.1c0.1,0,0.4,0,0.4,0.1s0.1,0.1,0.1,0.1c0.1,0,0.1,0,0.1,0.1c0,0.1,0,0.4,0,0.7
	c0,0.9,0,2,0,2.8c0,0.9,0,2-0.1,2.9c0,0.7,0,1.3-0.1,2c-0.1,0.9-0.1,2.1-0.4,3.1c0,0.5-0.4,0.9-0.7,1.3c-0.5,0.5-1.2,0.7-1.8,0.7
	c-0.7,0-1.2-0.1-1.6-0.5c-0.4-0.1-0.8-0.4-1.2-0.7c-0.8-0.7-1.4-1.6-1.8-2.8c-0.1-0.5-0.4-0.9-0.4-1.6c0-0.1,0-0.4,0.1-0.4
	s0.5,0,0.7,0c0.1,0,0.4-0.1,0.1-0.4c-0.1-0.4-0.4-0.5-0.5-0.8c-0.4-0.5-0.7-1.2-0.9-1.6c-0.1-0.1-0.1-0.1-0.4,0
	c-0.5,0.8-0.9,1.6-1.4,2.5c-0.1,0.1,0,0.4,0.1,0.4C434.6,74.2,434.7,74.2,435.1,74.2z M444.3,59c0-0.8,0.7-1.4,1.4-1.4
	s1.4,0.7,1.4,1.4c0,0.7-0.7,1.4-1.4,1.4C444.8,60.7,444.3,59.8,444.3,59z"/>
</svg>
